<mxfile host="65bd71144e">
    <diagram id="77RCZxTCPLj0RG-OWMgR" name="Page-1">
        <mxGraphModel dx="1194" dy="743" grid="1" gridSize="10" guides="1" tooltips="1" connect="1" arrows="1" fold="1" page="1" pageScale="1" pageWidth="850" pageHeight="1100" math="0" shadow="0">
            <root>
                <mxCell id="0"/>
                <mxCell id="1" parent="0"/>
                <mxCell id="2" value="" style="rounded=0;whiteSpace=wrap;html=1;" vertex="1" parent="1">
                    <mxGeometry x="140" y="70" width="400" height="60" as="geometry"/>
                </mxCell>
                <mxCell id="3" value="" style="rounded=0;whiteSpace=wrap;html=1;" vertex="1" parent="1">
                    <mxGeometry x="140" y="40" width="350" height="20" as="geometry"/>
                </mxCell>
                <mxCell id="4" value="" style="rounded=0;whiteSpace=wrap;html=1;" vertex="1" parent="1">
                    <mxGeometry x="500" y="40" width="40" height="20" as="geometry"/>
                </mxCell>
                <mxCell id="5" value="" style="rounded=0;whiteSpace=wrap;html=1;" vertex="1" parent="1">
                    <mxGeometry x="140" y="140" width="300" height="20" as="geometry"/>
                </mxCell>
                <mxCell id="6" value="" style="rounded=0;whiteSpace=wrap;html=1;" vertex="1" parent="1">
                    <mxGeometry x="450" y="140" width="90" height="20" as="geometry"/>
                </mxCell>
                <mxCell id="8" value="" style="rounded=0;whiteSpace=wrap;html=1;" vertex="1" parent="1">
                    <mxGeometry x="75" y="70" width="55" height="60" as="geometry"/>
                </mxCell>
                <mxCell id="9" value="" style="rounded=0;whiteSpace=wrap;html=1;" vertex="1" parent="1">
                    <mxGeometry x="10" y="70" width="55" height="60" as="geometry"/>
                </mxCell>
                <mxCell id="10" value="" style="rounded=0;whiteSpace=wrap;html=1;" vertex="1" parent="1">
                    <mxGeometry x="610" y="70" width="55" height="60" as="geometry"/>
                </mxCell>
                <mxCell id="11" value="" style="rounded=0;whiteSpace=wrap;html=1;" vertex="1" parent="1">
                    <mxGeometry x="550" y="70" width="55" height="60" as="geometry"/>
                </mxCell>
                <mxCell id="13" value="" style="rounded=0;whiteSpace=wrap;html=1;" vertex="1" parent="1">
                    <mxGeometry x="150" y="80" width="40" height="40" as="geometry"/>
                </mxCell>
                <mxCell id="14" value="" style="rounded=0;whiteSpace=wrap;html=1;" vertex="1" parent="1">
                    <mxGeometry x="200" y="80" width="40" height="40" as="geometry"/>
                </mxCell>
                <mxCell id="15" value="" style="rounded=0;whiteSpace=wrap;html=1;" vertex="1" parent="1">
                    <mxGeometry x="490" y="80" width="40" height="40" as="geometry"/>
                </mxCell>
                <mxCell id="16" value="" style="rounded=0;whiteSpace=wrap;html=1;" vertex="1" parent="1">
                    <mxGeometry x="440" y="80" width="40" height="40" as="geometry"/>
                </mxCell>
                <mxCell id="19" value="" style="shape=image;verticalLabelPosition=bottom;labelBackgroundColor=default;verticalAlign=top;aspect=fixed;imageAspect=0;image=data:image/png,iVBORw0KGgoAAAANSUhEUgAAAkIAAACnCAYAAAD9sTMYAAAEDmlDQ1BrQ0dDb2xvclNwYWNlR2VuZXJpY1JHQgAAOI2NVV1oHFUUPpu5syskzoPUpqaSDv41lLRsUtGE2uj+ZbNt3CyTbLRBkMns3Z1pJjPj/KRpKT4UQRDBqOCT4P9bwSchaqvtiy2itFCiBIMo+ND6R6HSFwnruTOzu5O4a73L3PnmnO9+595z7t4LkLgsW5beJQIsGq4t5dPis8fmxMQ6dMF90A190C0rjpUqlSYBG+PCv9rt7yDG3tf2t/f/Z+uuUEcBiN2F2Kw4yiLiZQD+FcWyXYAEQfvICddi+AnEO2ycIOISw7UAVxieD/Cyz5mRMohfRSwoqoz+xNuIB+cj9loEB3Pw2448NaitKSLLRck2q5pOI9O9g/t/tkXda8Tbg0+PszB9FN8DuPaXKnKW4YcQn1Xk3HSIry5ps8UQ/2W5aQnxIwBdu7yFcgrxPsRjVXu8HOh0qao30cArp9SZZxDfg3h1wTzKxu5E/LUxX5wKdX5SnAzmDx4A4OIqLbB69yMesE1pKojLjVdoNsfyiPi45hZmAn3uLWdpOtfQOaVmikEs7ovj8hFWpz7EV6mel0L9Xy23FMYlPYZenAx0yDB1/PX6dledmQjikjkXCxqMJS9WtfFCyH9XtSekEF+2dH+P4tzITduTygGfv58a5VCTH5PtXD7EFZiNyUDBhHnsFTBgE0SQIA9pfFtgo6cKGuhooeilaKH41eDs38Ip+f4At1Rq/sjr6NEwQqb/I/DQqsLvaFUjvAx+eWirddAJZnAj1DFJL0mSg/gcIpPkMBkhoyCSJ8lTZIxk0TpKDjXHliJzZPO50dR5ASNSnzeLvIvod0HG/mdkmOC0z8VKnzcQ2M/Yz2vKldduXjp9bleLu0ZWn7vWc+l0JGcaai10yNrUnXLP/8Jf59ewX+c3Wgz+B34Df+vbVrc16zTMVgp9um9bxEfzPU5kPqUtVWxhs6OiWTVW+gIfywB9uXi7CGcGW/zk98k/kmvJ95IfJn/j3uQ+4c5zn3Kfcd+AyF3gLnJfcl9xH3OfR2rUee80a+6vo7EK5mmXUdyfQlrYLTwoZIU9wsPCZEtP6BWGhAlhL3p2N6sTjRdduwbHsG9kq32sgBepc+xurLPW4T9URpYGJ3ym4+8zA05u44QjST8ZIoVtu3qE7fWmdn5LPdqvgcZz8Ww8BWJ8X3w0PhQ/wnCDGd+LvlHs8dRy6bLLDuKMaZ20tZrqisPJ5ONiCq8yKhYM5cCgKOu66Lsc0aYOtZdo5QCwezI4wm9J/v0X23mlZXOfBjj8Jzv3WrY5D+CsA9D7aMs2gGfjve8ArD6mePZSeCfEYt8CONWDw8FXTxrPqx/r9Vt4biXeANh8vV7/+/16ffMD1N8AuKD/A/8leAvFY9bLAAAAOGVYSWZNTQAqAAAACAABh2kABAAAAAEAAAAaAAAAAAACoAIABAAAAAEAAAJCoAMABAAAAAEAAACnAAAAAC6FgAEAABFmSURBVHgB7d0xiB1nYgfwkVm00Qb2ZGGMziEYXAiXQt1xsFxxxaHKBy5UqrgiCKIojeI0KVwkjiuhQtUVKRUwXGeuuOIQxOkWl0aFQBxxFmNkZSFSVggr7z/nbzP38t7ujnbfvnnz/T54evPem29mvt83oD/ffDN75tWkNAoBAgQIECBAoEKBNypssyYTIECAAAECBFoBQciJQIAAAQIECFQrIAhV2/UaToAAAQIECAhCzgECBAgQIECgWgFBqNqu13ACBAgQIEBAEHIOECBAgAABAtUKCELVdr2GEyBAgAABAoKQc4AAAQIECBCoVkAQqrbrNZwAAQIECBAQhJwDBAgQIECAQLUCglC1Xa/hBAgQIECAgCDkHCBAgAABAgSqFRCEqu16DSdAgAABAgQEIecAAQIECBAgUK2AIFRt12s4AQIECBAgIAg5BwgQIECAAIFqBQShartewwkQIECAAAFByDlAgAABAgQIVCsgCFXb9RpOgAABAgQICELOAQIECBAgQKBaAUGo2q7XcAIECBAgQEAQcg4QIECAAAEC1QoIQtV2vYYTIECAAAECgpBzgAABAgQIEKhWQBCqtus1nAABAgQIEBCEnAMECBAgQIBAtQKCULVdr+EECBAgQICAIOQcIECAAAECBKoVWFtky/devmz2nj1r1jc22vfsy/KzlpwDB+eAc8A54BxwDiz2HFhfOzzmnHk1KYsKQ7u7u833L140b5w9u6hd2C4BAgQIECBAYKbA5ubmzO+7Xy780pgQ1OW2TIAAAQIECAxJYOFBaEiNdSwECBAgQIAAga6AINTVsEyAAAECBAhUJSAIVdXdGkuAAAECBAh0BQShroZlAgQIECBAoCoBQaiq7tZYAgQIECBAoCsgCHU1LBMgQIAAAQJVCQhCVXW3xhIgQIAAAQJdAUGoq2GZAAECBAgQqEpAEKqquzWWAAECBAgQ6AoIQl0NywQIECBAgEBVAoJQVd2tsQQIECBAgEBXQBDqalgmQIAAAQIEqhIQhKrqbo0lQIAAAQIEugKCUFfDMgECBAgQIFCVgCBUVXdrLAECBAgQINAVEIS6GpYJECBAgACBqgQEoaq6W2MJECBAgACBroAg1NWwTIAAAQIECFQlIAhV1d0aS4AAAQIECHQFBKGuhmUCBAgQIECgKgFBqKru1lgCBAgQIECgKyAIdTUsEyBAgAABAlUJCEJVdbfGEiBAgAABAl0BQairYZkAAQIECBCoSkAQqqq7NZYAAQIECBDoCghCXQ3LBAgQIECAQFUCglBV3a2xBAgQIECAQFdAEOpqvMby9y9eNHmdRjmt/ZxGW+yDAAECBAgMQWD0QWjR4eHc+fPN+bfeOpW+zH7WNzZOZV92QoAAAQIEahAYdRBKaFhkeEjIevzoUXP//v2FnyvPvvuvdj/Z36LD3cIbYwcECBAgQGAgAqMOQiWk5H0R5Y2zZ5vbt2+3AWWRIzXZ9u7e83Y/d+7caf7nv58vojm2SYAAAQIEqhMYZRDKiMnm5mazvb3d3L17t30/jZ5dxEjNIrZ5Ghb2QYAAAQIEVkFgbRUOchnH2A0gGfk5anmdegfV6bPvox6j9QgQIECAAIE/CghCU2dCQkkmQDeTy1Hra2vN3suXzd6zZ1Nrzf+Yut162d68MDNvXwfVmb9nvxAgQIAAAQJ9BQShKbEEmcwpymW1Un72k582G2/+qHyc+d6Gn8nI0W8++2z/99S7+O5fNk+//XZmGJq3rzf/4sfN86dPZ9bZ37gFAgQIECBA4NgCgtAPhJmQnACUychff/11880337S/vP322+0k5WvXrjVXr16dC77z+A/NX/3NX8+s98sPP5wZbP725s0/2Vc2njvQyr6MDM3l9gMBAgQIEDgRAUHoB8bv/uM/2xD05ZdfNjcnAeXKlSvtLxkZSjjJK9+9+957/+9SWULTx//8T80777zThphUfPDgQZNtlVvrE266I0MfffRR+/vly5fbOtl2d1/ZRglQuUynECBAgAABAicvIAj9YJpLX1tbW+0roSVzg1IuXbrUvpe7zy5evNh+nv4ndTNiVG6jz/Lnn3/e3rWWUFRGk/J7Lp8lJCUE/cPf/X2TS2Ep2VcC0fXr19sgdZRLctPH4TMBAgQIECBwdIFR3j5/9Ob/6ZoJK3nt7u62oz6Zp9MtCTS5XDVdcvmsBJ1MrE69BJ6EmoSdXGrb2dlp5/xkLlG2k3Lr1q12DlHqtK9J+ErQKnV+/+//1m6nz2Tt6WPzmQABAgQIEJgvYERojk2e5JyHGB714YUJPmWCc+4SS3h5+8KFduu5dJbLXrnUlZDVLQ8fPux+3F8uc5T2v7BAgAABAgQInLiAIPQDaYLMrMnS+TkjPim5/HWcktGgx5ORoYwQpeSp1KUk+GQ/JQCVfbZ3o5WVvBMgQIAAAQInKiAITTi7IajM3ck8oW7JHKFc0vrFz3/e/br38ub6ubZOgk72kctnB5WMIOX4FAIECBAgQODkBQShiWkuY+XSVbljLAGlXMLKn+ood34dxJ+Rm3l/ASyhJ4EnE7AzMTp3l2VfmQydz7PmACX8zPr+oGPwGwECBAgQINBPoJrJ0gkWs17zuGZNis6lsXlPic5cn/yl+1ISoH77u9+1gSfBJyNBJdiUS2yZDJ1SRnzKe+42Kw9mnHUcf/bn5/brlP15J0CAAAECBPoLVDMiNO8v0CeglNvXw1cuf7WTpCd/5T13e5W7vPKekZ3pW+gzrycPYsxdYOXSV7degk/2kcnUe5N9ZBsZJSojTRkZSrj5bjJBO+Eol+Fy51i5E226W7958qTJrKV5oWx6fZ8JECBAgACB2QJVBKEEi1mlzNPJ3VwJIwk6uWR1/Ve/ai9fpU4mNpf5Qvktgac8+ycjPGVyc8JOJj9n9Ccl66Yk0GTbWTfBJSM8eShjtpkgVOYeZd3yROvUSajKCNHzyfqpm4BVLqllP6k/LyhlWwoBAgQIECBwuMBog1B5IGJCxUGlnbszCRp5oGLCR4JOtyRwJChlve5v5TJX2X4JS2X0KN8nHJV5QN1b67Oc9bvbTAhK0CnfJyyVOjmejCjNOr7usVomQIAAAQIE+gmceTUp/aocfe0y4fjoNU52zXZO0GQS80Fl+q/LZ25PjjsjN+UvyZc7tzIhOqXbrqyfkj+fkTlC+S3PIEqwKttqV5j6p7v91M2luG6d/D596Wu6Pd3jmNq8jwQIECBAoHqB8n/0QRCjDkIJE4eV6bDRDSClflln+nO23f2uW7f8VurOO46+dcr+sr3Dtj1vn74nQIAAAQI1CFQfhJbVydPh5rDj6Lv+YdvzOwECBAgQINC0V2YOc6jm9vnDIE7y974jNX3XP8ljtS0CBAgQIFCzgCBUc+9rOwECBAgQqFxAEKr8BNB8AgQIECBQs4AgVHPvazsBAgQIEKhcQBCq/ATQfAIECBAgULOAIFRz72s7AQIECBCoXEAQqvwE0HwCBAgQIFCzgCBUc+9rOwECBAgQqFxAEKr8BNB8AgQIEBi+wM7OTpOXcvICgtDJm9oiAQIECBAgsCICgtCKdJTDJECAAAECBE5eQBA6eVNbJECAAAECBFZEQBBakY5ymAQIECBAgMDJCwhCJ29qiwQIECBAgMCKCAhCK9JRDpMAAQIECBA4eYG1k9/ksLf4/YsX+wf4xtmz+8sWCBAgQIAAgfoEqglCCUAJPufOn9/v5b1nz/aXLRAgQIAAAQL1CVQRhBKCzr/1VvPw4cNme3t7v5d/9pOfNhtv/mj/swUCBAgQIECgn0C50rKqV1lGH4TSQRkFSgi6fft28+DBg+b999/f7+WrV6/uL1sgQIAAAQIE+glkoCFld3e3X8WBrD3qINQdCbp+/Xrz1VdftSEo7woBAgQIECBwfIEPPvig3ci/fvZZs4pTTkZ711gJQffv329KCNra2mpu3rx5/F63BQIECBAgQKAVyJWWvNbX1ppymWyVaEY5ItQNQXfv3m1HghKCPv3002Zz/dwq9Y9jJUCAAAECBBYoMLoRoYSgTNjKnKASgq5du9b8y69/3bz73nvN7t7zBXLaNAECBAgQILBKAqMbESqz1hN6Ll++3L7+8eOP2wnTq3jtcpVOJsdKgAABAgRWTWB0Qah0QELPJ598Uj6u5ASu/YO3QIAAAQIEVkCgDEaswKHuH+LoLo3tt8wCAQIECBAgcKoCJkufKredESBAgACBfgLlZpobN240uav4dUqeRffFF180T7/9tp2T+jrbWJU6xSu3yOfOsIPKhQsXZv6cebr37t0brJcRoZnd5ksCBAgQGLNA7iRWCERgtHOEdC8BAgQIEJgWyByWPAH5lx9+2GSk4nXK3suX7TZWcT5M3/amjRn5ysMS85ygWaWMBD158qSJzfR6Q/ea3apZLfUdAQIECBAYiUBuqHk+edzK65YaQlCxSVtneeX77pygBJ7nT5820w+pGbqVIFR62jsBAgQIVCUw9P+gh9YZs7y632UkKCGo+93Q2jDreMwRmqXiOwIECBAgQKAKgdEHoTJsV95n9epBv81a33cECBAgQIDAOARGf2ns3Pnzf+ypjY2ZPba5udlO7io/evp0kfBOgAABAgTGLzDaILQ+CT6PHz1q7ty5M7cX8wyJ6eci3Lp1q7l48eLcOn4gQIAAAQIE/k+g3H2XydKrNj8orRhlEMqlrvXJSM/29vaBD8yaDkEBybMlcltlZr6vYoemDQoBAgQIEDgtgTwsMSWPJVjFcubVpCzqwJeNsrOz04ah6faVANR9oFa+y+crV64YEZoG85kAAQIEliqQ/89ShnjFosyzHeLgQaa/HFZGHYRyeWz6wU6HgSw7vB12fH4nQIAAgfoEhhyEhtwbRwlCo7w0Vjpl1gOgym/z3oeYaOcdq+8JECBAgACB4wmMOgiFRrA53gmiNgECBAgQGLPA6J8jNObO0zYCBAgQIEDgeAKC0PH81CZAgAABAgRWWEAQWuHOc+gECBAgQIDA8QQEoeP5qU2AAAECBAissIAgtMKd59AJECBAgACB4wkIQsfzU5sAAQIECBBYYYHR3z6/wn3j0AkQIECAQCswxCdKj6VrjAiNpSe1gwABAgQIEOgtIAj1JlOBAAECBAgQGIuAIDSWntQOAgQIECBAoLeAINSbTAUCBAgQIEBgLAKC0Fh6UjsIECBAgACB3gKCUG8yFQgQIECAAIGxCAhCY+lJ7SBAgAABAgR6CwhCvclUIECAAAECBMYiIAiNpSe1gwABAgQIEOgtIAj1JlOBAAECBAgQGIuAIDSWntQOAgQIECBAoLeAINSbTAUCBAgQIEBgLAKC0Fh6UjsIECBAgACB3gKCUG8yFQgQIECAAIGxCAhCY+lJ7SBAgAABAgR6CwhCvclUIECAAAECBMYiIAiNpSe1gwABAgQIEOgtIAj1JlOBAAECBAgQGIvA2iIbsr6xscjN2zYBAgQIECBA4FgCCw1Cjx89OtbBqUyAAAECBAgQeF2BS5cuHVr1zKtJOXStnivsvXzZrK+tNTdu3OhZ0+oECBAgQIAAgZMRuHfvXlMyybwtLmREKCEoZWtra95+fU+AAAECBAgQWLhAySTzdrSQEaF5O/M9AQIECBAgQGBIAgsZESoNzHCUQoAAAQIECBBYhsBho0E5JiNCy+gZ+yRAgAABAgQGIeA5QoPoBgdBgAABAgQILENAEFqGun0SIECAAAECgxAQhAbRDQ6CAAECBAgQWIaAILQMdfskQIAAAQIEBiEgCA2iGxwEAQIECBAgsAwBQWgZ6vZJgAABAgQIDEJAEBpENzgIAgQIECBAYBkCgtAy1O2TAAECBAgQGISAIDSIbnAQBAgQIECAwDIEBKFlqNsnAQIECBAgMAgBQWgQ3eAgCBAgQIAAgWUICELLULdPAgQIECBAYBACgtAgusFBECBAgAABAssQ+F8R1ieIy6X8TgAAAABJRU5ErkJggg==;" vertex="1" parent="1">
                    <mxGeometry x="20" y="220" width="276.89" height="80" as="geometry"/>
                </mxCell>
                <mxCell id="20" value="" style="shape=image;verticalLabelPosition=bottom;labelBackgroundColor=default;verticalAlign=top;aspect=fixed;imageAspect=0;image=data:image/png,iVBORw0KGgoAAAANSUhEUgAAAgcAAACVCAYAAADMkFlaAAAEDmlDQ1BrQ0dDb2xvclNwYWNlR2VuZXJpY1JHQgAAOI2NVV1oHFUUPpu5syskzoPUpqaSDv41lLRsUtGE2uj+ZbNt3CyTbLRBkMns3Z1pJjPj/KRpKT4UQRDBqOCT4P9bwSchaqvtiy2itFCiBIMo+ND6R6HSFwnruTOzu5O4a73L3PnmnO9+595z7t4LkLgsW5beJQIsGq4t5dPis8fmxMQ6dMF90A190C0rjpUqlSYBG+PCv9rt7yDG3tf2t/f/Z+uuUEcBiN2F2Kw4yiLiZQD+FcWyXYAEQfvICddi+AnEO2ycIOISw7UAVxieD/Cyz5mRMohfRSwoqoz+xNuIB+cj9loEB3Pw2448NaitKSLLRck2q5pOI9O9g/t/tkXda8Tbg0+PszB9FN8DuPaXKnKW4YcQn1Xk3HSIry5ps8UQ/2W5aQnxIwBdu7yFcgrxPsRjVXu8HOh0qao30cArp9SZZxDfg3h1wTzKxu5E/LUxX5wKdX5SnAzmDx4A4OIqLbB69yMesE1pKojLjVdoNsfyiPi45hZmAn3uLWdpOtfQOaVmikEs7ovj8hFWpz7EV6mel0L9Xy23FMYlPYZenAx0yDB1/PX6dledmQjikjkXCxqMJS9WtfFCyH9XtSekEF+2dH+P4tzITduTygGfv58a5VCTH5PtXD7EFZiNyUDBhHnsFTBgE0SQIA9pfFtgo6cKGuhooeilaKH41eDs38Ip+f4At1Rq/sjr6NEwQqb/I/DQqsLvaFUjvAx+eWirddAJZnAj1DFJL0mSg/gcIpPkMBkhoyCSJ8lTZIxk0TpKDjXHliJzZPO50dR5ASNSnzeLvIvod0HG/mdkmOC0z8VKnzcQ2M/Yz2vKldduXjp9bleLu0ZWn7vWc+l0JGcaai10yNrUnXLP/8Jf59ewX+c3Wgz+B34Df+vbVrc16zTMVgp9um9bxEfzPU5kPqUtVWxhs6OiWTVW+gIfywB9uXi7CGcGW/zk98k/kmvJ95IfJn/j3uQ+4c5zn3Kfcd+AyF3gLnJfcl9xH3OfR2rUee80a+6vo7EK5mmXUdyfQlrYLTwoZIU9wsPCZEtP6BWGhAlhL3p2N6sTjRdduwbHsG9kq32sgBepc+xurLPW4T9URpYGJ3ym4+8zA05u44QjST8ZIoVtu3qE7fWmdn5LPdqvgcZz8Ww8BWJ8X3w0PhQ/wnCDGd+LvlHs8dRy6bLLDuKMaZ20tZrqisPJ5ONiCq8yKhYM5cCgKOu66Lsc0aYOtZdo5QCwezI4wm9J/v0X23mlZXOfBjj8Jzv3WrY5D+CsA9D7aMs2gGfjve8ArD6mePZSeCfEYt8CONWDw8FXTxrPqx/r9Vt4biXeANh8vV7/+/16ffMD1N8AuKD/A/8leAvFY9bLAAAAOGVYSWZNTQAqAAAACAABh2kABAAAAAEAAAAaAAAAAAACoAIABAAAAAEAAAIHoAMABAAAAAEAAACVAAAAAFyM4p8AACYpSURBVHgB7Z1trB1HecfXdvD1vQa/RMZxEmgglSIDlQr+lAoUUkBqarWVQJZqIZAQIFGlECUgQVJUVFG1DZEKbkARlQBFArWpZEHUVm6RaAsRqP1k8qGUiIq8lcSOY8W+DvaNk2B3f+PzP5kz3j27e3b33HPv+Y90zr7MzDMzv90zzzOvZ8Py8vLFzM4ETMAETMAETMAEBgQ2moQJmIAJmIAJmIAJxARsHMQ0fG4CJmACJmACJpBdYQazQeDCiy+WZmTj5s2lfvYwARMwARMwga4J2DjommhDeRgFKP/FHTuyhSsufxznX345O3/uXCbjwYZCQ8AObgImYAIm0JjABk9IbMyskwgoexkEx5/4v+zM+ZXs6NGjl8net29ftm1hMdtz3eszDIWV06eDMXFZQN8wARMwARMwgY4IXN5U7UiwxYwnsGPXruxnP/tZMAgeeuih7Omnn85OnDgRIj3yyCPZ3r17w/nu3buza665JrvpppsyDIUbbrghO3PmzHjh9jUBEzABEzCBFgTcc9ACXtOo6i1gmODIkSMZRsHDDz8cxLz1rW8NR4wAOfxxcRj89+/fny0sLYXhBoX10QRMwARMwAS6ImDjoCuSNeUcP348O3To0FDh33bbbSEmvQJ79uzJtm3bNpTEMMITjz467F2IjYTbb789u+76620gDGn5xARMwARMoCsCM20cTHMS3jTSig0DegrUC4BBoKEC8vHC2ZVsy9bF4dwC/E+fPJn96/e+N+xtID4GAgaFnQmYgAmYgAl0SaCVcYAi63P2vFrRUpxdFjyVRVpaGZD6tb0WpzvvvDP0GEixq+Uvf9JhuIBVC3Fe5I/fqaeOZZ//wl8N5dx9991ts+f4JmACJmACJjBCYCLjAGWlmfaxEhuR3MEF4/K49x440Gv3+blTy9n3//NHIa2bf+vt2dLO7eG8iy9YMfnw1ltvHSr0z33mrmzntVdfViaU/3cOHw69A/QqpOUW99RA+NK9914mq4u8W4YJmIAJmMB8Emi8Q6IUFEoMhcexL/fAAw9kfHCk24dDIbOMkHQ0AbDLdOhZYVUCqxFwDAUUGQb4Mb9AkxQ5ck3+5JDFZEbiI4eVDMglnJ0JmIAJmIAJdEWgsXFAwtqsRxPkusrMtOX0ZXCoHMhnuIIJiCxTZPIhcwRQ8EUOP61W4FgWlvj4HTx4MMhFPun0XZ6iPPueCZiACZjA+iMwkXGwXjD0OV8CRmmvAUMWVe6W97wn+/bf/0PGscopDL0H9E70XZ6q/NjfBEzABExgfRBYM8ZBH4qvz5Y2shkSYNdDeg2YhMgKhCpHORk2qFNewiAX+aRDen2WqSrv9jcBEzABE1gfBKa6QyJL+VBiGttXFzot4HHKkGGMJwb7Awh71TI+TTJUWsQjPTYQkhuXpsK0OWr4BRmkXZUeecaAODU4VoWXXIZ3KCfDDCttMuy4JmACJmACJpATmIpxQIuWiYtM+qOVy0Q6nK45j5U217Ej3L35jHzFQ8aHPvSh0GouWsqHEfLpT396JC3kIQMl+pef/3xQ1KGVHU34i9Ps6lzGCZscwSGdb0AeWM2gMipd5ieg7NnfYJyRgFw7EzABEzABE+iSwFSMA5beSUmi9GQIaFMglDZKTuv+4wJiCBCXeOphYIkjypQWM+exEqX1HU8AJC0m6/HnRtofgM2EWCa40tMKiDj/Veex4o+Nn6p4+GNs8KdMOK2GCBf+MgETMAETMIEWBKYy54B9AxgGQInzobXMhz8R0tACww1pq5pyoTCJizLHEU9yuMZwQPGjZDEC2K8AowFjQnFofTOOz/4CyMOwYPlfrJiRtVqOTZ4wYh588MFQNv54qcrBwc4ETMAETMAE+iAwFeOAjGvpHed0o6eKGSVfpvCIq78qJh7KlJn/TMajxcw+BXLqoaCXgTF/WtfasAkjBcMCpwl8RQaJZHV5LDN+lEZZ2eWfHuFA3lV2/rnRzgRMwARMwAS6IDCVYQVlVH9RrGuOUubxvfQcBZ8OAWjmv2bqo/TpQVD3OkMHRY70iDMtR89In/tBYHTgSIfdKu1MwARMwARMoC2BqRkHmidQlmENL5T5pz0NReHUisaPoYMyR4/DNJyUNUMZGCWaM1GUNn+2lO263If7S3kvQZlDruYqEKYOpzJZvm8CJmACJmACEOjdOKDVz/i+lDUtfM2wZzIdcwS0igDlWebodo8VX3xOHBTx7iuvDNFRlvfcc08Yyki764MSzkPR80C3PPnrw5E/5FMmTZ488dxzIU9F6e257vVFtzPul/1/BRM66ZWgvKQzrSGSwoz6pgmYgAmYwLoh0MmcAxRw0QdKKCy6vunK10RC5hCET4lCHEdXyp5VCTgUo4wN5jIw9q5hAyl+FLU+zDvQJkOSNS69Nn7IJ0+a58AqitSRR5Q8BgQfegL27t0bjrqX/seCZEgeZSadvsujdH00ARMwARNY3wQ6MQ5QTEUfKecUYZESY1gh7Q0gHoqePRKQj2NyYbwqAcVIjwFGCC1sDU9IcRIeRxwcf5s87s+iMB7K8h0ENPiiPJo8iRGjpZfIFwMmTWI88SdW9KBofgJHrrmPP+GIw4f4DNOo14BVGKRTxK9Bdh3UBEzABEzABAKB1sMKtHTLnPYukD8tYZxa+ig4xdcxHZdHqcpP8VCWkoUxgOHAcsXzuWziEx7FeUe+nJFlkDilJeWrvRaCZ/RFONKhZ6MrR08FvQcoe/ItLqzAkPFw3333lSZHeM1fwNhJh2mQ7yGFUnz2MAETMAETaEhgw/Ly8sUmcWi5ooxRcii7cU57DaAEWT2g8Ch8OXW548f9r/7Nl0O3P8rulltuCcHuv//+sOOh4mjYIN5QSX60qlGe9ByoZY2f4jAZUTskKg5l+pPPfW7Yai+Sq7CTHJGPUqfHQuXUEAvGAU49G0XyCRNzhz3lifm616CInO+ZgAmYgAlMQqCxcaBEGCenBT/OsRcB3fQ4lFu6vFAtaHZQZGIiLu45oBWPYzMjFH6cXlnrXoo4lhmE5F/EYRJk2tLGoIjDl8mWnEmP+r8HGQgMidCzwWZQMgCQzaRJLdVE6WM40DMCPxkGRUbOpPlyPBMwARMwAROICUxsHKBQ4z8WioXqXK1iXaPkdI/4OHWHq+Usf/zie3H4+JxwZS5OjzDpdRpP6ZWtDkjDT3qN0RP3omAkMDyCMaVVC+QBg4XlmZo/oSERegxiI2rSfDieCZiACZiACRQRmNg4KBKme7Te12o39zTyjnETD33ALR5qwVjQZk74xUMi9DQU/QcF4exMwARMwARMoAsCvRgHZRmbhuItS3vW7mMgMBeDvQ8YLmESJQaBDAHll+EDehUY6mBVBnMX1NuiMD6agAmYgAmYQJcEpmocdJnx9SILIwFlj+GkDZrisjH3gF4YhYv9fG4CJmACJmACfRCwcdAH1RYyMQLk3EMgEj6agAmYgAlMk0DrfQ6mmdl5SEu9CGt1zsY8PCOX0QRMwATWO4FOdkhc75CmXT4bBtMm7vRMwARMwARiAjYOYho+NwETMAETMAETyGwc+CUwARMwARMwARMYIWDjYASHL0zABEzABEzABGwc+B0wARMwAROYawIsJedj9woBGwevsPCZCZiACZjAHBJgMzo+dq8QsHHwCgufmYAJmIAJmIAJ5ARsHPg1MAETMAETMAETGCFg42AEhy9MwARMwARMwARsHPgdMAETMAETMAETGCFg42AEhy9MwARMwARMwARsHPgdMAETMAETMAETGCHQ6R8vxetE/f8AI5x9YQImYAImYAJrhkCnxsHijh3DgvvvhocofGICJmACJmACa4pAa+OA3gKMgu8cPpw99NBDofA33XRTtm/fvmzPnj1rCoYzawImYAImYAKzRAAduxo98RuWl5cvTgqCTO/YtSt74IEHsltvvXVEzH333Zft379/5J4vTMAETMAETGDWCBw/fjxkaRYbtAtLSyFv0+6NbzUhkR6D2DCgx8DOBEzABEzABEygGwJX796d8dm2bdtU//9hIuOAHgMyesdttw17DA4ePJjdc8893dCwFBMwARMwARMwgVUj0HjOgeYYMIxArwFOQwjqmlm10jhhEzABEzABEzCB1gQa9RzIMHji0Uezhx9+OCSOYfDeAwdaZ8QCTMAETMAETMAEZoNAo54DZkyunD6d3XDDDdlt+ZACjkmH054oMRvonAsTMAETMIEyAjQmJ3WrMTt/0rx2FS/lBYP43vmXXw5Jxfe40RerRsaBMnLmzBmvRAiPyV8mYAImYAIpAWbYL+Tz0iZ16Jh5cszhq3ILV1yRLeSrA1OH0dBHA72xcZBmzNcmYAImYAImAAFataxiY+j56NGjE0NhqLoPhTdxhnqMiCGl+XvjkikLw55C111/fee8bByMexr2MwETMAETaESAFu6hQ4dqKbwywax+O3VqOVvaub0syLq4fy4vI70G9957b/bII4+MLVO6l5ACs4XAgw8+mK3khlmXQww2DkTYRxMwARMwgU4IoLCefvrp7JprrplY3patixPHXSsRVUbm8NEzUMRLPQYYTKmDcdH9NNwk1612SEwTZCnjjTfeGG5reWMaxtcmYAImYALrlwBDC+yc28ZNe86BluGvxg6JVbyuvPLKgPK5554rRXr65MlOew1IyD0HpbjtYQImYAIm0JQAXdsoqzauy+7xNvmYRty6vJh4eOqpY5l6G+K89cHLxkFM2OcmYAImYAKtCfShrFpnaoYF1OHFXA4Mgzphuyhqo02QukjQMkzABEzABEzABGabQKueg3gzhjJrRmHK/Gcbj3NnAiZgAiZgAvNHoLOeAxkBMcL4HufxdRzO5yZgAiZgAiZgArNDoPFqBRQ8m1x85/DhsDYzLUq8VnPv3r3Bm3uc33///WGzBrZgdk9CSs7XJmACJmACq0FgNVcrVJX3yJEjGRsdTXslxUTDCkyMwMWGQFEBY3/O2TGLnZzsTMAETMAETMAEqgloH4NpL+9s3HOgotCD8MLZlezM+RXdGnvctrA41ZmWYzNjTxMwARMwARMYEJjlnoPVekgT9RyQWYYFdubDCzsb5Hxe9spugMRBTcAETMAETGDmCExsHFASlD09CFXzB+qEmTkyzpAJmIAJmIAJzCmB1qsVqgwDuNYJM6f8XWwTMAETMAETmDkCrY2DmSuRM2QCJmACJmACJtCKgI2DVvgc2QRMwARMwATWHwEbB+vvmbpEJmACJmACJtCKgI2DVvgc2QRMwARMwATWHwEbB+vvmbpEJmACJmACJtCKQKuljK1SdmQTMAETMAETmAECbNJnN0rAxsEoD1+ZgAmYgAnMGYGlndvnrMTVxfWwQjUjhzABEzABEzCBuSJg42CuHrcLawImYAImYALVBGwcVDNyCBMwARMwAROYKwI2DubqcbuwJmACJmACJlBNwMZBNSOHMAETMAETMIG5ImDjYK4etwtrAiZgAiZgAtUEbBxUM3IIEzABEzABE5grAjYO5upxu7AmYAImYAImUE3AxkE1I4cwARMwARMwgbkiYONgrh63C2sCJmACJmAC1QRsHFQzcggTMAETMAETmCsCNg7m6nG7sCZgAiZgAiZQTcDGQTUjhzABEzABEzCBuSJg42CuHrcLawImYAImYALVBGwcVDNyCBMwARMwAROYKwI2DubqcbuwJmACJmACJlBNwMZBNSOHMAETMAETMIG5ImDjYK4etwtrAiZgAiZgAtUEbBxUM3IIEzABEzABE5grAlc0Le2FF1/MXji70jSaw5uACZiACZiACXRMYMvWxWzj5s0dS82yxsYBhsGZ8zYOOn8SFmgCJmACJmACExBY6sE42HTXXXf9WZO8bNq0Mdu6uJhtupBl27dv89Ec/B74d+B6wPWA64FVqgfoOdiwaVMTNV4r7Ibl5eWLtUI6kAmYgAmYgAmYwFwQ8ITEuXjMLqQJmIAJmIAJ1Cdg46A+K4c0ARMwARMwgbkgYONgLh6zC2kCJmACJmAC9QnYOKjPyiFNwARMwARMYC4I2DiYi8fsQpqACZiACZhAfQI2DuqzckgTMAETMAETmAsCNg7m4jG7kCZgAiZgAiZQn4CNg/qsHNIETMAETMAE5oKAjYO5eMwupAmYgAmYgAnUJ2DjoD4rhzQBEzABEzCBuSBg42AuHrMLaQImYAImYAL1Cdg4qM/KIU3ABEzABExgLgjYOJiLx+xCmoAJmIAJmEB9AlfUD+qQJmACJmACJmACbQlcePHFsSI2bt481n8anjYOpkHZaZiACZiACcw9ARkFKP+FpaVSHufPncvisKUBe/SwcdAjXIs2ARMwARMwAQig7Bd37AgwVn74k+zJb/17duHEj0fgbNz9tmzpbVdnW9/ypmzxHW+5FPb06Ww1ehI2LC8vXxzJnS9MwARMwARMwAQ6IYBRoJ6Ck397OPvld49kL/3PT7OXfn6iVP6rfn139qo3vym76pOfCkYCPQnTdjYOpk3c6ZmACZiACcwFAfUWnHrqWLb8ic9m5/7pB43KLSPh6m99pVG8LgLbOOiComWYgAmYgAmYQAGBC0cfy37x0Y+O7SkoiDZyCyPhdV/7WrZx3xtH7vd5YeOgT7qWbQImYAImMLcEnv/mkezExz/TSfkxEHb927ezpZ3bO5FXJcT7HFQRsr8JmIAJmIAJNCRAj8GpL/11w1jlwZmjwNCEVjGUh+zGx8ZBNxwtxQQ6J3Du1HJ27AMfD59pVQidF8ICTWBOCdQdStj9lS9kb7v4RLb0+++sJMWchWfv/GZYBtl3ndB4KaMmWMSzLseVaOcdn8p2fexAtrJKyzHG5c1+JjDrBJjVjHvh7Eq2NAMbo8w6L+fPBGaBAMMJ41YjtMnj+e//Xbbyw3eFVQx96tWJew7O/fhYmHlZBqDsfhsojru2CIzb5KPvkpD2aqbfd/ks3wRMYHYJdDmckJYS3frMF7sbrkjl67pxz4Ei6kiXCD0DZY71mXz63MQhVgLTXA9KumXpKU9l/imvScMjp04ak8qvI1tlidOgS5wxN9wLb7yydBJNHEdyJjlKDnHJM0uHfvXPPwqbiZTN8FWcJmVEftN4TcOTRpGTHPya5FnxmsQpSj+915fcNB1fm8BaItBnr4E40KPIRkpldZvCtTm2Ng7oQVClUzQGkhoFCqNNIYjLvThcnTAUmsqJ+CgCOWZy6r7u6Si5XA93qqo53KG4yjdpogBx8exR0i7zC4GTL+W1bhkIT1fSqUHaSl9yEvGBRRx+y9bFEdZF4eP8Ex5WesZpeK6L8sTEmWODNb0YkAvR0BLhcWm+qtIJkaIvnonixPy2PPZcdjJaOvTml34+MqyV5reKCUmKL8+86LlH2RruhAazOHwdlrGc+Jy4OJWzjqyicopXLJtzvd+c6x3n+eg6nERfabni328UzKcmMFcE+M09k+vEvh29B2d/8tNsV76LIr/TPn5/rY2DGEJVBqmAzv7D9zIMitd+4F3ZqbxF+fyfHw5bSMY7QTHhgm0l2fgB6+jZwTaThMFSQg5pUVESnzEYuYWb35+95k8PjChs/C5Pe2WY9qt/Z3/lvAjyhEM2lqG6jdjF6ld5/Nd8cH/wj+diyG/rH76n9OFRPrqINLasOBdK4qThSZQywzO1IinzyTyv2pGLsMinvEV5osKnbEXhVT5kxI40VvIegrQMlOfVH7l9uBVoHIfnRqs+TUfPNw5bdk66KLqid4Ay4jBKcChpvZtBYRYwh8mm33v7Ze8N8YmjdHgv9azKuOvdLCpjGXvSKXOUhzkHvIN61/UceS6wUPl0zrHo2Zcx5nfJ88D/wm9cO4xLfpUGvKmIFFYclBd6EMcZkWXl830TWA8E+M1leV2RboncV9nQo326TowDKk9cVcVABUcFxIxLVbLDuQl5pYRDFhUg91FUWiPKGk8spdfkxkGopPIKXq1D7SJFZfXLrx8K8Ys2jFDapKM0OGc/6yqn8Mq3wlOWeNer2GggPydy/1f/+Pbsqi9+RFGGx2c++fWQX25opqriLH33ndlV3/hiqPSHFX60mUYcnjLzeeN//OOI8YQy4b74kI7kp3nCMNAOXnH4uHyxgUCeeA5PDsoQxyENnt/CzVkwungvUCpS5mk6IXwe57Hf/oOg0ON0yHPqlDaGkt4B8SAseSY/KPud11498l5ivPGMyJ/yLCYw3zIwQOM0SWc5N+AkF2VIHL1r8aRb4qGo0zJyX+mIvZ4rfuMc8ZDHUS5+LvGEXxkJz3z4kyP5JR7xxzFG5jODBDjH8dvY9bG8typ/3jzDIrlxXqqe3UC8DyawbgnEv9M+C9m3EdKJcUCrqszFXe5xGABSyVKx4hiX3pgrERka3EOZx61PwuAfKila23kFT+uQVjCKByUkg4JlJK/7r38ZtqiQJ4eij9PmTy6Iq4pV4eJjUAh5ejgMD/0pBsoGA4YPCkqKgnBSRCgRWvbEkQHFeLwUdywvroBpoYWKP6+YKffjUZk1zwN5GBnxiyLjKZRzsHEGShKnngfCx8opdMXnzwTeGDJ6DioDClV/BkIeYYUslYHNOZQG78PJd78v+K0kPRpSmmk6yOKZkU5ZCz4UIPoKvRX5M0HWr331E0MfPRPSWhpsOxremzwNGW+8NygyvU8ypFCOMsoQCCPSQQGSzmvv/mB41/BTOnGekcd9wvM+bP/yXwy5xOyJP+59w1/ukqH1/mzXQBb8lV/S1rsgoylOn943PUsx5l3lWaY9TaSn36V6XQhHesEQ/KMvl5aLZzdOrsriowmYwNog0No4QAHFiikt9s5vfyNULmlFGCtR4qDkqNzolpGjS1MVH/cwHnBhaGJQWQflmVdeVGA4rtVDQLiilgzdwbEykcIOAiq+6HZFyUtBYpjQ4gzKY5DfNC9U7vR6qDKWwiEpOCBPBhYKljR+kSvqWOkQVhapmCgdlDkt/8U8briXMyQ90kWhIVNhyYMUxki5865k9baQP+Y0MK5NWnRfYQQgU0YRCod/FcPBEyNQaRCPey/9/FIcxsV4rignyoDSRMniKHcYP8/DEId06I7PBsM0IVDyxbtEvKDIcuMHwwun9Mkzikq88KOsDE/JoCQM4WkRI4/34fHcYOI5Zv/9VLaQ5yfwyc+l6OEc2AzyHLMhz8yriB3vby32caSCc3o4ZLCRZ/LLNb89HFz1bnHOe0McDBOe0/DdysvE+wYbDB7eg9RhBL8h/83K6R1BhoxNjKdggA5+c7wTsVziK5+S46MJmMDaIjDxUsa4mFTCRZ84THxOxUWLBBcq6EElE4fhHMUuf444KiuNtfDXlnIyPvCnUsZhJASDQ4EGR+IRTrIT78pL4io9KslxwxJlflJsKBgcSoQPjspWPRW06NXy4x7uybwFR2VNHkgffyln5Ut8qdCD8ojCIkM8OccFWXm6yEImeZGsmPOl0Jd/x5yJpzh6VsQYGiz581G+SYdznJQ8z62p45nI6RxDQA7jCSNW757CkFflXc+KfMofgwLHOxWzUZ7TchJP7CkH7HEqL+cpe+6Nczx38o9sPRPyrHdEccmfGGNo6X3iqHN6ZWAQG06Kz1EM9NsgHeRi/MATuSo7R51jJOPK5AZPf5mACXRGQL/VzgQmglr3HFBZMEmvzMUVmsLElTb3VOHJX0cqptRPlbzCxMc0bOyXnlPhqdWY+k3jWgwef9+HC5NTJavWOhzVo0DrOrTicqXBC4KC0vg6lfp5JOY9AfQaEJZxZo3JEz4d4lAGiBt6ZfKegrg3SHlROI7kh3R/mZ8TduPmV4Yi8JOCJwzX8JahQMtW/rFMnRelJz+OvBcou2WUZt7Sh5F6J/CXQkYJ4kLauXKtkqvykDcNVYlDWZ4lk3Dw4x2kFQ9v8kYPkIw6DAwMB4w/hQ0ZrPhSGhXBRrx5Px5/3+h/xSuA3j1dlx0pC6xxenbj5EpOk7Ipjo8msNYJSP+kRntVuahvnsoDNf2dU1/16VobB2ROrRKUQJdOsCVTlbyu02NqTDSFncpbzWteMD5qhVI2lApd/7RmqaRDF3j2g6Cg48l0IWzeqqPrPii8/OWDxSWl8IMQl27geMgFo0vzAVCq4QWPFFsRi3hIhW1+4x4bdcUTJiiY3Dio41CqdS1i0iMdFDfKSz8WrnGUcRJXN31k6zmp7EqPLv2Nuy+txBF78gpb8qVhjfQdV/w+jzIUu05Dz241ytR1WSzPBCYhgA5UvVQ3PvUCnyaOekS6oUm8JmE7MQ5kFKTKuUlG6oRVOmVh00qJinuWHQ+4bHw2KNQ885SJcnOkRYaBcFXeMj136kDGkANOE+aYTBfk5YYEYXEoodDlm4+d42hlM+bMR70NyGdJKC8oFTw9FPQ8sLoEw49hDOYPpI48Mf78ixt/N8SVEqRc9FrQo0QYlUUt83HKsc47JBYakgnzC/L8nc/TxQAifU04TPNc95o04vctNaZiOSofcXBcM8yzM5/HEJ7DgD1GHT05GC91J13G6TQ5p0ePeRRxGZS3+JnUlalnh1zmOxQ5cSjy8z0TmBcC1Lev+tKluqivMqPbmvZANs1LJ8ZBXCnE52RGFWbTjJWFR1k9H5YeXm5pkTZjoM8PItMC7Dr9snw1vY8SRpkydwBFQt5VaVOGMDSQCNX4LmGJs5CzwF2VfSp7LFfsyJNTWHXxMsEOxwtFK3s48S83HpAXhilypaoJlyiVLQNhUgyDy5EDS9t4UeNWOhatJsghO3Xqoo7vq/wwoIcoVWppWMrHrHy65MIqgnxSIoaPrGnSl8xQlq2LIZ8YQBqGYFgJhxGEPOWL8ioPagXgF5b0DYYOJFvlI75Yl7HHqGP4gTxUTbqMy9vknPJjHMXDHHFeQz6jCYxNZBMWuZIXx4UXk1j5fY57dnEcn5vAeiTAbwwjuqhBVVRedAH1DI2GukN+aU9lkdy291pPSKQiBUbZp20G4/iqiOOJa1TIpI3TUd3KChfLmIVzFCAPlxeBrnwqVuWdI2PmT+5796UligMFRtmZn0ArnjBSXnF54p4SFCfhmUOgsKEVm0eggsdJkXJOXPKD4sSRXshLzrdsfgDLRlF0GGG04vXBACFNPjLOUBiaDIdhQhlVZtLjHHmUW3MGuD/OkS/SD8sL8zRJn7SVfipfPyiVR/4oNNKUgUQ+5UIrIFe2+MV5VlyWFNJzIj/KLPZh1UN+Tdn54CcXs9e9tsdgnOQGCM8yGEGDZ69nQJ7JG8sOYV3HERe5DEFhdCBX5SK+njNyWb5a99nVSdthTGAtEuC3Tq8pv5cqRxgaZNf+8cGRBta4eMShrgu/90Fv5bjwk/q17jlAEauyLcoEBVcrssi/yT0qKsBT+WuyHRWzWq1sW0kljpKjW7mrdJvksW7Y0K08WAKJEpfiotdDFuTOOy4ZXlLqods+r5xZcpeGJ13uBT65EjibX1ORE4dWL0Yc7tn8nPvhxc2HDggPV+JyX4YVyuvkTy7tmkc8wvOcg1LL4+Gk4FD2/5tzj40T/DEaNPmRMqCEfzVYSoeCwrpWvo4NFD3phP9iQEBNxzuQpk1UyoRy13uDgpNBETNP3xt6ZeCCIy7vF0MXcZ55TpKF5c8wDGWU0QBLJiOWlZF3uI8fN8qa3xxpk2fyqHeFcvKscHp24aLGF3KZ78LkVj78/nh2MYdJnl2NpB3EBNYcgbiuG5d5Nch23Pybw57LceH5jfE7VP00Lmxbv9bGAYXjU+bO5hU0M8nTwtBCpYKcxCFL6+Sp7KgEY9d2vDmWpfO4y1732hxRQFk+aS3LPhuUMspEjheAMqDYKCsKCsdLofkFcXj8VGZa/AxJaLJhMN5yRqwqkNO8AsnlPmlpv4aYJ2GZXKfJis/mCl/r/Xl++JOX4vfglcmPsnSr8kVagY0yO+YoJVic9iXjiDKxnh8ulJdz7UwZMxRz5S9OVvfKWIbJh7nswD5/XuPCkw4bRsXPNU6r7XmQm/ce8K5gzFDGuJzDZ5+HqevgFgyZPA67cCKX3138TqnS2sh7bWcCc06A36Hqgbg+LcKCvxqERf7xPRoqfTUs4nQ437C8vHwxvVnnmoqQsdoqxwY3sRJiVjwuvR/LUZg6SoKwYfx2IGDcRC/JHZd2nI/4fFxcsSiSO85P8tktUd35tOjG/Ysh8ujWVXhkjCtzGl4t//iZKB8cY55xWJWDMJSTFjKtb4wmFJEmMOIvx3PhxUchpRMvkceQh5zSQi4/rDJHPMLQfY2SomWOoZi+i0zWxB/DQYZTLDMt5zjmxKPlzPwQ5Io93IueudIpY19VRsXnqPeu6Lcgv7I8lKVf9OwJC8MyWXGemsiN4/ncBOaRgBojbco+NL4bGPVt0iPuxMaBEqbSxFGhc150VFgdFU7XRcc6YYriVd1rI3dc3En9qvI7S/5xGVFMjDHTna8dF9O8okyPveEdhcZBGrbuNYoJ5crcC1qvtGSxpPXexXIUpsg4iMsSx2ly3lRG0/DkpSpOlX+f5ZHsLvMgmT6awHohwO+DOTlVPQhl5Z2kt69MVpP7rYcV4laeztNjmiH5p/fj6zph4vB1z9vIHRd3Ur+6+Z6FcJQR5UzLU8sow5yGQW9Qmkf16DTZNyCVUXXN8kBWAeDiZ0A+iyZeSl4cVveaHpvKaBqe/FTFqfJvUqZJZU0ar0neHNYE1ioBfh8Mq9LTqH8RHjcUr3LSW8AwgoYndH9ax9bGwbQy6nRmgwCGQTAQcoWsWfHqHUhzyFg3L7gmHab+ba6Z6MjkU3oPZATE8jTOzsQ59SzE/j43ARMwgWkRwEBgaPDS3icfDEOqTBYumstGvcok4tUyCsSk9bCCBPk4fwQwEljKh3IuesmZD8CSnq7XvpOu5h1ot8iUvn5gWOxu2aZ0fG0CJjAtAqExlTeqUsdwQ5mbhTrLxkHZ0/H9WgTiF5wZ7TgUt1zfL3maPj0butd32iqjjyZgAiYwCQEMh9QVTRhOw0zj2sbBNCiv4zTil1svddG9vhCkaaXXfaVruSZgAiawngnYOFjPT9dlMwETMAETMIEJCLTePnmCNB3FBEzABEzABExghgn8P08G6bMy3A84AAAAAElFTkSuQmCC;" vertex="1" parent="1">
                    <mxGeometry x="20" y="320" width="278.66" height="80" as="geometry"/>
                </mxCell>
                <mxCell id="21" value="" style="shape=image;verticalLabelPosition=bottom;labelBackgroundColor=default;verticalAlign=top;aspect=fixed;imageAspect=0;image=data:image/png,iVBORw0KGgoAAAANSUhEUgAAAXgAAAA0CAYAAACAcCMFAAAAAXNSR0IArs4c6QAAAERlWElmTU0AKgAAAAgAAYdpAAQAAAABAAAAGgAAAAAAA6ABAAMAAAABAAEAAKACAAQAAAABAAABeKADAAQAAAABAAAANAAAAAB6s1ZHAAASk0lEQVR4Ae1dCXCV1RU+CQSyQDYChCUhYSdsCUvZDJtQFqFCAQUVkCIOTK1FKQ6dWqUq4FhHUdsOTF1QFtnKLosCgghhixAigQQICQlbEiAbhOw933n8j5fHe5CXoCHJOTNJ3v+/+9/lg/nuuefe/ztOBQV5xaSmCCgCioAiUOUQcK5yI9IBKQKKgCKgCAgCSvD6H0ERUAQUgSqKgBJ8Ff2H1WEpAoqAIqAEr/8HFAFFQBGoogjUfBTGVVRURFnZ2ZSVmUU5OTlUo0YNcnd3J08vT3J3cytVFwsvXabcb78j11G/I2dv71I9o4UUAUVAEajKCDjkwV+5coXmzPkrffLJv2xism/fPpo0aTJFRkba/N7WzcLCQjp/PoFOREXT2bPnKCkpmRITL1BsbBxFHT9BKSmpth4z3yu6do0KYmOpIOE85fz3SypKT6f848eJivVwkBkk/aAIKALVEoF7PPjExESaN28+xcWdoYKCAubJYqpZsyY5OTnRK6/MpMDAQKpfvz7l5eUJ0UdG/kSLFv2HPD092fu+TVeuXKXc3NxSgQlyP3YsijIzM6V8rVq1xHvHBeqHN3/q1Gmpr2nTJtIH64oLTsdS1pw3iVycqJAnivSxz5BzfT/y3bKeuDLr4nqtCCgCikC1QeAegvf29qHRo0fT9evX6ZtvtlI2h04GDx5Evr6+1LZtG6pbt678wOs+d+4cZWVl0ebNW6h58+ASoGFiuHjxohB0Ts4tatYsiNq1a0sgcVghh2XgqRvkjnutWrUiV1dXKZOWlkbx8fGESeDixUvcZh3ythF6qdWnN9X9YD5lzpxNLr17kFMdd6o7/y0ldwCqpggoAtUagXsI3ovj3sOGDRVQoqKixCMfMeIJCg4OpuTkZFqx4msm60Dq378/Xb2aQrdu3aLDh49Qfn4+NW7c2Azm5cuX2cP/N5e5Sv7+DWn16jU0ffp06sOEjNVAzq0cSk1NM5fHh6SkJCH0gIAAmVASEhLkGp58Cpe1RfB4rjAhkWo91pvcp0ymm0u+pGKelNQUAUVAEajuCDgUg7cEq3v3btSrV09q2LAhzZ37BsfeJ1p+Tac5dBIREUHTpk2ll176o3j9O3fuModvMDHk5ZUM5cCbd3Z2pgYNGtA1jq3De4dhNZB+44b8LdHInQu3Mb8nz/lvU802rclrHv/llYCaIqAIKALVHYF7PPjSAgIidnZ2kuI49YJrS8vIyBCCXrjwY6pd2xSWadKkiZmk4fEXFJgI3PK55s2bC7ljLwCnawxDfN+uWbatcXe7MOkXioAiUL0QKDPBI8zi6uomMfSDBw9RmzZtSiAXENCUvLy8qFu3rhx7b0c32AOvz5uf2LCFmSYIZ7OXbjx8+/ZtiftjArA04znLe/pZEVAEFAFFwD4CJd1u++Xu+QaEGxYWKpuiCxd+RLt27SpRBqQ+ceJzFBMTQ199tZRwhLKwsMh8EsbNzZVcXFxKPIMLhHwwMVibp2dd61t6rQgoAoqAInAfBJwqSk0yjz30UzGnOBxz/T7dM30Fb79V61bUpHGjB5bVAoqAIqAIKAImBMrswZcXwFrsvQcHB5mPTdqrD6GgBg3qU30/P3tF9L4ioAgoAoqADQQqjODRF7wc1bp1Szn+CCK3NnjujRr587HMZjwR3BvOsS6v14qAIqAIKAJ3EaiwEI3RBRyBvM1vvqamplJa6jV5cQrxfW9vL/LjN2b96vma3241ntG/ioAioAgoAg9GwCbB4/w5Xi6yPKb44Kq0hCKgCCgCisAviQAOpuBtf1sRD1vt2jwmefnyFZEJgB6MmiKgCCgCisCjgUCdOnUoJCSEw9ulO1Vok+AzMjKpZcsWhMrUFAFFQBFQBCoeAYSzIQFjEnMsB8EXFxeRG+uwQ1istEuBih++9kARUAQUgaqLAELnNWu6mNUASjNSu6donJycqzy5Y58Bb9iW19JZgz6Tk5U8DMObvBBog0GpEz9qioAioAjgVKGjDrddgreGE/LBBw5EiEY8vgM5Hjp0mG7evGVdtFJcY7kTFXWC37Q95dCMiMFBCO3kyZMis4B6IJ188WLyQxk3JJYhv4x6oaYJpU7o8qspAoqAIuAoAqUmeKTQ+/nnk3TmzFlpY/fu70Xvvazn00FgFWmYoC5dukRNmjR2eFbE27cnT8bIKSPMqO3bh/CeRcuHOhzU26hRI/HmobyppggoAoqAowjY3GS1VQmO5kDL/ciRI0KI+/b9SDNnvkxr1/6PIDYWGBhAEyaMF014ZIR66qlxksDjhx/2iY58//79aOvW7aIfj02CZ5+dYNaPR9ambdu2s9daROnpGTR8+DDq2bOHTCCffvoZ30tnEm1PU6ZMEd35devWSRexgmjNEgZdunSR5CQ4Pz+FNeGDgoJYx/4KffHFl5K4pH//vlzn8BJEDoJHMhND9wblV6xYKW127tyJxo9/WsIuH364kMfRUrTqQ0ND6YknhtP27dtFDvnYseM0efJESTPo4eFBvXv34lVBFK1Zs1bIf+zYMRTWJYw2bdwsY7hw4YK8uYv7LVq0oBMnomnlylWyGurR4zeCmSX2Pj4+hJANZJTxUpiaIqAIKAKOIFBqDx6VImuTi0stWrZsGRP0M5JDFaT63nvvUnj4Y7Rr927KuZ1jt32ENkaOHEGzZ88yk7tRGB79Cy9MpVmzXqHo6J8JJ3nc3NxpxowZtGDBfCFG6MvDIB0MYka7fixhgHDJnDmvycRghI0ggPbkkyPpzTf/zkc+E3jlccZoSv5CrTIvL1/OlOIGViTdu3eld955S0Ive/bslXIg1169etFrr82WHWxkmRo6dChhwnrrrbk8wbSWcviVlZVN69dvpBdfnCYa+MuXf00pnBQFhvG9/vrfaMiQ3/JKKEYmKn9/f673L1JPfPx5WSFJ4Tu/IMMMYr/ECcXVFAFFQBFwFAGHCB4na3B80sfHlL4PhA399tq1a4tHWlxUTNlZN+32oWHDBqwW2cDm95AXRhgIKwX8IM0fFCejo0/Qli1bRZQMMWkY0v6FhnaWdhHGQHgERzpRB1YHyclJshLAymDHju/k3tmz5+TZkr8QJjJJJOBNWtSDMfbp00fSCaIs+oJVAsaITFOo054hIxXOpyJvLbJbYSWRwNmmYFDXRNgFJ5MKCvJlEoGefkTEQV4R7BCPH0egrA3PYGWjpggoAoqAowiUOkRjVIzkHe7ubkJW2NU1si4VMbnDS61Rw1m8fOMt2Nzcu4k64O3bM8sdYuY0JrxiJvZvhMz79QsnJPc2CBCeLU75wPCc8SzIEIajRJgs+vXrJ9d4HsRtaegL3gpDVilMJLjOzzdtZiIs4uJi6ite9sImJ8pi5eDh4W5ZTYnPmARQHjigL6jHyEF7d+xOQuYog/EhFSI08412LCtEGYSRkORcTRFQBBQBRxFwyIO3rByEBU8V4RF4rocOHRTvFCGFdu3acoz6tMTBo6KiLR9z6DPi5EYeVmR4AuGVxrBxip/IyEgm7TzJHWt93NDV1Y3J2sN8vBFEi/IJvErYseNb6tix452mimV/IDY2VpKMg4wxyYGQEbfHX8OCg4NkssGexNGjR+W0TRtOI2jPECKCR19YWCAxfetyyIqFyatevXrWX+m1IqAIKAIPRKDGG2/8fa51qZSUVIn9IjxhbfBy4c1C4dHX10dIF5uNIKq+ffuKpxzYLIAuXEjiDctLErpBjlV//0ZSFsQLD9zSQHDwuhFugYE08bkV51ZF7BznwhHyQHgHYRjT9/7SFgi8bt06kqQbqwZMAk2bNpVkJImJFzikcko2dlu0aG6Ot6MNTFAIMWGFgVSCiIdj3GgvNLSTbNzCAz9+PErqAsH36NGDgjjsUru2Kx8PvSl7BegTriGO5uvry98HU2zsaQkRjRkzWsgZbYCksW+AFQ9WORgf2oyLi5Pk4yEhbSXZCcohdIPJE5MNwjmI81tjhjGoKQKKQPVC4MaNdAkXwzktjdkUG8NxSJAkSKsqm7yglJVJgQGBNoeZlnaNPvroY3r77X/Y/P6XvpmSYtqgxQSppggoAtUbATiv8fHnxZlGjozSmP2geGmeruRlEP4xjkk+ikNRYn8U/1W0T4pA5UGgzDH4yjPE+/fU2Ji1VcrPr16Fee+2+qP3FAFFQBFwBIFqT/COgKVlFQFFQBGoTAjYJXgnPnFY2lMrlWnA2ldFQBFQBCojAmXhY5sxeJyOgQgXzn2rKQKKgCKgCFQ8Aggne3rWodJusKLHNk/RVPxQtAeKgCKgCCgC5UXAboimvBXr84qAIqAIKAIVi4ASfMXir60rAoqAIvCLIWCT4CERgDc1YdAih0qimm0EIG5m6O4gKUpZNkKMmvGGrmq/G2joX0VAESgvAjYJHhrumzaZNMxXrVrFiocR5W2nzM+XhzDL3KgDD0IwzBBBW7duvcgAO/B4iaLR0dG0c+fOEvf0QhFQBBSBsiJg8xQNKoNmysqVq1myoDFrzISLR7969Rr2MG/SgAEDWUelASf6OEzDhg2VvKY7duygcePGiTgWBLJg0HWBDG/v3r1ZfjdRkml07dqVNdPXiwAY7nfv3o1+/HE/a9sEihzv4sWLafTo0ZKqDlrs0GwZMKC/1IdfEA07cOAAt5nOfcoW/Rskz1i1ajW3lSIaLoMHD2aNlzMihJaWlsa6MmEiKgZtF+ixQ+MG2jK7du0WtUck94DcsKVBxXHnzl2Sjq9jx/Y0cOBA2rhxk+jfQMOmVauW3OcgTmKyVUTIgIPhfYPwIQEMKYQhQ4aIjv769RtECwcrI4w7KKgZffbZ5yKLjEQi4eHhls3rZ0VAEVAEyo2ATQ8etSJTE0Sxhg0bLsQETZauXbvQmDFjmExXseBYLVGRBNmBzCDfu3z5CibE8+ZOIRkHlBnhhSPVHwgQpAqNl6effooJc6NI8UKNEgk+YJAFBglCjRFyv+Hhj5nrw4fc3DzJpYqJYsSIEUyw20Sad9CgxzlhyAvSFvoApcf4+HPSzrJlK5jAPThLVE+CMBpCUEuXLpPvoNOOz9aGcujvtGlTaf/+CFF7hEImtNkHDRokx0iLigplskAGqpCQECF6CJQhWQi05SdNeo6zRK2QrFJ79uyRxCEhIe1YpCxaxj1q1JP0/JTnOUvWUbm27oNeKwKKgCJQHgTsevBhYWHivSJ5BpQNIYELz9z04ySeLJQhkQBj//4DnHVpniTWsEwth5RzUEf86adjkv8UKe2Qzg5p76CkCDEzELGlXIARkoFapZeXp6g+Wg8QypI+Pt4y8eBZePobNmzkiSNVsh/53pHX7dChg6wAoLwGpUsk34B6Y3JyMnvwceJBI36OicjScC8zM0OUK+HZI9NTUtIFKYLUel5e3tIvTBRQeYTmu6H2iJg89OORHKRePT8RbYMapkk9sqHou+fnx/OElsGZsZaLZjzyu6ZnpFt2QT8rAoqAIlBuBOwSPLIYBbE0LmLxY8eOZYLypxGcbq8D50ZFeARyu1Cc3Lx5C3Xq1FFCHAjrWJI1egcyX7RoMdcVLKQHAS3I+EICFy9SgUBBkJDURVgEZA1D/dZ1yRf8ywgBma6L2XOOZy/5BqcCnM0rj7VUyAQLq1HDNDysRPCME7+dC0ObjRs3ktR6kDk22jR9yy8HcEH0KTMzSzZQkTIPHjosLu4ste/QXiYzSByjn0bSE3wPosfz2dlZImuMHLOYYIw+ow+8oJFVCBKEzJgxnebPX0D5rA2vpggoAorAw0TALsGjEcTH4WmuWbOGXn75T+J9r161RuLlU6f+QTz727dzCTFveLMIv+AZeN+GIZEGCK1165aiYzxy5Egm/EUSYwfJw+NHrleEeRCeQejHUYNHjwni88+/kLARvOX7GRQkEVP/4IMPuZgTPf74QA4H9TU/AoJG6AZhqsOHD0tGJUxie/fuZX3445wAZBu1bduG7/tR586dacmSJTRq1GiZDKChj8lgw4ZN0qdu3brxm2f3yv1iH+D77/dweGip6NKbG9cPioAioAg8JATK/CYrQinYtESy6gkTxkuKPOs+oQyI/9VXZ9H77/9TPGfrMpXpesGCd2nmzD9LeKoy9Vv7qggoAtUTgft68PeDBLHmvXt/kPCMdb5T4zmEOFauXEnjx48vM7kj6YVxDBH1wht+kIdutO/I35iYGPMRR4RTsLpACMXSfo3MSpgQceII+MKQLQqJzhEKUlMEFAFFwBEEyuzBO9JIecrihA1i7IYFBgZwSKe5cfnQ/kZEHDSTKuLoODGExN2/tmEfApuuIHqYh4e7hIGwJ6CmCCgCioAjCDzyBO/IYLSsIqAIKAKKwF0E7J6Dv1tEPykCioAioAhURgT+D4MQnEKm8GazAAAAAElFTkSuQmCC;" vertex="1" parent="1">
                    <mxGeometry x="20" y="420" width="376" height="52" as="geometry"/>
                </mxCell>
                <mxCell id="22" value="" style="shape=image;verticalLabelPosition=bottom;labelBackgroundColor=default;verticalAlign=top;aspect=fixed;imageAspect=0;image=data:image/png,iVBORw0KGgoAAAANSUhEUgAAAaEAAAC+CAYAAACcX7A4AAAEDmlDQ1BrQ0dDb2xvclNwYWNlR2VuZXJpY1JHQgAAOI2NVV1oHFUUPpu5syskzoPUpqaSDv41lLRsUtGE2uj+ZbNt3CyTbLRBkMns3Z1pJjPj/KRpKT4UQRDBqOCT4P9bwSchaqvtiy2itFCiBIMo+ND6R6HSFwnruTOzu5O4a73L3PnmnO9+595z7t4LkLgsW5beJQIsGq4t5dPis8fmxMQ6dMF90A190C0rjpUqlSYBG+PCv9rt7yDG3tf2t/f/Z+uuUEcBiN2F2Kw4yiLiZQD+FcWyXYAEQfvICddi+AnEO2ycIOISw7UAVxieD/Cyz5mRMohfRSwoqoz+xNuIB+cj9loEB3Pw2448NaitKSLLRck2q5pOI9O9g/t/tkXda8Tbg0+PszB9FN8DuPaXKnKW4YcQn1Xk3HSIry5ps8UQ/2W5aQnxIwBdu7yFcgrxPsRjVXu8HOh0qao30cArp9SZZxDfg3h1wTzKxu5E/LUxX5wKdX5SnAzmDx4A4OIqLbB69yMesE1pKojLjVdoNsfyiPi45hZmAn3uLWdpOtfQOaVmikEs7ovj8hFWpz7EV6mel0L9Xy23FMYlPYZenAx0yDB1/PX6dledmQjikjkXCxqMJS9WtfFCyH9XtSekEF+2dH+P4tzITduTygGfv58a5VCTH5PtXD7EFZiNyUDBhHnsFTBgE0SQIA9pfFtgo6cKGuhooeilaKH41eDs38Ip+f4At1Rq/sjr6NEwQqb/I/DQqsLvaFUjvAx+eWirddAJZnAj1DFJL0mSg/gcIpPkMBkhoyCSJ8lTZIxk0TpKDjXHliJzZPO50dR5ASNSnzeLvIvod0HG/mdkmOC0z8VKnzcQ2M/Yz2vKldduXjp9bleLu0ZWn7vWc+l0JGcaai10yNrUnXLP/8Jf59ewX+c3Wgz+B34Df+vbVrc16zTMVgp9um9bxEfzPU5kPqUtVWxhs6OiWTVW+gIfywB9uXi7CGcGW/zk98k/kmvJ95IfJn/j3uQ+4c5zn3Kfcd+AyF3gLnJfcl9xH3OfR2rUee80a+6vo7EK5mmXUdyfQlrYLTwoZIU9wsPCZEtP6BWGhAlhL3p2N6sTjRdduwbHsG9kq32sgBepc+xurLPW4T9URpYGJ3ym4+8zA05u44QjST8ZIoVtu3qE7fWmdn5LPdqvgcZz8Ww8BWJ8X3w0PhQ/wnCDGd+LvlHs8dRy6bLLDuKMaZ20tZrqisPJ5ONiCq8yKhYM5cCgKOu66Lsc0aYOtZdo5QCwezI4wm9J/v0X23mlZXOfBjj8Jzv3WrY5D+CsA9D7aMs2gGfjve8ArD6mePZSeCfEYt8CONWDw8FXTxrPqx/r9Vt4biXeANh8vV7/+/16ffMD1N8AuKD/A/8leAvFY9bLAAAAOGVYSWZNTQAqAAAACAABh2kABAAAAAEAAAAaAAAAAAACoAIABAAAAAEAAAGhoAMABAAAAAEAAAC+AAAAADMAb/IAACSwSURBVHgB7Z0PjB1VvccPz21qaXdpFkJpC6WmFEWKQIqQQCUYqPoqMU0EXlpJ+PdMpDxbogQJllgj6otBHy2PYiLFJmJJFENjAH0WYoPF2D76qLQUBRrpwtJC7Kbd7R+xS/rmc/b+Lmenc//u3Htn7v2eZO/MnP/nc+6e7/zOOTP3hGORc3IiIAIiIAIi0AIC/9KCMlWkCIiACIiACHgCEiF9EURABERABFpGQCLUMvQqWAREQAREQCKk74AIiIAIiEDLCEiEWoZeBYuACIiACEiE9B0QAREQARFoGQGJUMvQq2AREAEREAGJkL4DIiACIiACLSMgEWoZehUsAiIgAiIgEdJ3QAREQAREoGUEJEItQ6+CRUAEREAEJEL6DoiACIiACLSMgESoZehVsAiIgAiIgERI3wEREAEREIGWEZAItQy9ChYBERABEZAI6TsgAiIgAiLQMgISoZahV8EiIAIiIAJdaSI4Ony0quzGdY2rKp4iiYAIiIAItDeBE/Tz3u3dwWqdCIiACGSZQKqW0M6XX67Y1knd3W7qtKlO1lBFVIogAiIgAm1PIFURenjNGvfaa6+5Q4cOJYLbv3+/O+ecc9z3v/99N2PGDMf0ncQoEZU8RUAERKAjCKQqQkNDQ16ALr/8ctfb25sI8JRTTnGTJk3yYSZAtpZU6prI1cSxAi2uXVu+dh0eLa7FiV+HcXUuAiIgAiKQLoFURYiqTZw40S1durSkCCVVvxoBqCZOKQEp5U9dLF/OiRde4ycnAiIgAiLQOAKpixBTcXv37HHdPd0lax0O9Az8e97e4+MyRYfr6+sbdV0uTri+ZPmS/q033/R5TJ482X383HP9eVxkwnwtn4GBAXfw4EGtW3li+hABERCBxhJIXYSsuggCg3zcmVCYILz211fdf91/v5s+fbq7+eab3SOPPOK2bt3qTjvtNPeTn/zEJ0ekbrvtNjd//nx3/fXXu1WrVvk4c+fO9WlC8Vq/fr3bsGFDcV0Ky4x41117rRcjqxP1IN/7o7J7enp8+DPPPus2b97sy3zggQdqsubi7dS1CIiACIhAZQKpixCDPjvgcCY45arBZoVdu3b5KAgNltTUqVNddyEPAg5Ga039/f1u+/btXoCee+45N2vWLC8Str5EPARl48aN7oorrnBXXXUVXu711193a9eu9envueee4oYIwsiXjRSIEEK4d+9eL35h2cSTEwEREAERaAyB1EUIEdmxY4cf4ONVRnA+Fu2OCzctMF2GcCEAixYtcvPmzfMbF7q6RleNeMT59Kc/7a0fxIc4E06c4ItZt26dF6A77rjDXX311V5YrPyzzjrLLV++3FtZK1asMG9/RID2RNOHCxcudIgU5eAsX3+hDxEQAREQgYYQGD3Sp1TEfffd54Ulnh3WDCKxePHieJC3QOL+NmVHZATsggsuOC6tTa/9/ve/91N6JkDmjzU2/zPz3TPPPOOn8HiWydaIrBJYXoiQTeuZv44iIAIiIAKNJdAQEWJAL+UuOP/8xCCmwEx07BiPiNWCs3A7shHh8OHDXsgsTXwqcObMmW7btm3ujd27iyJk04YnnniiJSvmXfTQiQiIgAiIQMMINESErrryyuImgLgYVNOSWtOwE25wcNCFYlKqHNaI5ERABERABLJBoKFv0a5VTBqNhCk9OREQAREQgewQaKgIMV3WDHf6GWdUVQybDtikICcCIiACIpANAqmLUK1btMeCAUsLoWNDwezZs/3GgyRr58jhI357N3WbM2fOWIpUWhEQAREQgRQJpC5C1I3nb1ij4e0D8T/8G2Eh8VwQlg7PClEmZfBHeU8++aQXKB52RbAaUX6KfaKsREAERKBjCKS6MYEdamzD/sZdd5UEiMVy++23F7dDY7nwbBEvP63kEJS4M2towYIFbsuWLY4HWW+44Qb/lgTi8jDqK6+84h9gvXXJraMEyMQynqeuRUAEREAEmkMgVRFCYCrtULNt1tY8rBee/2ELdSnHVmp+AqJUHBOiby7/prv4dxe7J554wls+5Ed59gCrbZQwS4h8eaUPLnzzgvfQhwiIgAiIQMMJ5O6XVREQE5M4nTCMKTmcvZ0hDIun07UIiIAIiEBrCKQqQmZhVGpKKCJhmtA/nofFKxeHNPF48et6842n07UIiIAIiMDYCaQqQmOvTno5VBKf9EpSTiIgAiIgAvUSaFsRqheI0omACIiACDSPQEO2aDev+ipJBERABEQgzwQkQnnuPdVdBERABHJOQCKU8w5U9UVABEQgzwQkQnnuPdVdBERABHJOQCKU8w5U9UVABEQgzwQkQnnuPdVdBERABHJOQCKU8w5U9UVABEQgzwQkQnnuPdVdBERABHJOQCKU8w5U9UVABEQgzwQkQnnuPdVdBERABHJOQCKU8w5U9UVABEQgzwQkQnnuPdVdBERABHJOQCKU8w5U9UVABEQgzwQkQnnuPdVdBERABHJOIJWf97bf7sk5C1VfBERABNqeQKUfBm02AP2eULOJqzwREAEREIEigVQsoXdW/biYoU5EQAREQASyS2DK0q9kqnJjsoSYhsO0e/GEGW7YDWaqYaqMCIiACIjAaAJdrsddeKzP2dg9OrQ1V6lYQl3TJzvX/0ED/PUHlzoTAREQARFoEYHh/v3FkrM4NqciQsUWFk7+0d8X99K1CIiACIhACwhg/WTZpS5CKO20O+/OcptVNxEQARHoGALv/mC1C62hrDU8dRGigb1LbslaO1UfERABEehIAohQll1DRIgGDw0OZbndqpsIiIAItD2B7p7uzLexYSJEy7u6Gpp95uGqgiIgAiLQKgLDw8OtKrqmcvXanppwKbIIiIAIiECaBCRCadJUXiIgAiIgAjURkAjVhEuRRUAEREAE0iQgEUqTpvISAREQARGoiYBEqCZciiwCIiACIpAmAYlQmjSVlwiIgAiIQE0EJEI14VJkERABERCBNAlIhNKkqbxEQAREQARqIiARqgmXIouACIiACKRJQCKUJk3lJQIiIAIiUBMBiVBNuBRZBERABEQgTQISoTRpKi8RGAMB3vW1f/9+l5d3fo2hqakkhRV/cvkmIBHKd/+p9m1E4ODBg+7gkN4+X0uXwkuiXQux7MWVCGWvT1QjERABEegYAhKhjulqNVQEREAEskdAP/iTvT5RjeogUGlKRr9tVQdUJRGBJhCQCDUBsopoHAHEB4Gp9AuSRw4f8WsHEqPG9YVyFoF6CEiE6qGmNC0nEIrPnrf3uCNr1/k6vfuD1aPqduqdS/z1ewsXuKnTphZ/dl5iNAqTLkSgZQQkQi1Dr4LrJYAAYfm89tdX3fufXeSzGe5P3qr79rLv+fCuSJzGR4IUipGEqN4eaG06uwFpbS1UeloEtDEhLZLKp2kEEI+B1Wu8ACE+pQQorBBxEKR9Z87zaStN34VpdZ4tArp5yFZ/jLU2soTGSlDpm0LA7n55OHH8+qe9oNRbsFlHWEWTJ0/WWlG9IJVOBFIg0JYitHbtWrd9+3aPp7u72/37Lbe40884oypcmzZtck888YTbunVrMf4555zjbluyxM0577yiX6kTBslHHnnE/frXvy5GmT59ulu0aJH73Oc+5xfRiwEJJ6Rfv369/7OnwRkoL7/8cnfzzTf7dQ0W2TvJhQJ04NKr3T/6+1yX6xkTgr5ld7kZUQ7D11/n+8TKGFOmSiwCBQITTpzgzzrtf7WeL0BbiJANIHT8d+/9rlu5cuUoFtd88YtehCzeqMDoAn+mZx5a/ZD71re+FQ92f/vb39zTTz/tli1b5r72ta8dd+ds6Tf8boNbvny5jx9mQnrEbcGCBe6BBx44Togs/f9u3uKW33OPe/HFF8Pk/hw/hO3Rn/2sakE9LpOcetj0CxZQNQLUNX2yb2m5aTpEDItoWhSz68bFx/VJTlF1RLVL/R9nqfFslsFxAylXnkDu14TCL2QoQDfddFP5lhdCTQB++YtfFgXowgsvdA8++KD785//7J568kl3zTXX+NiIG1YWgkU6nKX3AlIQoHh6qwtC9tWvftUhlmF6BlnumB5cvdoL0Ec+8hEveM9HwsUf4ocfYvYfUXpL6yvQ5h+0FV7sfsN6qWQBIUDnvfWS+9gbW52JUTlECNGOyGoO+6RcfIW1noDdlLS+JsfXwL6v559/vuNP36vjGcV9ci1CdLh9Ib/+9a8XLSAEhCm4at3Q4JB77LHHfHQEh+mwa6+71k2aNMlPwa1+aLUzIUGEiB+6cV3j3OO/+pUXCcTivyNrZ/HixcX0P/rRj9y3v/1tnwQhYleX1RvPnp4eL26Ekf6OO+5wK1ascKdNner/OL/33nt9eiyi3/72t/683T/oXwSfu0q2XlcSoJBHLdMg3f92qy+DPqFMOREQgeYRyLUIgYlBAwF6/PHH/QD+85//3AtINQhtkPvTn/7k+vv7fZKbbrzR370gNDYoMaDdfvvtPhxr5NFHHy1aQwySO19+2W3bts2H3xil//i557qBgYGi0HB+65JbHRYS7uE1a4p3SJRBuK1hfeELX/ACZuktnKk8/nAIJndYneJsGq5R7WXa7q033+wopo1iqXxFoFYCuRUhBIQBeu+ePW7Xrl1egLBA5n9mvp/aqhYEVsyWLVu8FYNIxOdwKQOHVWTTcps3b3ak463HHLdF03ZYKFgxF82de1zR5IGosbkAt3HjRp+Oc8TkL6+8UtwI0dvbi/coR/rBwUH3pS99yfuzvlTLnf6ozHJ0YdwaXeVhN+hmbd3u+8j6u9FlKv/6CcharZ9dFlOOjLBZrFmFOjFY8GXE6rj3O9/x4sEOOLNgKiQfFWxW0KxZs9ykaDcdA3x8MOKaXW64PZHwhe7vf/+7v0TA+Ds6fDQM9uekP/vss4v+WDo4RGz/gQPFqbyzzjqrGCd+MmfOnKIX6xjV7NYrJsjZiVmp/oHUGqfiam0q03xM951UeKtCJwh8EqOxDu7x/5mkMtLwa1Y5lepailf4/bHzpLhZaUeldjY6PLciBBg6kcH8k5dc7IWDjq6nYw8fPuw5IzJxSyjsALNS2DodCo0JysSJE72IhWnC85lnnlm8xIJjzQdnW7E5n3zSSaPyxs8c1pi5N3bvbmsRsnbCZkKJtyFYnLSOI7/lM9InaeWZl3z432FqmZuiep1NIdebPk/p4GXjQbl6s95bynUSr1IM8M+1CPkGREJkGwVqESATLL4ITHXh7OgvKnywWG6iUEs6smVdCRGp9tkl0tggwTnOrC9rx4hv+30yTdYXTZfVsimhHgqsC32okLDdmcb52HeLHZ5ssCk3cMbT2jUDMuue9cxEWB55OcKL9q5bt8698MILZXmtWLHiuGYxXlx00UWj1n6Pi9RBHrkXIfqqFvGJ9y3rOocOHYp7V7zmrtmm3obq+DXM0PoxQalYaBAB8WQ9yQQ4CNJpHQRYFxpfR7p2SYIF9LsNG9xPf/rTupu0dOnSutPmKSFjBiL08MMPJz7TF7Yl/syihbGRiR205FVu9sXit/OxLUSong5CuLij4QvANFqzHeVSfr2umqmAevNuh3RjYdsO7a+1DUwvX3fttT5Zrd8tbohY7wynqGstP0/xmQGhrTxKwaamJF720Ls9mhG2D14XX3yxz8NmU8LwTjvvWBGyjsaaqGf6gQ0MDHTcQfJqoFodaz/mTjnlFDut+kiapA0UVWeQk4i75p7noh6qubYMDCOb7qtL+uHpvMSnMx03ZFjUsz96tkuaPqqWCoPrWGYlqi2n1fGMV/jYRLxOJkLlrMNO4RVnE7/ueBEKF2KZVkNYqvlHmjFjhuvr6/N3QTNnzixyLbe4zS44HFu5azXBqZO9CoQ8ak1Pmjw62vl+9BaEcq/gibdr++mf8F61pCEBNxa4avrfR2yjDxtYx9KkTuJGWxGRJBdyYP2nlFUexkvKp1P8cvucUJodNGXKFJ8dzxuxaw3rKP7F4doeKLWt2lYHs2TY6h2u9Vi4HV9//XU79VvL7YJdcwiTbVgIhdHicOSBSnPhdm3za6cj/6BYeuwg5IfpWLOpxiE89ldNfItDGUyN2JZa8++kI8zH8tdJrGhrEiv8GT/M2XmpuBavk48Soaj32amCKycgLCDam7Vnz57t49vccLUiwkOuON7KbY65Ze72TdheffVVCyoeEUC+zOxcwiFY/EpoXCiLCdrkhPaxbRjX6N1xTPtRVrszbZOvhprRRgQ6SoS4G4k7zOULohcNmiXyzLPPFtdabEBCAHbs2FF8oJS3ctu2bObSL73ssqKwPPXUU36ajrJIb3kgcLwbDnfJJZcUF3FJzwO3cwtvWnjuuef8a4BsQCQ9eRGPNy3geLVPJ6wH+cZGH/zuTzUvIyU+8cbv+I2btvLumtKwXb6TmBrbPB7tfyqPdVedjyfQFiLEl5KpqvCP53DMcR6GcW6DO0dE4IorrvDRWVDktTgID0LA0X6igQiIBaJj6X2i6OPzn/+8FzKE5v777/fhpEdAEKCFCxf6qIhd/HkKrKHPzJ/v0/P6n2/cdZdf/wnT33DDDV4EyYTfFeoEZ+KL1cd0WTWOePTnlKVfqSlNJ1iW1fDLQxy+F3LtQ+CEY5GrtzkMnqxfsBBsi8DcifIafe7cG/1lQQgYqPkZhvvuu684SFdqD0LAe+Z404LVk7wY6BEgHHGYJkNAWKsxP96wHd8UQFp2Y335y1/2L1K1uBYPYTG/pN8DsvSrVq0q/pwE8e2Fp5YeP17QOm/ePE47zlXzcw58/6a/tNE/f8EP4Nn3shQsLKbeJbdkYi2I7xobW1gHa/T/TikeefLPMi/qhrMxoBVcbXz8y8y5xf8D/j/4qRMbu1tRr3iZbWEJxRtV6zWdxT89PwHBb/fgEB4GfxMgBv4kASIuadkp88Mf/tD/ZINN7ZHeBARBSRKgMD0WEiJDelyYHr9OFSD6Bzcu+hVUtlKX26SA6Ow++QK378x5xX88nzjhAwEiT6bhrIyEaPISgZoJID6yrqvDlmtLKGwi02a1uHK7oBiQeLP1C9FPfLPzDQHiC1UuTVi2pbcpwVrT0xZe3MnbuXGsWdXyip+wLu1yDlPEnjtMftqBH6MbizMBIk/Leyz5pZE2y3f2abQvrTysv8SrPFE4MVOUdUuobSZXmVar1jHwlHOE84bq8C3V1QoQ+Y41PW1BdDpdeMI+sj7jDnNCNH2G483Xlabbwjw4ZzqCdaMJ0U9680/q/Sp8H3wkfWSGgH0XMlMhVWRMBMqPxmPKurmJ0/hi2h1Wc2t+fGlptOX4XNvDhz5CpFnH2Xflp9ypz/7BixGtM0Gy6Trb1o3w4BAfdtr1RlatrQX6AH2IgAi0jEDbiFAaBDX4p0GxsXlYH5m1iFWEsDBFhxv5GfAR0eHadtWx9sPUBOkkQJCRE4FsEJAIZaMfVIsaCSBGZhWFU3RYSElO4pNEJZ9+WZmxyCe97NVaIpS9PlGNqiRgVpGJUblkFrdcHIXlg4D6Mh/9VG0tJULVklK8zBLQoJTZrlHFRKAiAT0nVBGRIoiACIiACDSKgESoUWSVrwiIQEMJjPxsSkOLUOZNIKDpuCZAVhEiUA0B/cpmNZQ+iMPrjXi7vaZjP2CSxzOJUB57TXVuSwIMpq1811jeoIpX3nosub6ajkvmIl8REAEREIEmEJAINQGyihABERABEUgmIBFK5iJfERABERCBJhCQCDUBsooQAREQARFIJiARSuYiXxEQAREQgSYQkAg1AbKKEAEREAERSCYgEUrmIl8REAEREIEmEJAINQGyihABERABEUgmIBFK5iJfERABERCBJhCQCDUBsooQAREQARFIJiARSuYiXxEQAREQgSYQaOi74/ixMTkREAEREAERKEWgYSLU3dNdqkz5i4AIiIAIiIAn0BARGli9RnhFQAREQAREoCKB1EVouH+/61t2V8WCFUEEREAERKDxBLpcT+MLGUMJqYsQdfnw9BljqJKSioAIiIAIpEUAwyDLLhURopHDbrDYzuH+D86LnjoRAREQARFoLYH+1hafVPqYRGhc1zif57SVdyflLT8REAEREIEMErCxOwtVO+FY5LJQEdVBBERABESg8wik8rDq0eGjjj+czsVB3wF9B/QdyO53IGsyJ0soaz2i+oiACIhABxFIxRLqIF5qqgiIgAiIQIoEJEIpwlRWIiACIiACtRGQCNXGS7FFQAREQARSJCARShGmshIBERABEaiNgESoNl6KLQIiIAIikCIBiVCKMJWVCIiACIhAbQQkQrXxUmwREAEREIEUCUiEUoSprERABERABGojIBGqjZdii4AIiIAIpEhAIpQiTGUlAiIgAiJQG4ExvUU7XpS9Py7uH7/O0htc43XTtQiIgAiIQPMI6N1xzWOtkkRABERABGIEUrWE3ln141j2yZcTblzsenqy/ZOzyTWXrwiIgAiIQJoEUrWEtp/+CRf/lVWrLL9zzq+v8tPfJ/3xSTdjxgz/sw+amjNC7X8Mp2vV7+3f32qhCFRDIFVLyAqcsfI/7TTxOGHyZO9vAxGDk50TYINV3K/cdViQpTe/MJ352TFeNv5JfhY/PMbjheXGyywXFuZp52F8/OL5WTw7NjN+pbok1Yk01aQL21FNfCtLRxEQgXwSSN0SAsP0lza63t7euogwCJUbfGyQKhUnKX2lNFbRpLQWVu6YlM787FgufRhGfFy8fbXmQx5JaZL8iFvKlYpfyp98ksIGBwfdkbXr3Ls/WO1OvXOJG3f9daO+I0lpSuVVqq7yFwERyB+B1C0hpuP27tnjBxgGliQXDrAMTm+9+aaP9vFzz/WD786XXy5ec0I+r/31VTepu9tP4+FHHK6nTps6asAmb8JOfvYPRPNuytKv+GN8oLN8CZz90bN9Pn19fe7g0FDx2idM+LB6W51IN3790z7mvis/5WgLjvqEYfj1LrllVJ3xw1n9OIbra7vmnucuveyykUgJn8QfWL1mVIitu1meFkh9BgYG3NFHf2Fejvpa+4uehZOk+r+3cEGxH+LxuSaNiU4YjgCVcknlmFDF21AqD/mLgAjkj0DqIhRHwOCS5GxgQYDe/+wif3e8M4rIOULWNT2asnvrJZ90z9t73Htz/tWdvPJu1xcNgAcuvdrHeZ84hfUlIiI+lv5tn3Lkw+6+ESPKxVEv8iU+7rX/eayYlrKHKlhz+/fv9/HHR3f170TpD0QDLPU2905UV8pDTOJhxDGRsPjGg/jUN8xrQhRpe1SnJAsTgTMelhfHroLFERfgpPxp70DUDhNHq4sJSbz+5P1OFN/yDsslLYJobfD9GEWwPmU9sDe6cQidpUkq52ihHKtTmE7nIiAC+SfQEBHCOsCVEqA4NgYof5ccDW44Bi6mbMxhmbCpIYwzLRrkceMmTbJoXhT+0d/nWJPi7h6HRfT2su/5tGahMKDFnYmR5dvVlYzGBkPqhPN1io7Ul/wpDz/KtPCksGlRYE9MFBEI0tF+6oHFQTnWhv5PXOF6C8JM3oiECZDFxx+LzNps1gR98cfnn3fdBcbjd/zGW5LcBMzaut31LbuLpKOEhekz/I0n/UreYfviQoTF+l6hDZRx2tSp7uDBgz4deZ0apR8Xs0z/MnOuFynaAMNS5Rh7X1F9iIAItAeBYym6l6afd+z/3BnH9q58qOTf7t27fYn/PPpPf3x5x45jpOPv+U2bjuFvf1Y14pAvccjbwu1IPPy3uJP80dLZkfSEkR5HOhx1wc/qbPlZuI8U+7CwsN7WJotKXSxf4oWOuNYW/C2/AwcOlExDPPK0enKN27dv36h2jfiOfFKulW1lJOVBbMKJa/HsSHz+7NryJy7t4y8M49zKoC9DZ6xJQ73NkZfxCPMiPGQVD7P0OoqACOSbQPLt/hj11ayAMBvu7r2VgmfhTjgM5/yTl1ycaD1xZ3wosoS63ORRd+qkMauGu3O2fzPNFXesdwxE1hFxmLKz9RqLR92wGKqx3MI4NsXEuhTO7tR9HaKyyPf0M86wYvyRuAcifxxTaZZ2x/btbkJkEWINTCmsJ/lIhQ+z7GhD3PqweFY+1/E2WhyO5DUl8KBNYXxrY6lyiLs9SG+nRw4f8Yxp9+TCDkirk293ISKWkW1c8VZe5M80nZVr+bGNf3zEg+8TU3zUx/KzODqKgAjkm0BDRIiBtJRjiqleZ1N0NhDZkcG8GodonMqGhYRB3tJbnnYdPyaFM/iO6xlZ+yI8fBB3eHg4nkXitZ8Si4QWx8YBNndUckwZIry0i2e04ANfE7b4oE5+CARTj6zpIEZMl3X3dB8nAGHZtIk2sg7G9CBpqnVWh6HBkenLeDpEFUe+9KNNc+Lnp+WiI1OxciIgAu1JoCEiVGn3VNoobVdaGvnaoFkqr0rhpdJV68+gPFxYT6qUBrHDgrB1IW+BRmmxtEyQsCaoM0Jilg1lmLW6OyoEYSK+hVu5pAk3GZg/aXCkCx31IR+/jhSJ/WDBCsSf3Xi2XsfGBPIOWbLx5L0ws+ica8rgQWc5ERCB9iTQEBEK72abgc1PVRXuqBtdXnzwTLs8BnGmBrGEsATMGdPQjzBEhl2E4bZ0RAYh+DDHwu7BUIiYLmTTgblQlMIpLwTI5xNZW1i3bBXHYoO3beSwPOzIDjscIscuOnNYa2xwsGlPOIbONkqEfpzT7pMiDvEHnOPxdC0CIpBPAg0RIUMRH2jwD+9+LV69R8uL6aH+QiYTTmRD8wfrMwXv1A5WZmoZJmTEekmlKbJ4Mr+mU5hmREjYaWe70ViDC8UTy4SdeeawXPedOc+v55CWNiJq7HJjuu/MnZv8FCPrSEejdbspUXjSmhD5GZ+4lYSI2RZwKzc80oe2ThT661wERKC9CaT+e0IMPna3zoAU/0sbJ4MrgxcWBNM9bBHG2WDIebhgjhWQJI7Eq8aNJW1S/lZPhIABH6uErdfmb2nwQ1hYLzKHH2IR1ik8t3h2ZM2F+HHHGpKJBnniWP/BwdWEnet4veLXts2cacLzIgvN/kzcyCN05I8LH54Nw9lWTp7l2hXG17kIiEC+CDTEEmKNhodKbQoJJAgT1xwZ9OKD11ixMUXEIM400c7owVPblcZgSn1sPcKvT8Smgmop2+pNO+JrGEn5lHreKIzLAMu0GpsFsF6YKtsf8bMdZrSBdR/aMDFqp1kMxMNaGYisDETM4g8ND43sUovWUuBiO+Fs7YgHaZkWw9pCoMmHvOEHHxz8WFtCFHE2zcYDvuEanO3wg0soFMTZGZVtYmZ1M4vHOFIPpu1sjYp28P2wek2I2vduVA8r31dGHyIgAm1DIPV3xzGYlVtI5o6bu2S/lhFh9NM+0aI0/h97Y+socWJQY7AizqE5l/lBkjtr87desGvumBk0bes04Zzj/NbnwrQU15avrW2EdSK8lLOywjrZdBVhOPK2N4qfuW9bUTQII449nHny7k2eg+WJFYIg2IBs1gnpcFgNWBTmEAATFvzC+LQ7PgWWxId0xutDkXgzrWf1IT6iSH+SN+XD16wXv+4T+Vs68rL+tB1t9l2wa4Qu3g7S0A9WD/LB2bXlb/UaCdWnCIhAOxBI1RKywakSmPAtB1gUvI4nydndMnfPR8u8mZt4DFAM0Nz5sw3b7uAZiHE2eFue+Pl8C9NBtvCNfzln6cM62XSVhZHeWCRZQhZmZVr9sUImFBb2rf5hXtYGqx9CfjQSbjYQ4MI0cQEqxYd0xIVbKED4M3UZbXvwjrz5o+74m8VE4HtRH5rzb4yIhGnancl9Sh6IFxaPr3/Ub5TLBgqsp3gbsJSw/CRARlhHEWgvAqlaQo1AEx984tdhmWEY57hQGMLwMF2t52nlU6lcLKNwsK9ULvERxLDNYRlhes5xYdwwPEzHebwu8XCuzQpC1OKCafHNumKnnMUJy01qQxhu+egoAiLQHgRStYRsYKuEJhz4iGvp4v6E4Wfhds0xyYVxLS9Ly7X5WVoL4zoeZnGSjsStlNbCk/ItF0Z5hJPOBKia+KSrFD+sd1ivcvkn1cXSxtPZ2w+oSzlnU3QWJ6yXtYGweP4WX0cREIH2IZB5S6h9UGezJSYyadQuXCdj2o4pvtD5qbpoOg6X9EbwMK7ORUAEOoOARKgz+rkprUTQkt6wEBbOBgc2GpT6/aIwrs5FQATan4BEqP37uOkttHfAYfmEDsuIrd/hlFsYrnMREIHOIyAR6rw+V4tFQAREIDMEUn9jQmZapoq0jIBtKLAjFeE8vG5Z5VSwCIhApgjIEspUd6gyIiACItBZBGQJdVZ/q7UiIAIikCkCEqFMdYcqIwIiIAKdRUAi1Fn9rdaKgAiIQKYISIQy1R2qjAiIgAh0FgGJUGf1t1orAiIgApkiIBHKVHeoMiIgAiLQWQQkQp3V32qtCIiACGSKgEQoU92hyoiACIhAZxGQCHVWf6u1IiACIpApAhKhTHWHKiMCIiACnUVAItRZ/a3WioAIiECmCEiEMtUdqowIiIAIdBYBiVBn9bdaKwIiIAKZIiARylR3qDIiIAIi0FkEJEKd1d9qrQiIgAhkioBEKFPdocqIgAiIQGcR+H/ewm+ksWIpPwAAAABJRU5ErkJggg==;" vertex="1" parent="1">
                    <mxGeometry x="23" y="490" width="175.58" height="80" as="geometry"/>
                </mxCell>
                <mxCell id="23" value="" style="shape=image;verticalLabelPosition=bottom;labelBackgroundColor=default;verticalAlign=top;aspect=fixed;imageAspect=0;image=data:image/png,iVBORw0KGgoAAAANSUhEUgAAAw0AAAFACAYAAAD+uJB7AAAAAXNSR0IArs4c6QAAAERlWElmTU0AKgAAAAgAAYdpAAQAAAABAAAAGgAAAAAAA6ABAAMAAAABAAEAAKACAAQAAAABAAADDaADAAQAAAABAAABQAAAAAAoc4qRAAA/nUlEQVR4Ae3dD7xVVZ338UX+BS6CDgmC/wBHRBQnsVTyT86rS08zlZDPY5Nomq8cMSf/NhjPCE3i81IpNCsT0ikssLQSHJ3pCXzSxEALbEREcQRBgURJQP7VWMOzvuuwDuvsu8++5+y7z2Xfsz/r9brec8/Za+213vvwcv32+rO77bLJkBBAAAEEEEAAAQQQQACBKgLvqfI+byOAAAIIIIAAAggggAACToCggS8CAggggAACCCCAAAIIJAoQNCTy8CECCCCAAAIIIIAAAggQNPAdQAABBBBAAAEEEEAAgUQBgoZEHj5EAAEEEEAAAQQQQAABgga+AwgggAACCCCAAAIIIJAoQNCQyMOHCCCAAAIIIIAAAgggQNDAdwABBBBAAAEEEEAAAQQSBQgaEnn4EAEEEEAAAQQQQAABBAga+A4ggAACCCCAAAIIIIBAogBBQyIPHyKAAAIIIIAAAggggABBA98BBBBAAAEEEEAAAQQQSBQgaEjk4UMEEEAAAQQQQAABBBAgaOA7gAACCCCAAAIIIIAAAokCBA2JPHyIAAIIIIAAAggggAACBA18BxBAAAEEEEAAAQQQQCBRYN/ET3Py4YaNm8yGjW+XazPkyAGmZ4/u5b/3xoulL60sn7Znjx5myJGHlf/mBQIIIIAAAggggAACzSTQJYKGWXPmm/lPLS673zdt4l4PGibcMqNcnxHHDTZTJ44v/80LBBBAAAEEEEAAAQSaSaBq0DDtngcrOupTJ15uRhw3pJna3ultmXDLdLP0pVU2wMCy0/E5IQIIIIAAAggggEBqAdY0pKYjIwIIIIAAAggggAACxRAgaOjE69yyl9dhdGJTORUCCCCAAAIIIIBAEwkQNDTwYl456etm2j0P2EXcm9xZ/OJtLZxW0lQlTVma8/On3N/8BwEEEEAAAQQQQACBPApUXdPQqMpu3/EHs23HTrcbUla7DvndldKWpzq9YTv223fssAuss9kJaeGSZWbla+vdz/ynltj1IINt+Tsd62MLfmMm2IXdOq9PYz9yhn/JbwQQQAABBBBAAAEEciXQaUHD/AWL3cJq3V2PJnWoLx93bl3blqrDPWvOPDMv0vnu1/dg03rGKebCsa3R07T5W3VRGdE69exxoBl18nBbxmij8tKkk4YdYyZf/Rnz/Iuv2vJfqTjHnHlP2eDkQHO6PceIYYPtuU5IcwryIIAAAggggAACCCDQKQINDxo0CqApOtGOedg6fXblpDvMhWNaa+rsq8wJ90wvT/sJy9Jns+bON4uefcHcNeWa8KOK16qTRgDikgISfbbw2eXmi58735w+cnjcYYnvlQKPE8oBwZx5C8yM2Y+4PIPtMx2+PeXaxPx8iAACCCCAAAIIIIBAXgQauqZB05A+b4OBaMCgB6FpdEEd6zCpsx8+NC38LHz9lTtnlgMGlRE3GqCpQXq+Q1yaPvtf2wQMqo/u/IcPadN0oq/d+2D5XHFl1fKeC2RsXfwoyKrXfmdUBxICCCCAAAIIIIAAAl1BoKEjDdotSFOF5trpOEqaMjR29JkVwYIChbBzr9dTJyY/D0IjAeqAX3/Z+eVnR6hjro64Rhh80jQgrRXwC5D1/kL7ua+P/lY5ejBbGHjoc9+pV+CgUYm0D29TXbXYWb813an1jJG2DstcHUbZEQyefaGrQEIAAQQQQAABBBDIs0BDRxrU8PHjPuFGFfRAM00/io4uRN9bae/C15LUiQ873Or0f/nqi925fH51+OctqJyCNPfnC/zH7nc0YNCbY0afUTFNSiMlfhFzReYa/viBXTOhgEb1G2vLVSB1kQ0elPQAPX1GQgABBBBAAAEEEEAgzwINDxrU+GgHPwoSLgSupXOu0YtwZCAsT5+F6fmXVpb/1HSpcKqUpiRVK0efhSkafISfJb0ectQAd47JNqDxSUGJpkENPnKAf4vfCCCAAAIIIIAAAgjkVqCh05PiWq1pOuq8h6mWQCE8vvXMkeGfFa/douV797yltQ0+rQpe6z3d9a+2hmL79j3boerYNze+rV91JwUxCoqiIyxTJ17R5r26CycDAggggAACCCCAAAKdINApQYPu7i+yzy3QeoIspuP4h6PF+USfurzNBik+bXirciqQ6qOfWlJYTi3Hh8dEAwZ9FvdemIfXCCCAAAIIIIAAAgjkRaDhQYMWFIcLj7NoeEtk16VomZpy5IOTekcxomXxNwIIIIAAAggggAACRRdoaNCgnZGiAYPb2tTuGtTSvXvZfr59QFu41qD8QcoXPmBoL7vqEi6mTjp+COsPknj4DAEEEEAAAQQQQKCJBRoaNOgp0GHSw9biOt+lgKHtk6LDvOHrDXZ9QbUFzNH1EnqQmk/RKUH9+h5SsUuSP47fCCCAAAIIIIAAAgggsEegYbsn6W5/eMdfd/XjAgZVZdVr6/bUqIZXS1+sHmAsfXHPbkkqqr8NDHwaMazy+Q8r6zyvL4ffCCCAAAIIIIAAAggUSaBhQUMUMToC4D/XQuTosxnaW4egh7ZVO2a2nRIVJreb0u43tEg63EpVT2autnuSsminpyynTYX14jUCCCCAAAIIIIAAAl1FoObpSYuW2J2PIrsPxTWy33sPcR3z6FQgddC1/Wk42qAO+Qy7UDqatFNR+BTn6OcKGCbcMsPo2Qd+mpI6+HqQWjQAia5ZaD3zlIpAQA9Yi3vAm+qmJ0FrtEQPpouWE9ZJ51SdkuocHs9rBBBAAAEEEEAAAQS6kkDNQYPu7teS9FwC3c33d/XDO/VXTvq6fWbBcNe51roE/1m421Et51BAogDk4utvKY8c6G8FDmHS06Z9UOHfV/201sKfW0GBL0drHJQWPrusoiwFFt+26zHCoCCsswKGz9i6KJWeSl05Dcp9wH8QQAABBBBAAAEEEOiiAg2dnnT5uE/YjvaBFTSajhTultR6xkgTfYpzRYaYP66/7Pzyu+r86ycaMKjcC8e2lo8LX2iEIpympM9Uhuqln7As1X/MR86sCBh0/Fj7XpiURz+1jMaE+XiNAAIIIIAAAggggEDeBRoaNGgq0renXNvmbr9Q1BlXp/76yz4V+3kIp1GJMOkJy/dNm9im469jVK6CFZVbLWkURFOSFHwMCXZXCo/39fv+tP9txo4+I/zIvR5j39MPCQEEEEAAAQQQQACBZhfotsumzmhkafrQTncqTfMJ1zZ05PylXZpKQUXacjVCEO6kpGlK0WlN1eoY5q0nX7XyeB8BBBBAAAEEEEAAgbwJdFrQkLeGUx8EEEAAAQQQQAABBBCoTaCh05NqqwJHIYAAAggggAACCCCAQJ4FCBryfHWoGwIIIIAAAggggAACORAgaMjBRaAKCCCAAAIIIIAAAgjkWYCgIc9Xh7ohgAACCCCAAAIIIJADAYKGHFwEqoAAAggggAACCCCAQJ4FCBryfHWoGwIIIIAAAggggAACORAgaMjBRaAKCCCAAAIIIIAAAgjkWYCgIc9Xh7ohgAACCCCAAAIIIJADAYKGHFwEqoAAAggggAACCCCAQJ4FCBryfHWoGwIIIIAAAggggAACORAgaMjBRaAKCCCAAAIIIIAAAgjkWYCgIc9Xh7ohgAACCCCAAAIIIJADAYKGHFwEqoAAAggggAACCCCAQJ4FCBryfHWoGwIIIIAAAggggAACORAgaMjBRaAKCCCAAAIIIIAAAgjkWYCgIc9Xh7ohgAACCCCAAAIIIJADAYKGHFwEqoAAAggggAACCCCAQJ4FCBryfHWoGwIIIIAAAggggAACORDYN20d/vDHd83Lq9ea1eveMm9u3Gw2b9tm9B4JAQQQQAABBBBAAAEEshU48ID9TJ+WFnNo3z7mqAHvNUMHHW70Xmelbrtsqudkm7duN79+7mWz9OVXCRLqgeNYBBBAAAEEEEAAAQQyFBgxdJA56/3DTZ9ePTMsNb6omoMGjSI8uXiZ+fXSl8sluShn8EAb7RxqetvIpzOjnXIleIEAAggggAACCCCAQJMLqC++4feb3M+KVevMmvVvlVv8gRHHmrNOOaGhffGaggaNLvzg4cfNFvtbqTOjmrIGLxBAAAEEEEAAAQQQQMAJqH/+5G+WmaUrVru/e9vRhovOPadhow7tBg2KaB782a9cwKDKnP/RD5p+f3EwlwsBBBBAAAEEEEAAAQT2skB4c9/11f/HGaafXfeQdUoMGsJKnHTc0aZ11MkNHfbIunGUhwACCCCAAAIIIIBAswto6tIjjz9jVry6zjRqxKHqlqs6uZ+SNHTQQPPxc04lYGj2bxztQwABBBBAAAEEEOhyAlpX/L/sCINu8ms5gfrw6stnmaoGDVr0rJMqWlHAQEIAAQQQQAABBBBAAIH8CmhWkPru6sOrL59lig0aNC3J75KkBRXsipQlOWUhgAACCCCAAAIIIJC9gPrsWn+spL68+vRZpdigQSuxlbRLUmfs+5pVYygHAQQQQAABBBBAAIEiC2jDohFDj3YEerZaVqlN0KD5T37rJj0sgoQAAggggAACCCCAAAJdR+Cs95/gKpvlw5jbBA0rVq91J9GD2xhl6DpfDmqKAAIIIIAAAggggIAE1IfXw5c1GLDi1VLfvqMybYKGNevedGUOHXR4R8smPwIIIIAAAggggAACCOwFgaGDBrizhk+O7kg12gQNGzZuduU14qEQHakoeRFAAAEEEEAAAQQQQKA2gSMH9HMH6kHNWaQ2QcOWbaVV1jz1OQteykAAAQQQQAABBBBAoPMF/DIDbb+aRWoTNPgHQbDNaha8lIEAAggggAACCCCAQOcL+L6879t3tAZtgoaOFkh+BBBAAAEEEEAAAQQQaC4Bgobmup60BgEEEEAAAQQQQACBzAUIGjInpUAEEEAAAQQQQAABBJpLgKChua4nrUEAAQQQQAABBBBAIHMBgobMSSkQAQQQQAABBBBAAIHmEiBoaK7rSWsQQAABBBBAAAEEEMhcgKAhc1IKRAABBBBAAAEEEECguQQIGprretIaBBBAAAEEEEAAAQQyFyBoyJyUAhFAAAEEEEAAAQQQaC4Bgobmup60BgEEEEAAAQQQQACBzAUIGjInpUAEEEAAAQQQQAABBJpLgKChua4nrUEAAQQQQAABBBBAIHMBgobMSSkQAQQQQAABBBBAAIHmEiBoaK7rSWsQQAABBBBAAAEEEMhcgKAhc1IKRAABBBBAAAEEEECguQQIGprretIaBBBAAAEEEEAAAQQyFyBoyJyUAhFAAAEEEEAAAQQQaC4Bgobmup60BgEEEEAAAQQQQACBzAUIGjInpUAEEEAAAQQQQAABBJpLgKChua4nrUEAAQQQQAABBBBAIHMBgobMSSkQAQQQQAABBBBAAIHmEiBoaK7rSWsQQAABBBBAAAEEEMhcgKAhc1IKRAABBBBAAAEEEECguQQIGprretIaBBBAAAEEEEAAAQQyFyBoyJyUAhFAAAEEEEAAAQQQaC4Bgobmup60BgEEEEAAAQQQQACBzAUIGjInpUAEEEAAAQQQQAABBJpLgKChua4nrUEAAQQQQAABBBBAIHOBfTMvkQIRQKBCYN3vNpjX7Y/SEYf1MwPtDwkBBBBAAAEEEOhKAow0dKWrRV27pMBPHp1vxo2/wf08vWRpl2wDlUYAAQQQQACBYgvkNmi4855ZZsgHPup+fmo7XfUkn0+/SQgggAACCCCAAAIIINAxAaYndcyP3FUENCVHd9i3bt1uPnz26ea0kSOqHMnbtQp870dzzbr1G8ywY4eY8z724Vqz7bXjFOy/+PIqM3BAP/PZvxuz1+rBiRFAAAEEEECg4wIEDR03pIQYgbU2aPjGPbPdJ8OOHRxzBG/VI/D6+jfMzbfPcFnO+9vW3AcNu3btstd/lln7uzfNaaeMIGio52JzLAIIIIAAAjkUyO30pBxaUaU6BNbaO+IkBBBAAAEEEEAAgcYIbN65y8x9/k+NKTym1MKPNGj6zJZt2xxN75YW06tXzxim5Ld0V10/B9m8R/Tvn6oMnUF1eeE/V7pyjv/LIcknreFT1ekd27Z3bLnDbXlp2uZPo7q9/sYbmZTly6z2O6t6+zrrPEme/jg5HW53NtJPmhR+D5LOl6bsjuQJ29fR70E99dAoAwkBBBBAAAEEshd49e3/Nn991w6z5u1d5qFLu5sxJza+S9/4M2TvlEmJmm/900cfM888W7mbjTqMp548wlz99+MSt8ZUR+y7do75zB/NcR3psFLKf97Hqk8hUedSu+koXfLpMW7qxhQ79WSmLU9JdfjlwzPd63r/4+v1kG2fzhOmeur1STtn/urLLrRz0leaKbd/p42TOsU3Xvf35tTIWgXNu5/5w7kuWPHnvvmOGeWpSnqvWtvutNOZ4uqtc8mp2jz+0LPVrp+48brL3fm0mF5Jwdxv/99P3OvwP0/ba/+N78xu0zb/HZhky2kv0PLe0e+Bztl61ij3PQrPWe/reU8sNP/nju9UZJv/5EJz9rml7223bsZ8+6uTYoOi+U8sMroecd/xq+y1jfPc8s42M+6KG8zWbdtN714t5m5bdrUtYtfaKVPjrviSq9vhdt3C9KmTzeatW82Fu9/zlX568VJb30v8n+766DqREEAAAQQQQKB+AR8wrLYBw6BD3mP+auA+9ReSIkchgwbNtfcdyqiZu1v8bzagsD/qWF192bjoIUaLfC+wnf5op9wfqE6afvR5XH4d5/NqYavq4wMGfdZeR1XHxCXVa/wXp5jldrQiLrVXr4PsSIuv19r1bxp1qq/4x5vaBEUqW+e4wHYu77/7torA4Z2t28pl+DroDr5+qqX26q1zTbhpWlVPdfJ9vbfY80Svr9oVTdFjws9V1lp7/eV1//Tbqnaak74Haq++QyqjIx1klePb5usYenazUcPWdyptd9kDb7jpdhsUx+86pvLk+ZCtnzr64fet90EtRmsmbv76DHfeCTfdYWbffas/dfm31iwoYFBZNm5x/1ZUjoKGaH2Vyb+nY/UdISGAAAIIIIBA/QLRgOEXV/YwRx+i/7s2PhUuaFBHygcMuoP6WXsH+/i/LC3UVcdGd3HnP/G0k98a07nRneUwYBhm74Jf+ulzyx3L+b9cZH5iO2M6TgtBdcc5aeeY5XZ3GXUs1eFS51Id4LQpWq/zPv7hctuW/+cq8z07AqCObrV6qa4+6bgbvnK7UQdU9T/eLmaWV1iOjp1gO6fhyMFpdpTFXGbMM0ued+3SMWpX0mLojtZb5/BJ9VZnOMlTd9/9d0DHXWrbp+uo9qtDrs9etF76Pqhuj866q6Jj7c8V1jvuu6SRE5Wh4CFtOn7oYNshH+eum0bGlDTy8uEPnVYuUrsThUkLpn3A4NunUSYlPWROAZOc9MwIHXvbl68Ls9tRnXPtv4NF7vo98+xz9t/DItP6ocqRgZk/ergcCIQLs3v36uXqqwJ1HiXZhKMa+i6REEAAAQQQQKA+gb0ZMKimhQsa1Kn3SXeRw076qfYDTSt6xnam7rx3lptG4Y/1v9Xh9HdN1Rme/tXJ/iP3W9N1NLVHd+F94PA/7Z1bdd7ikgIGdaqidYk7Nuk9ddDCek2dfL3rBPs8qpfq+7ELr6yrXuowVxhFytE55eWnKem3fu40syqCBrnGJXVufb3VsZVDmNLUW9bRevsy1VnW9CklHaeRkuPtFqZhUgdZd+LVSVfdvmunoGmqVpjCeuv66Xxh0KXvUuvZo2zQMcEFIGHeel6rbvp5eslzrj7KqwAsWh9fpo7zo1aHD+jvRgkqrp89sPWs083HL/qHUiDy74+576u/fipHoxd3T51kzh57ifuu3HDz7XbL3Jnl77CmJX3D/vtQ0jm+YKfy+SQD1a20e1IpaDhiYL+q9fX5+I0AAggggAAC1QX2dsCgmhVu9yTdSfYp7Ez59/RbHaj7754avlV+7e/gqqOoufNxSZ083b1W0vnm/XJh3GHl99TJqlaX8kHtvPD1UqdN9Qo7sD6rzhHWSyMiSalavVSO7i77pNGHtMnfjVb+qZE73r7Meut9TYKn7q77IKU0glIZMPhz3njteP/SrrMo3eEvv2FfhPWe/rVJsd66BloX0VnJzhiyAcPD7nTq+E+ddG3s90pTkPSZkjr3fgTDvbH7P+6YG0sjEFrn4EdmNPL0jXtnu+910jnCsniNAAIIIIAAAukF8hAwqPaFG2kYOOBQY54tXTiNGiRNHYpeXo0K+A6npuEkdfRL00FKd1qftlN1qt1p1zlOHXli9FR1/R3WS+dNqpfufmvajJJGCJLaH04piVYonGKSdo56WO/2pmZ90o5U1FpvPUyuWgo7yEnXRB1+Wfo66rp7V41W+O+B7von7ZSkAHSYnf6m6U6NT7uMH0lTUBuOHkTPrc800qLRsMcW7Bl9C48bfc4o9/3Qv5OZDzzsRqpet2twvOEXPndB4jnCsniNAAIIIIAAAvUL6GaddknSomclBRCDptSzNvBvXL5J1251vzvyn8IFDZoq5O8caz63Os7qSJ9mO+7qaCUl3aX2ScGH7zj698LfvQ7aMx3pxSoLk3W8OqK+Mxrmr+f1crvDkU8qK7FetqPok57WWy0lrUGolqfe9+upd1h2Ur3V2U/yVBCg5EdikqwOt9f4md0Bps7py12+Yo+bfy+sX/T1MLsuoTOCBt+2Uvt6JH4PNMJweP9+5sWtq9yogYKHuCl0X/jcODtStshNZdL6FZ80LanaFCl/DL8RQAABBBBAoHkEChc06A6rdjTyd611Z9bfndUd40/axcOj7Z3quAAinNqk6SnhFJWkr4Q6ZNWSG/mo9mGN74f10l1h/XQ0+U51R8tJyp+23nr2RLUUt1OSPzYMEHTucBtQf0y13+FoSnj+WoKrWgKLaudN+74Cm3rap2eVxAUNfirTuM+XdkpSfTQtKW5HpbR1JR8CCCCAAAIIxAtoXyTtkORHG7TFaj07Jt189wOu4Buv+FT8Cep4t3BrGmSjrVS14090+o229tTow1l2T/kJduegaGc/7CzWYcyhTSYQBh95apq2yW1E8lOZfNkKlPZGIOTPz28EEEAAAQSKJBAGCuH6hs426BIjDY3opKnTox2GFEBoipK2WtXaAx8oaJtMnTfczSe8i621AJqHX0uKu4NbS740x+S1Xu21pbPrrZEUPaOg1jQs2GEprx3mg1r2TD3TOpmrP1e541NSW5Pa9M177y//u1AZy1esdKNZSethks7FZwgggAACCCBQn4APHDTi4AOHekYc6jtb/NG5DRrC6TG+Ix/fhMp3w/nutU4dOdw9vbm0G5B2IZpin2Csc2qOeLidqOa4+6S98ZMWmvrjOuN3aKXz5aVe7bU92lFtdL11Pr/4NyunWu7uh9/J9kw68rmeyuxTN7sxWhae2l7V75ykHbMUSOvfxTftDkrVpvH5OvAbAQQQQAABBLIT2NuBQ26nJ4U70tTzcCy/9aguUbRTWstl0446M4I70H69g/KGddIDr/KSwnrpYXFdJYXPR+isensrrWlQQJgmhfVOWuTuy+6soEHrcPyolupVT7Dt6xr+9k991nsH2W1ar7LPY7ht8rXuHNqG9Yp/vDk8nNcIIIAAAggg0GABHzjoKdB+xGHzztLOSg0+dX6f06C7pL4DpA5eLYt7tRVm2MnXrkhxScclpfAJu1vsuX3SFBVfJ91tba+cjnba/Hnb+x1a+dGRpDydVa+kOugzjQSFnu114rOot3bJ8slvHer/jvsdd86w3goIkuqt69GI6XVxddWIkw+K1KnXQ+naS3Ht83k0LcnX/Wq7i5KC8CPsrkn+WR8vvPyKWwPkj+c3AggggAACCDReIAwcVtstWJ945c+NP6k9Q25HGtT6cE62FignBQ5P287ZBeNvKHdydNc1utBZZWrHIx2X1OEPO4HhlCR1ynyHSWUllfOi3QZVT19OqrPKyCqF9dLWmNXa19n1Uvve2bYn8Iq2t9Z6qz1ZeF7yd2PLgYpGsJKuzxT7ndM1jutYhw+38ztxRdumOmtBfWcl7Wp0lX12gk/3PTDX6HrHpXdsUKG2+alH0WOWr3il/NnwoUPMJbsfVqjjtA2rnj2hpOc3hP9e3JuR/6xr0ALtyGn4EwEEEEAAgcIIKHB43O6q9NCl3c2YEztntcE+/2xTKPzk4hfcn2e9/4Tw7b3y+n0nHmc7JM+XO8BPLlrinrGgu7va6Uh3cR+zW6ZOv+/HLhjwnVMFDFrAfFCvlop6a0rRpNu+6Tqx6iyqM6PnKfRuaTEHHLC/Czh++m+Pma/e9T3zx/961+Wd+uXrK8rRaMOj839pttqOsM6nkQ13nm67XB49Hfkb98wyk279lvv8P5a9ZMZ98m9d+b4yyjdz97aomoee9JAxn6e937XUa+YP5xoFFDq/6vWx0WdXtE3n8NvItlcvXQM/qqORjtPsT5jUYfafr1q91p1H7z359BJzzFFHlD1U7ycXLTYb395U1VP11nV76/eb7LFLnFf02vp66/3Pfrr0NO6wPv61rvMB++/v6qH3VJ7/Huhv2eg7cM0/3eqOecvWa/8D9mvTviFHH2GPm2/+y35P1C49+8N/D5Tn/od+Zq2nuToPs1v5qn1KWjwfTm9yb9bwHw08+qc9r3tjg/PbaD10HXVe7zHQjgSoPro+f/zju+67uvH3m03fvn3c93Otzau6XTPpVrNqzdpy/vedcFy5FgootMWqLBSI/Phfbi+Xr4P03kknDDU/nPMzl+fXv13mnhAu2zB9zwYt8tF2tVu37nCOCjAUhIXrL8I8vEYAAQQQQACB2gT6dO9mjuuXfP8/y35954QmtbU99qjpX51sbr5jevkptJousdZ21qolHzDErWdo/dDp5SfcKr86fUnrJa6yz3OIlqPRBgUkfpRB9VHnsFrSA7D8FJxqx2Txfr310p3jaNuyqIcvQ1PDevUqLSiPGqnj7E1U7+lfm1yzZ9w18ees9beCiq32uQR+hCDpe6AOf1xQJ7tJ117ugjCdN9pGXxfl/+ynzy0f59+v97fO559Qrel6GnlT0v7Nt02+zmgxv//7n64Z7x7YpqCtNLVvjh1RiZ+qpNG4cNREZdxpFzmrPUp66nPc92T40GPKzzt5ffdi6Ruvu9zl0X8UWKhcHxzr/L4O2nUpi0Xa5ZPxAgEEEEAAAQQaLpAcnjT89O2fQJ1KbY061XaMtI1kteS2mLSd/Edn3RXbyfH51LHxz2jwHVf/mf+tsu6/+7aqT7xVJ0rnUedHQUo0qVx99sisb1VM64gel/Xfvl56eF21eqnDntS2rOqk6/bVSdfH1mPd+so1JXuj3tpqN+k7pe+AvnePzv5W1e+Tggl9l+K+l/oO6DqEW/Z2xFadcC1Cjl5XjUBoRCBMve3omYJtBRPR4/1x/juuNupa+fSTR+aXO/rtPfX54k/t+f7HTVOScdwUQQUyJAQQQAABBBDoWgLd7A4pFUuus3xyXCMo1OEI52mrc3b4Yf0rOj71nHe5nfPt56ynLSuLMuqpc63H5qVevh61+vrj1c5a89RqEndc9DulhfBxd9fj8vr3dGfeB0ONrrP3qfU8Yd1UX00JCwMF34ZG/Q5909g2ql6UiwACCCCAQLMLZNmv73JBQ7NfXNqHAAIIIIAAAggggEAWAlkGDbmfnpQFGGUggAACCCCAAAIIIIBAegGChvR25EQAAQQQQAABBBBAoBACBA2FuMw0EgEEEEAAAQQQQACB9AIEDentyIkAAggggAACCCCAQCEECBoKcZlpJAIIIIAAAggggAAC6QUIGtLbkRMBBBBAAAEEEEAAgUIIEDQU4jLTSAQQQAABBBBAAAEE0gsQNKS3IycCCCCAAAIIIIAAAoUQIGgoxGWmkQgggAACCCCAAAIIpBcgaEhvR04EEEAAAQQQQAABBAohQNBQiMtMIxFAAAEEEEAAAQQQSC9A0JDejpwIIIAAAggggAACCBRCgKChEJeZRiKAAAIIIIAAAgggkF6AoCG9HTkRQAABBBBAAAEEECiEAEFDIS4zjUQAAQQQQAABBBBAIL0AQUN6O3IigAACCCCAAAIIIFAIAYKGQlxmGokAAggggAACCCCAQHoBgob0duREAAEEEEAAAQQQQKAQAgQNhbjMNBIBBBBAAAEEEEAAgfQCBA3p7ciJAAIIIIAAAggggEAhBAgaCnGZaSQCCCCAAAIIIIAAAukFCBrS25ETAQQQQAABBBBAAIFCCBA0FOIy00gEEEAAAQQQQAABBNILEDSktyMnAggggAACCCCAAAKFECBoKMRlppEIIIAAAggggAACCKQXIGhIb0dOBBBAAAEEEEAAAQQKIUDQUIjLTCMRQAABBBBAAAEEEEgvQNCQ3o6cCCCAAAIIIIAAAggUQoCgoRCXmUYigAACCCCAAAIIIJBegKAhvR05EUAAAQQQQAABBBAohABBQyEuM41EAAEEEEAAAQQQQCC9AEFDejtyIoAAAggggAACCCBQCAGChkJcZhqJAAIIIIAAAggggEB6AYKG9HbkRAABBBBAAAEEEECgEAIEDYW4zDQSAQQQQAABBBBAAIH0AgQN6e3IiQACCCCAAAIIIIBAIQQIGgpxmWkkAggggAACCCCAAALpBQga0tuREwEEEEAAAQQQQACBQggQNBTiMtNIBBBAAAEEEEAAAQTSCxA0pLcjJwIIIIAAAggggAAChRAgaCjEZaaRCCCAAAIIIIAAAgikFyBoSG9HTgQQQAABBBBAAAEECiFA0FCIy0wjEUAAAQQQQAABBBBIL0DQkN6OnAgggAACCCCAAAIIFEKAoKEQl5lGIoAAAggggAACCCCQXoCgIb0dORFAAAEEEEAAAQQQKIQAQUMhLjONRAABBBBAAAEEEEAgvQBBQ3o7ciKAAAIIIIAAAgggUAgBgoZCXGYaiQACCCCAAAIIIIBAegGChvR25EQAAQQQQAABBBBAoBACBA2FuMw0EgEEEEAAAQQQQACB9AIEDentyIkAAggggAACCCCAQCEECBoKcZlpJAIIIIAAAggggAAC6QUIGtLbkRMBBBBAAAEEEEAAgUIIEDQU4jLTSAQQQAABBBBAAAEE0gsQNKS3IycCCCCAAAIIIIAAAoUQIGgoxGWmkQgggAACCCCAAAIIpBcgaEhvR04EEEAAAQQQQAABBAohQNBQiMtMIxFAAAEEEEAAAQQQSC9A0JDejpwIIIAAAggggAACCBRCgKChEJeZRiKAAAIIIIAAAgggkF6AoCG9HTkRQAABBBBAAAEEECiEAEFDIS4zjUQAAQQQQAABBBBAIL0AQUN6O3IigAACCCCAAAIIIFAIAYKGQlxmGokAAggggAACCCCAQHoBgob0duREAAEEEEAAAQQQQKAQAgQNhbjMNBIBBBBAAAEEEEAAgfQCBA3p7ciJAAIIIIAAAggggEAhBAgaCnGZaSQCCCCAAAIIIIAAAukFCBrS25ETAQQQQAABBBBAAIFCCBA0FOIy00gEEEAAAQQQQAABBNILEDSktyMnAggggAACCCCAAAKFECBoKMRlppEIIIAAAggggAACCKQXIGhIb0dOBBBAAAEEEEAAAQQKIUDQUIjLTCMRQAABBBBAAAEEEEgvQNCQ3o6cCCCAAAIIIIAAAggUQoCgoRCXmUYigAACCCCAAAIIIJBegKAhvR05EUAAAQQQQAABBBAohABBQyEuM41EAAEEEEAAAQQQQCC9AEFDejtyIoAAAggggAACCCBQCAGChkJcZhqJAAIIIIAAAggggEB6AYKG9HbkRAABBBBAAAEEEECgEAIEDYW4zDQSAQQQQAABBBBAAIH0AgQN6e3IiQACCCCAAAIIIIBAIQQIGgpxmWkkAggggAACCCCAAALpBQga0tuREwEEEEAAAQQQQACBQggQNBTiMtNIBBBAAAEEEEAAAQTSCxA0pLcjJwIIIIAAAggggAAChRAgaCjEZaaRCCCAAAIIIIAAAgikFyBoSG9HTgQQQAABBBBAAAEECiFA0FCIy0wjEUAAAQQQQAABBBBIL0DQkN6OnAgggAACCCCAAAIIFEKAoKEQl5lGIoAAAggggAACCCCQXoCgIb0dORFAAAEEEEAAAQQQKIQAQUMhLjONRAABBBBAAAEEEEAgvQBBQ3o7ciKAAAIIIIAAAgggUAgBgoZCXGYaiQACCCCAAAIIIIBAegGChvR25EQAAQQQQAABBBBAoBACBA2FuMw0EgEEEEAAAQQQQACB9AIEDentyIkAAggggAACCCCAQCEECBoKcZlpJAIIIIAAAggggAAC6QUIGtLbkRMBBBBAAAEEEEAAgUIIEDQU4jLTSAQQQAABBBBAAAEE0gsQNKS3IycCCCCAAAIIIIAAAoUQIGgoxGWmkQgggAACCCCAAAIIpBcgaEhvR04EEEAAAQQQQAABBAohQNBQiMtMIxFAAAEEEEAAAQQQSC9A0JDejpwIIIAAAggggAACCBRCgKChEJeZRiKAAAIIIIAAAgggkF6AoCG9HTkRQAABBBBAAAEEECiEAEFDIS4zjUQAAQQQQAABBBBAIL0AQUN6O3IigAACCCCAAAIIIFAIAYKGQlxmGokAAggggAACCCCAQHoBgob0duREAAEEEEAAAQQQQKAQAgQNhbjMNBIBBBBAAAEEEEAAgfQCBA3p7ciJAAIIIIAAAggggEAhBAgaCnGZaSQCCCCAAAIIIIAAAukFCBrS25ETAQQQQAABBBBAAIFCCBA0FOIy00gEEEAAAQQQQAABBNILEDSktyMnAggggAACCCCAAAKFECBoKMRlppEIIIAAAggggAACCKQXIGhIb0dOBBBAAAEEEEAAAQQKIUDQUIjLTCMRQAABBBBAAAEEEEgv0CZoOPCA/Vxpf/jju+lLJScCCCCAAAIIIIAAAgjsNQHfl/d9+45WpE3Q0Lulpytzy9btHS2b/AgggAACCCCAAAIIILAXBDb8fpM7a+9epb59R6vQJmjo17ePK3PN+jc7Wjb5EUAAAQQQQAABBBBAYC8IbNhYChr6/cXBmZy9TdBw9MBDXcErXl2XyQkoBAEEEEAAAQQQQAABBDpXYMWr690Jjxr43kxO3CZoOPbow43mPmmkYTNTlDJBphAEEEAAAQQQQAABBDpLQH14P2toqO3bZ5HaBA0KGEYMHeTKfvI3L2RxDspAAAEEEEAAAQQQQACBThJ48jfL3JnUp2/YQmid4QMjjnUnWrriVbNh42b3mv8ggAACCCCAAAIIIIBAvgU0yrB0xWpXybPePzyzyrYZaVDJfewqax84PPh/nzJ+y6bMzkpBCCCAAAIIIIAAAgggkKmA+uw/ePhxV6b68urTZ5VigwYVftYpJxht0aStV+f96rdZnY9yEEAAAQQQQAABBBBAoAECjzz+jOu7qw8/+oPvy/QMVYMGzX+66NxzXOCgaUo/ZsQhU3gKQwABBBBAAAEEEEAgCwGNMDzyi18b7X6qgEF9+KxTt102JRWqB0M8+LNflaMWVSLLoY6kc/MZAggggAACCCCAAAIIVBeI9tXP/+gHTVbPZgjP2m7QoIO1oELzo/xTorUSWwsrCB5CSl4jgAACCCCAAAIIINA5Auqfa5ckv+jZjzA0qn9eU9CgpmvY48nFy8yvl75cljhqwKFm6KABpl/fg11Ek9WWTuUT8AIBBBBAAAEEEEAAAQRcX1w38Nes32CnIa0vP4dBNFr0rPXIjeyL1xw0+GsVjWr8+/xGAAEEEEAAAQQQQACBzhFQgDDi2EHmAydlu0tStdrXHTT4gjTysGL1WrNm3ZvuWQ5btm1na1aPw28EEEAAAQQQQAABBDIUUJDQu6WnneHTxxw98FBzrH3ScyNHFqJVTx00RAvibwQQQAABBBBAAAEEEGhOgapbrjZnc2kVAggggAACCCCAAAII1CtA0FCvGMcjgAACCCCAAAIIIFAwAYKGgl1wmosAAggggAACCCCAQL0CBA31inE8AggggAACCCCAAAIFEyBoKNgFp7kIIIAAAggggAACCNQrQNBQrxjHI4AAAggggAACCCBQMAGChoJdcJqLAAIIIIAAAggggEC9AgQN9YpxPAIIIIAAAggggAACBRMgaCjYBae5CCCAAAIIIIAAAgjUK0DQUK8YxyOAAAIIIIAAAgggUDABgoaCXXCaiwACCCCAAAIIIIBAvQIEDfWKcTwCCCCAAAIIIIAAAgUTIGgo2AWnuQgggAACCCCAAAII1Cuwb70Zmv34DRs3maUvrjQtPbqb00cOb/bm0j4EEEAAAQQQQKAQAr6P1++9h5gRxw0uRJuzbGRug4ZZc+a7draeeYrp1/fgqm1e+Owys2rN78yQIwdk0snfsPFtM+3eB905CRqqsvMBAggggAACCCDQ6QLbd/zBzFvwG/P8S6vMth07Szd5Tx5u1F9sLy1dvtJM+5cHzfWXnW8PrQwaltryFi1ZZhRY1FOu6jPn5wvMqtfW15Wvvbrm8fP8Bg1zS0HDiGGDE4OGRUuWm/lPLTatZ5ySSdCQx4vUkTr5qNp0M86oI2V1NO9K+w9q1Zr1ZvBRA1yQ19HyyI8AAggggAACxRF4461N5oZbp7uOfdjqhc++YGbbfuNtE8cn9xl/+4LpZvtDg48cWM6+zXb6b7pzplHQEE3tlfvKmnW2PjOMAocwKZ/6pl+++mLT085caZaUadAw9/k/mb8auI85+hB7RUi5EPAjJxqGU2C1N9Pcnz/l/hFd/7nzCRr25oXg3AgggAACCHQxgV27TDlg0AyUC8e0mn7vPdhstaMN35n9iHnDjhDccMt0c9eUa2I76rtsAc+9tNIFFUOOPMy13pVp8+imptKFY1ttQHGYG73QTVfNenHl2kBl5tcmumP8f9546+1ywKA+1piPnFGRT0HItHseNJNt4FBr2rxzl3nilT+bMSdm2j2v9fTtHpdZrR62AcPY7+60AcN7zONX9iBwaJe+cw7Ytn1n55yIsyCAAAIIIIAAAg0SeGzBYjfC0N8GDNERhRFDh5h/mPx118Gft2CJGWs78NGkTrxGBEadfEL5o+07d9ogYYBZ9fp6862brmlzQ/PEoYPNJV+81Z135WuaCl8KNlSARjZU3kk2YFB9wqR8V9r6LLIjDkttoDLiuCHhx7GvX337v81f37XDrHl7l3no0u65DBwyCxrOPqY0wrDaNvoc2+g8BQ7z7RdNw0SKGpUUoequey3z38Irq0hUd8v1BdMXMlquIs0Lx45OHBrTl3aunfvmo9r26qIoVUnz7+bMW+DOr7/vm1YZ8eq9aFJejTQo6cvuyxpl5/5F12uoPvoHqSE1JS0EL0XOZ7Zpz6w582y5m93ncYaqp9aZuDsBNmr3bvqHo6Rr4YcBx4/7eOwdAXcg/0EAAQQQQACBwgvYQQYz/1eLncO5o9v2S3r1tJ1s2y+bYUccnrZrXeOCBnXglU4febz7rf+or6P+lfJqbWw09et7iOvLqP+4YePvy0GDRijUj9G8mnG2nxNN/e1CawUn6u8sWvJCu0GDDxhW24BhkL35rlk7eUyZBQ19undzgYIChjwFDtPuecBetCXOvmePA93vDS/ZHZLsxVZndvy4T9R8XbbbITB9ATR0pc743HlPVeTVefQzdeLlsV+QWTYq9Qu8o3XRZ9+OGVLT+ZR0zhn3P1Jxvvb+8Hl1nK+7XqszHwYNOs4HFKqX/hHJRj8KIqZG5giePvIEc+WkrzuLEcOGVAQV+oelf7RKPrAJz633SwFDae6ghgKbab6f2kdCAAEEEEAAgQwFbC9dfRKtR1C/Iy6d/r7hrv+x8vU32nysoEMLlZV/SLCewR8YFzCUPtvlFjcrOFDfyKdVr62z/cBNtrxusf09HTfCjjaof7V0RemGqc8b/R0NGH6R49k6mQUNQvBTk/ISOKgjrk68OsmKJP3wkO54q5OsTr+iyLiINHpRw79X2bv2+hk7+gw3sqCOtr48WkijO/pfufP75vvTvlTRGdaohA8YLreBivIqhfmmz/5XW89PhaeyZRzohr/UFuUZ85EzKz5P+kOddnX6Z9hyNWrgyw6/+Dq/DxjUgR9rI3jfHtVHkbkCLwUOPukfl4ItfR79bIKdG6jk5hpadyW5qy7eZ/wFnygHLbo2JAQQQAABBBBAoJqA+iqaCqROejhFKDze9ye279jh+lb+bx2zbfsOd8NyyFGHVdzoDPPHvZ798GPuvP3t2gnfh9RxWpCtNPjI/u533H8G23Mpbdi4Je5j915XChhU4UyDBhWYdeCgjna/vqWRApUfTX7KS/R9bZflO+nRO+W68AoiJtwyw7jOeMzct2h50b81vUmdf5/05dSctouvv8Xd1Y/OqZtrp+wohQGD/la+yVdf4vIpwFFnPLzzrg6+/qGoox6eT3nbSyq7pXtpdEXHhv+AfF5NNVJSe9TR90nHykjt0chAdE7eGBvALLRbk+mzOXbKlgIvTUvSP2zlVQASJr3n26WgJK4u4fG8RgABBBBAAAEEJKAZC0q+H+H+aPOfbq5v8abth2g2SNjPWPpiaXaD1j4kJfV1NtiAQH0ZvVYfp8X2WW770p4bp8q/w/bLlFq67xl9cG8E//F19XUPPnIvu1rAoEpnHjSo0CwDh3Aqi8quNekBbUqa1hN+cXx+BQ6lu/g7yx1d/1ktv6OdYuVRB9/PYdMwmE/68mkEQmn0GSP92+Xfqp8iZx2z0M59i1snEPdeuYAOvFCgohQ3ghG2Z6VdoxBG2cqjkYvPT7rDBV5D7DaqWu8h03BUQseREEAAAQQQQACBtALaFlWppccBqYp4Wlut2pzh1Oy4gubbRdTh1G7dsL3O3kCN60fG5a/1va4YMKht+3a7dmutbUx9nF/j8OqknnWXoTvgSRdrkV3w4jvkYeGaPqSku/R+xCH8PHy90s5NSzpHeKxeK3qsdrwbjrJLHVSmT34xsv7WXfmkpAAjLlU7X9yxtb4XBjZ6oIl+osnXPTzWH6M6XWQXfmuakp+WpNGQRtTVn5PfCCCAAAIIIIBArQJ+0bIWNERvfkbL0LPBlDRbRf0eraPQGk7NxIi7WRzNX8vfWl+hXZK06FlJAcSgKdvc67z/pyEjDVk2uvXMkYkXObyLH3defa4pSFkmDVVVS36oSsGKTxrq8iltXXr26OGLyOy3/lH4lLZemqY03z6ZUYGbRnX8Wg1fLr8RQAABBBBAAIGOCPibkdq5sXra5WaOaLFz2Gfyi5a1NWp7ye2saW9W+6S1r7oxqu1VFVBEg45tdsvWaqnatKRqx3eF9/fddUevhtTTjy4okvLTlRpyonYK1QW+cOyHE4+KW0mfmKGGD/0XXIdqyk7pd3f7dMDPuNfV/qOF2XEpKVCJO76W98IF0drxKSlVq5fWMfiRHo3u+PUNSWXxGQIIIIAAAgggUKuA70cZUwoMwj6WLyO8Edq/bx//ttsCXn+cFjyfofxhOy90Y3TlmvVuypKmLvmgoZZFzn5KVXSxtKZJaYckP9qgLVbzvGNSSNSQkYa4gKGznxLtv1CaXuMvctjwjrzW6IUiSL/IJSxLQ1lKYYd8yFGlx5Urj+bHxeULy+is14fa6UU++b2I/d+1/HajOHahuv4x61HpX7nzPjeqM2rkcKYo1QLIMQgggAACCCDQrkCLnW3h135qzWrcOk+/2FmzHsJ+1iKtZ7A99WpbtbZ3cr916pu7n3ul433/KW6nJl+efy7E4CNKfUD/vn77QEGBg1/f0BUCh/eEjcjidR4CBrXDL3ZRx7baDkvhFKJ62+6Dg2g+/yXx59fnCmB8lNzemoZoeY38W4GNtmJV0paw9SatY5ChHminwEzrGxQY3WSDBxICCCCAAAIIIJCFgDr9ekaU0mO7n18VLVeLnZXCHZJ22QUNz9ldkNQPq7ZVq2ZMaPv4ask/ZyEMRFp69nD9J62XiOs/6X3fH/TrJKLl+8BBN9V94ODXOUSPzcvfmQYNeQkYhBt2iPUcAgUPYdKuTNr5p1pA4YeVwjzh67gytS7Anyc6ujF29/MV5tj5cdGAQ3nUAW9vwXZ4/npfh8N2YV49BVFJdQ93DNB7Cgj0D0nz+aLJt1X/EP06Bg3jKQhR++Ly+DLas/XH8RsBBBBAAAEEEJDAua0fdDdgn7P9t2h/qdSHWWL7fgdW7Aapvp76MidW2Wr1V3YDGD2QVjtJqkzfh/PiCij8LpPhzWBNMRq3e5t6nTu8Iazz3X7vA64sPd9B6ySqpa4WOGQ2PSlPAYO/ONoSVJ1xfQkUIJzktlntbv9+2+29q+Oij/cebKcPKemOud8RKLqFqI829QyDUSeXpuKoo1zaHrbywWauMPsfrbzXkJqO0Up85VM5qovy6kumHz3vwJfv83bkdz/7hVXSegPfntPtuX0Qoy1iW+02sPpHoUBIEbNfv7DQ7kylOikwuCh4crM8/T/YqI3fhlWLhzRNKQyeZKv2z7hfD40rlT3ZTmtS+SQEEEAAAQQQQKCaQC97d9/v2OhvdKr/4PtQyjfOzngI+xTt3e3/oB290K5I6tO4zr8NEjSNXCks9xi7rXy083+SfTK1bpaqv6N+jUZANKvE59PrSVdd7MpK+o8PHMKpSs9+sYfp012hSb7SPv9sUxZVeuKVP5sZC98tL3ru6BoGXTwlzVvzndi4euoLoW2xdJHVSQ2TRhtG2S+EOr4vrXzNvP67t9yx6vTq+EvP/6g5/2PnhFnM/vvtZ7SZrzq3Ok4/qoPK0mt1rg/p3cs9i+D53Q/+UNn6TF+QS8//G/OpSJn+BG4Oni1bxyqP6q3X+++3r8tz1SXntQkY9GUsBRNnVqyT8GW299vZRdpzSO+DKqxkpDarLgouVC/9+Hp90QZfYSCjoEd1UiAUZ37A/vuZxc+vcIajrZ0ztRU9YsChbrhOeXWuTVu2uvxJ17e99vE5AggggAACCBRD4LghRxrdDPX9J/Ul3n33T65Pd9Uln6zo2GuK0Mwf/7vZ/M42c/kFn6jah9LNTV/mpi3bXP/El6t+nfp0X7j4PNcniiqfMmJouf+kPqbPp1kXEz8/rhyARPNF/z7YBgjnnriveXjZn8wau4HQqUftY47rl+lkoOgpU/3dzc73sqzZpLnP/8l86Jh9chkdqaPqn52gTmoYica1XsdrSo+CBX1plDSVSU+RVt77pk107/ly1an20an7oJ3/lCLRnS4gaq8u7RRV08e+PTo46XydUS/9o1IKbd0b/AcBBBBAAAEEEKhBoJb+ivpt9fTPfJ9Op6+lrxhWs5b6hMfHvdasnf9Y999mjA0g8pgyDRry2MAs6xQXNGRZPmUhgAACCCCAAAIIIJBHgfyNfeRRiTohgAACCCCAAAIIIFBgAYKGAl98mo4AAggggAACCCCAQC0CBA21KHEMAggggAACCCCAAAIFFmBNQ4EvPk1HAAEEEEAAAQQQQKAWAUYaalHiGAQQQAABBBBAAAEECixA0FDgi0/TEUAAAQQQQAABBBCoRYCgoRYljkEAAQQQQAABBBBAoMACBA0Fvvg0HQEEEEAAAQQQQACBWgQIGmpR4hgEEEAAAQQQQAABBAosQNBQ4ItP0xFAAAEEEEAAAQQQqEWAoKEWJY5BAAEEEEAAAQQQQKDAAgQNBb74NB0BBBBAAAEEEEAAgVoECBpqUeIYBBBAAAEEEEAAAQQKLEDQUOCLT9MRQAABBBBAAAEEEKhFgKChFiWOQQABBBBAAAEEEECgwAIEDQW++DQdAQQQQAABBBBAAIFaBAgaalHiGAQQQAABBBBAAAEECizw/wEX/i39mcll2QAAAABJRU5ErkJggg==;" vertex="1" parent="1">
                    <mxGeometry x="25.1" y="580" width="268.46" height="110" as="geometry"/>
                </mxCell>
                <mxCell id="24" value="" style="shape=image;verticalLabelPosition=bottom;labelBackgroundColor=default;verticalAlign=top;aspect=fixed;imageAspect=0;image=data:image/png,iVBORw0KGgoAAAANSUhEUgAAAfQAAAC1CAYAAACppQ33AAAAAXNSR0IArs4c6QAAAERlWElmTU0AKgAAAAgAAYdpAAQAAAABAAAAGgAAAAAAA6ABAAMAAAABAAEAAKACAAQAAAABAAAB9KADAAQAAAABAAAAtQAAAADZoWzcAABAAElEQVR4Ae29f7B1V1nneZK8EhLkZ6CbH5FEJVjOCATbqQFGFOyqFigpdWykatQSrHKsGRV1nHJG7B61qsXRGkel1Rn8Q3S0pgScUgcH7KppQekRrNYhCZYKcYBgIEESCEneQOjEd/Zn3/dz3+9dd+199jn33Pv+4Hmqzn3Wen6tZ333j2evvfc597LTp0+fWRUVAoVAIVAIFAKFwEWNwOUXdfaVfCFQCBQChUAhUAiMCFRBrx2hECgECoFCoBC4BBCogn4JbMSaQiFQCBQChUAhUAW99oFCoBAoBAqBQuASQKAK+iWwEWsKhUAhUAgUAoVAFfTaBwqBQqAQKAQKgUsAgSrol8BGrCkUAoVAIVAIFAJV0GsfKAQKgUKgECgELgEETl0Cc9j5FG6++ebVpz/96f24X/M1X7PfppH6xz3ucatnP/vZB/TVKQQKgUKgECgEThqByzb5pbgf+ZEfWf3BH/zBxjl+7/d+74rPxUIveclLVu9617v20x0w2m/TSP0LX/jC1R/+4R8e0FenECgECoFCoBA4aQQ2WqGzar3ttts2zvGee+7Z2KccCoFCoBAoBAqBQmA5AvUMfTlWZVkIFAKFQCFQCFywCGy0Qs9ZPPaxj1397M/+bIom2xfbM+Yf+7Ef2+pOxCQApSgECoFCoBAoBI4Zga0LOi+Dffu3f/sxp3d+wvNcnE9RIVAIFAKFQCFwsSCwdUHfdoIf+chHVr/5m785ul933XXjRcGf/MmfrH75l3959b73vW+UP/3pTx/lXjDw7P6XfumXxhfyaHN3gFU/K2lsp4ix8OMFN99aX+LLi3+8yQ5h/33f931TQ5S8ECgECoFCoBC4IBA48YLOS3Wve93rxslT0KHv+Z7vGbl/sKEIw7/jO75jfKu8fRnvlltuWb31rW8d3zDv3dLnAoG38nuE72/91m+tXvva144XBa0NcdFD5FgFvUWo+oVAIVAIFAIXGgLn9aU43n5vi3kCROF//vOfP/k8m1V3z59inMXcVTm30WlLxOfuQFEhUAgUAoVAIXCxI7B1QWfF/KhHPWrtZ65gehvc73K/+93vPrRi9itv3F7/q7/6q3FFnrfZWW17e9yN4eqaPrbE5cP3xeHpz0q+qBAoBAqBQqAQuNgR2Lqg72riFNff/u3fHl9C49Y5t8HbW+jI+HD7m+L/q7/6qweG99m7Qlbh2PHhTXxv7aOn7bN5+q0vsqJCoBAoBAqBQuBiQ+DEn6G3APELcrwxn0RBZ+UtZQFGlitsbZK/6U1vyu5su302P2tcykKgECgECoFC4AJFYOuCzip4SeF81rOeNTv1djXeGrOizhV2q5/qczufW+/cjudtdz7IvIU/5VfyQqAQKAQKgULgYkRg64LOqppb2hcicRv9la985eTLdBdizpVTIVAIFAKFQCFwFAS2LuhHGfQ4fVmJt8WcFT636bmrwAeb/Ocrx5lPxS4ECoFCoBAoBE4CgUuuoPOjNflcnDfb2zsJP/VTP1UF/ST2rhqjECgECoFC4MQQOO9vue96pqy+Jd90ty/PF+6UFS8ECoFCoBAoBC5mBI60Qp/7jnmCcv311699Mz3td9WmcPMiHLfZJV6U2+Z/uuvf8t4YrU31C4FCoBAoBAqB40Zg64LObe2XvvSli/Kb+onVRc4bGr385S/f/9lWijm/NPdt3/ZtYxSem/eenb/kJS9Z/czP/MzqOc95zqLR8gKBMZ761KeOt/W5vV9UCBQChUAhUAicDwS2LujnI9klY37DN3zDWFwt3Fx4+Nvx+vNVOr/GhgxbCvNS4rfdd7nKXzpu2RUChUAhUAgUAlMIXHLP0Jko349vf4xGAPghG1bS/JTstsSz+Te84Q3n5THCtjmXXyFQCBQChcCljcBlp0+fPnOpTpHVOStxON+b/+qv/uoDv0rHj8zwnXVW7O2v1S3FhNgQt+G3jbF0rLIrBAqBQqAQKASmELikC/rUpEteCBQChUAhUAhcaghckrfcL7WNVPMpBAqBQqAQKATWIVAFfR1CpS8ECoFCoBAoBC4CBKqgXwQbqVIsBAqBQqAQKATWIVAFfR1CpS8ECoFCoBAoBC4CBKqgXwQbqVIsBAqBQqAQKATWIVAFfR1CpS8ECoFCoBAoBC4CBKqgXwQbqVIsBAqBQqAQKATWIbB1QT9z5vDv0aSMdn7aRNQhTz/7yuTIL7vssn3blKOTUk7bfq+dMvy1bdvGVj7lp79c+56/OmPpY1+9vJXbT+44yPRrZcpbG+Oo16/XT53tOf+0yXjmoMy+XLncMdwP0g6blrRTrn+vb6zWpmeLLO0ZJ2Vj5+yfXjxlxtDXfuqV9WJq1/prq2/aqZO3Nq2tfe3Srydr9forl6e8F0eZHL/cnik3JjzltO332inr+WZc2/oYN/2UyVPX+qtr49lXL2/l9pPnGPq1MuX42Za3stFg+KPcfo+bB7ope+Ut12dKnnps3A+0R98j7dRhnz7ZV54y/eCtPO03Pf4z7q7bi35YhuQz6WyTkMDJTVK/lqd+yp9YfP7hH/5hf2z94AKKzRQ5rvr0WafDp43d8+/FwU958l5Mc0s+5aMc22ynr+3U04bMS5uUTc1VG32Ma0z1KW9j6QvXL22mZJmv9jkO8S6//PL9mPSnKP3aWPjkWPTbnNLfMVNmTHyh9NdOuWPpoy361OmHzONAmRwfqY2jXN7zUTfH0y/b+LT9jKOu5dogh9o5K8t5j4bxJ31DfKDpuArTZ50OH8ZP6vn34rTzsd+LmfFtGzPHQ6e8beuXvLVFl3loqwye5NjIUmfcVp/ytM+YtPVLmykZNq0uxyGexyLtOUo/x1aGX45Ff25cx9Rfjp/U+ueY2szJtNmUry3oJmuC7QDqlWuXyWoDBwxPTvhoT1sf2j3Sdp2dvtjpg8z2nL8+2NrGt9dOGTYQMskY9pOrS46+9U+Ztq0Ncil1yuT608+2+pSrN3a7E2ub21OfjKcd3NyMSV8fZRmvjWM/fYhhHGPYh0NpT1956pD19su0xR5yHNrojU+/R0vssUmMM85UDr2xkTkP9RmL9lS+Kbctb2PYb/X2zZm+Mni7fZFJ+thvubbr7PRr57/EXx9sbROv105ZjmnbGPaTq0uOnpgSOkiZtvbRIdMubWm3pD/ybKed8uToc990fGxye+qT8Wgjh9LPvj7aZLzRqfMnfYjJB5kx7Od4yhzXsMZC73GDLmNpK1dH37iOpY1cfdvXPvXKzEmfTfhkQTfpHNDA6BwUvUDoo90U184JaGdM+8n1UZa+6pQZR64PfKlszqeNwbjIpuIbK/NTlj4ZN9tpm2NlO22ynXFsp1+28Wv7yPSjLaUdbfcB9PQh/FrSr/XpjdH60tfO2I6Fro2Z9rRbMlYrt4/eE1nKckzkbRz05odee2TKlaGHMob+yNrxsVXf+tHfhHLMTf2wJw8+ue2XxFmCQRtHH+WMK6lT5rzk2sGXyuZ82hiMi2wqvrEyP2Xpk3GznbY5VrbTJtsZx3b6ZRu/to9MP9pS2tHOfYA+hF9L+rU+vTFaX/raGdux0LUx0552S8Zq5fbRt8dfz6eVOUfj0FeGLWRc5JAxso/cPu0ltLagm0AbLOUmo8x++qhDZpKtzL56bHuxlMNbW2X6yZEntWNlv/VJnTG0SR252NcuuXp90WnvPOyjU5Z2tKVWb98Y9HMs/Oxrg0y7bBsLmZQ+yNJPG/20zX629dcPnrlpq34unr5w/Vp7bVp964PePPSBewDShlqbjGsM7JTThjIv23uac3/Tp7VJnfEcr9UZMXNV1voqzxhTY7fx7Kd9xnGsdozW3n76Gltf+ZQtevz1k+snb/2z3/qkLv0dBxnt7GuXXH3Gb2PbN6b+KVdGPGkqZsqxtZ/xzAu97YyNHEof+trSlvTTNvvZxt6+vplbT5c+2qZvq88+7fQxv7RRL9cHvunxr2/Ow7bxp/r4Sthor2yOHyjoOCYZSHn2uSJzkshTZxK9WMi0bdv24ZBxnPie9KA/MuJlLtrphx6izyevJrWFp13miI+6tLetrTbm0urtw7Xt5djaaZNy245tP3nqHA+98eBikbZzMfBJ215cZYmDPurMIceyra39lqs3FvqMpzxl2CinbW7GUp8+2mMrTuiV62Ms+/CMQ1t/dD3q5eE4jmnMtM1Y2ivTL/u218XQ1zH1U97625drL0/5VBtbdJJjtTmkvz5ug9ZfPZw4fKa2hb7tuPaJ0SPz0d9ctFVvH64tsXv9UXjWThtlyXux1afO8dAZDy4Waas/POW25eq1Ny56KHHQR522+ibXNmXZVm8sdBlPecqwUU7b3IylPn20x1ac0CvXx1j24dgZC44/dknqtZ/SKU97ZS3fL+iZJEbZtw0nKNyPAbWZ6iuXO0mTNK76OW4e2tBPUNfFmtL34pofY6Vfts0jbXt4pL6NR18fY7f2jjPFxcFY+LsjIjPulL9y/fSBt7GV9XLENuXZzzYxIGRQ+tDv2SJfR/h58GRs2/jbzv1mXdzU40++bRzl2qaNstZmSm5s9eY6FVM9fnPzd/xeHMdKrj0yfKDMbWmc0fHsH3y22Tcd2zzsO3f66/KZ0uc8jZvjpF+2sYXSNvFB18bWPu1sGzvjYb+O8M/tjv82GOvHeObQxkaHTD19qZVnP9tpT7uN1bPVZ47jlzgYG7lkO/cbdUu4ubVxlDsXuDbKiG+75eqUZy49WepH3/x/6Azs4HKMenL1cu3gkD69JJCl357H4b9pN9VOL8daEhsb7Y3Rk6lLbvye/9QO0stff8c1bo411zam/ktssdFvif0S27k4jgfP+c3FTd2mc2tzMZbcPHrbCRsoT4KMr625ZCzs2z6ylvRt5b1+L15P1vNFlraOi6xH6HuUflM2+KkTI2SObwxkSepT1mun3VQ7/bCBzCl1bbuXW0/W+tE3vuNpgzxxUA7v5a+/4xo3/ebaxtR/iS02+i2xX2I7F8fx4Dm/ubip23RubS7GkptHbzthA+3q+DfeGHT4Y1+OnLYf++QG5dz1Sdlo1Pw5pWMj73bdIFd88OOrL/jrj60e8Te3ry7/1ANd2xIWAoVAIVAIFAKFwEEEHn7y41YPDZ/Pft1/vPqHxz/qoHLoPfzwwwfuMFDMrb0W9kNOZwWX3X///fuX6DjpiN6+/LLP/ofVI//oL1ePfPetU/FKXggUAoVAIVAIFAILEPjs828YCvtXrM488gtGa1bnFu3ktjHKdjvEoYKOAbccLOxZzB/9a+9YXXHHPavV1VeuVi/6itXqhqfufdqo1S8ECoFCoBAoBAqBwwjcfvdq9c5bVqv3fGDUsWK/77tetPqHoahb0C3acB8PpIy6bD8H2C/oFm6VFnXktK9++82rq94zrMyvefRq9ZqX73GNixcChUAhUAgUAoXAcgTuvm+1ev1bV6uBf/Z5N6xOv/Q5+wWdIBZ32hbvlqNLulwDCjdkAbfAU8wvv+f0XjHHoIo5KBQVAoVAIVAIFALbI+Di+KorV48cFsunPvSJQ3fHc2GdA1m3U0Z7fJ3OYq7Som6wq97xV3uq5z2zVuaCVLwQKAQKgUKgEDgKAhT1Fw+Prwe68m8+eui9NUNboynkfOyrl1+eCgq4RRwD+6fuHJ6bQy969h6vv4VAIVAIFAKFQCFwdAR4F22gL/ibj+3XXOqynxzA+px1O/VjQW8ds0/71J2f3vO59pr0rXYhUAgUAoVAIVAIHAWBswX9inv2vgLe1l/7cKjlOfSB36JLQ4OkcbULgUKgECgECoFC4HgQyBU4bYhazAtykrfde8/R939YxmKeQQhg32DFC4FCoBAoBAqBQmD3CFiH4T4rh1OHewW8lR14hm56BPOjrHghUAgUAoVAIVAIHB8C1F2Kt/U3+ZJRx3W8Vb51NviSQGVTCBQChUAhUAgUAtsj4B1xazGRaCcfO8OfrNvK9r+2ppMKA7Zy9cULgUKgECgECoFCYLcIZM3N9tQoFnb05560Dx2X+jpa1O0XLwQKgUKgECgECoHjQYCaax2eK+ZTukMrdIt48uNJvaIWAoVAIVAIFAKFgAi0hTrrcLan7MeX4nLJriG8DZ66ahcChUAhUAgUAoXAbhGwcBvVOmydlqtPPq7QXeKngiA4Gix11S4ECoFCoBAoBAqB3SLgS3FEtfZah9uanLZmsf8MPf+zC0qvAgyqQ/FCoBAoBAqBQqAQ2D0CWbyJTv3NGmxfmXXaTPZ/WAZBrtRxoN866Fi8ECgECoFCoBAoBHaHAHV3quZazFl85y/H5ejjCt2rAhUWdgMoL14IFAKFQCFQCBQCx4MANRfK2qssC72329WZzalWgEJHucbFC4FCoBAoBAqB84bAZx5crW6/++znrtXqo0P7M59bre6+71xKw/8XX13zhavVE4Z/Tco/FLvhacPnKef0F3iLYn3FFVfsZ2kdplbThrNCl+8bDo1TGqSwV+RTX+1CoBAoBAqBQuDEELj1Y6vVe96/Wt1y21DAh6I+R2PRP1v4b/nwYPkXqxVF/jnXr1bPPvsZpBcqWcDNj3rMR7nF3L528PEZOo1U0s4++qJCoBAoBAqBQuBEEaCIv20oyJ+MFfg2CVDkicWHlfvL/slq9bwv2ybSiftkPaZtce/V6P1b7u2qXKcTz74GLAQKgUKgEPj8RoAV+W++8+iFvIciFwe/NcTmQuEiKOzUYj65Mrc+y53meMvdB+xZ8b0S0LB4IVAIFAKFQCFwrAiwkqbQvuN9xzrMGNzC/rd3rFbf8vy92/LHP+rGI1CLrcfJCUQ/abzlrlEqqPxFhUAhUAgUAoXAiSBAgf2Ftx7PqnxuAtyG/8BwR+AHX753O37O9gR0vdrrSpxa7UdZpjT+9KsBNLCfhtUuBAqBQqAQKASOBQHeVv/p/+Pki7mT4WLip39n7+15ZeeJt6tu0sgiTn22RstN9XINFbQGyosXAoVAIVAIFAI7R4Bizsp83dvrOx+4CcjX337x/7wginpmZk2WtzU7bfd/+lVha2wQ9cULgUKgECgECoGdIOBt9vNdzJ3MBVDUqbnUYSnbyuSt7lBBJ1gW8dbBQMULgUKgECgECoGtEbjQirkToaj/6r85f7f/hzyyBpPW0iJ/qKBTwKuIu2WLFwKFQCFQCBwLArv4frmJXfPo4U31F+x9+BGZoxIXG3xt7jxRW4PpZ5HPdqY4vhSXgmoXAoVAIVAIFALHioA/8rKrQV76T1arFz9r7/Oyr9xNVL4LfxJfn1uQ7VQBb+XjS3EZTwN56qpdCBQChUAhUAgcCQFWv6zOd0WszvNX31787N39dvvb/vy8vKzX1t92xd7qhXL8pbhU4sgPzcDbIDrtgt9zzz0rPtD1118/8vP5J/N53OMet+LTow9/+MOjeM6m51eycwgsxfqcx/G13J6McCFt08zrQjg+jm8LVOTPOwR2easd8F7z8sMQvuyrhjfWhzfnj0o8T3/HX+79otxRYx3Rv1eT2xo9PkNPYRZ3f0HuiHl03X/xF39x9cVf/MXjJ09eXeMTEN500037+ZDbFL3oRS8a7b75m795yqTkaxBYivWaMDtRv/rVr1603Xcy2AZB3M9e/OIXb+BVpoXABY4Aq3Nut++KnvfM4T+rDSv0lm546t7t91a+Tf8dt5zoKp16nDXZlKnN1mdt7Gsz/Dzs5YecDSbXuHghUAgUAoVAIbA1Ajd/aGvXQ44U8pcOK/EpYpW+ixfkXKVPjbNjeRZuQlu0l9Tjy1mF67DjvCpcIXDJIMBdG+7K/NAP/dAlM6eaSCFw4ghw+3pXxItwvdW58a96xN5vtNs/CmeVfkLUK9xtjW6LvqmNv+WexgQ7zlvtDly8ELgQEPjd3/3d/Xc5pt6bIM8f/MEfHNN91ateNfL6UwgUAhsiwFvj3HLfBV17zcEX4aZi8rLcnw23+G8d/gHLUYhVOjFueMpRoizypR5nUaedfYP0ZPvP0NMpDbPYG6h4IXCpIEARv354KZPPXEG/VOZb8ygEzhsCt3x4d0N/99cvj/Ut/9ly2znLW3b4uGBunEFn3bUW01cGR24/Q43/PhWBt95bIwOmU7ULgUKgECgECoGNELj9ro3MJ435vnl7q50X7f7sA3suvBDH/zmXWM3jc9TvlB91lW8+G3CLN3XYWtzyDNf92lpb1NPhONt8nek3fuM3VrwFDd14442rb/zGbxxXT0vHNQZvztO+flh5fe3Xfu2Kt4bPB/Xyec5znrP6pm/6piOnQ+zEihWm4yF39dnD8J3vfOfq5ptvHv2xA2twAq8lxDi/93u/N8agPTfWkng9m5wfenJknB6182EevXm3vuwnfKA2PjFbIqdWzlhTuBH793//9/e3E3bHsT/2tgfjbLKfifcf//Ef72OySb7igg8fiJhgAHc/GxUL/xDT/RQX4m6K31FitHNqcSaf7/zO7xzzyilhd9RzWca7JNq7KIgU8hcNxbklbuVzSx96whfu8fzLC3LvGQr+UX4zngsS/Hfxol3m1rQt2Iqpx9ZkdW1fWw60M5/61KfO3H333Wc+8YlPnPn4xz9+5s477zzzsY997MxHPvKRMx/60IfOnPne/3XvM0TZFf3ET/wE/3B9/DDGL/zCL5wZDvh9mTr48Pxy0bDYpV+2hwPvzHvf+97JOO94xzv2fcltiq677rrRbrhAmDIZ5WC6Lp/h+e1sjHXKzJm5zWHonObyAv9f//VfXzfsGWJNbSswH54zj/vUVKDM27xaW/IcCuz+NvnxH//x1mTss++wLXJbZ5tcxn24631mnIv25CXho3wd781hDmfisT/O5eV+ht06mtvu+C/ZpnMxyJdtMZcvOnFiPObf7idsi6VEvLntug4/xtlFDOcEPhxjjKsseZ6j5rDs7StLMbmo7f7uE+fqiPVkG/7uv+nD8H/9+3Px/7c/6tvgu82Y6fN3d/VjH1V6dowPfvCDY929/fbbz9xxxx1jPaYu33XXXeMxRb3+9Kc/febee+89c9999505ffr0gc94y33IZdg3DxIyrwYOanbf+8mf/MnVcBIYA3MVz4eremk4QEbZcFJXdIBzNcz3dV2t4j8ceKMPOuTEe+5zn7viJahNVi0HBlrYafPBzdUfefjhrWnm9gM/8AMLI0+b8Rb2HIbDiWRc2bBqmLIj7+Gku+IOAvn2iLe8yRkC5+Gkewhn4jPHoUD2QiyS8f1wtyfbnfxbQs92J2+IfMwbHXJyYZU1nIxHfRvjOPrMnbzgktvfvNCxP4KROWu7CefYSWwchxjMm3HYpvCp46eNwTbl+MkYYr0ER8Zi32b8bQj/KfyMqQ34mWuOpR4O5Tlhm23AuOz3xmNM9i/3Pc9RjOX2YEw+aYcO2S6Oeca6aOiT9x891aUvwk2NtIsX5Filk8cxErV3qib7NXNqM59DdXrY2Q6t0Fmlf/SjHz2xFfqAzbjie+Mb3zjkd45+/ud/fv9qeDgIJld9uRIeivUhO1bCwwE4xpqKw+qMPPgMB925JJqWKydWD1OU+Qwn2HGlkLbMkzwcj7G3oczZWGDG6khiZavOMeE5JiuZ4bbhvt3U3MjbWMwrx3G8nPvUHYjMu4d1xiCvHpGz25ScmHdLOXf2ix4xvnNKTLBlDD/aEEeZvMVhKKD7McESu6TMizm0/ti6n6GfoqGI7I/T288YNzFq50dcbJwbtvRbynx72wv7No4xmT/7DZ/e+O1Y9DPn9nhmnMxnal/NGEPxPIRxxpg6J5CL85C3sZiXOo8v+uuOQ2J/XtF7drA6vuveaciWrNDxZoWdK+5N2390y3QOR9GczYP9+7bbbhvrb67QuYP+yU9+8gz1mhU6q/PeCp2rx3Fnb2+5s+Q/qVvuHABTJ/88OQ6rrUOQtSeSQwZnBZxMPPB6J6V1euN6op06kbT59E7WxMrxpmI55hTPGMyNk1SPiO/c4dw6bIk8PSHBe5Tbgnn2iDiONVVEM+92W2SBpUhNUebSK+b6pR3jtpTj9fTaOyfizVHOjaIyRXnRQmFuyf1sKgY4W7TgU9sDudu1t5/lRcHc/NflwzhiBGfMuXjtfO1ngZzDOvfpdpylMXIbtPuh+eScpvLJfQj7Jcdh7xh0zEuSZ8HdtIhi/zv/zzwsGX/qlrsRiLVNDvgwznHQ2Xx6t9z//u//fnwkzjGfBf3+++8/wydvu49fWxt2wpHyFrvtIXfVx8aHE//kbXB0kre77MPzZ1qHAzlVB9rDCWDFB+L22HERL0BJw4E9eZs38+F23rChdNuKDyf11XBi6fo6b5S0h0J5yG44Ae9vA3LpYc3LSIwBfozXI+IMJ/9Rxa3NTShv/RJ/OFFPunvrFbvhxDxpxwtLUm4bZbvmPNKQ5vbHvOW6KU7E54VEtxH72dT2QD4UojElMNNnFAx/eLzCNuXT2y+04xY41Pqrbzk55X7X6qf6iR8xpih17XbNfuLcxiIG+yvEo5l1lGOmbeIG3mDZozyX8aJf0UIEpl6EW+h+yGxXvyB3KPDRBdbdjNSToUfe6k7piMIflMki3jpov0vO28hTxAlnjjyxY7PuBMKBh70Fi4Nv18SJVlqaD/bklQe8MZbyPKm0PhZY5HM5rcPDwtDG30WfE7knQvKgmHuybeNTAC0sc/PBDz1x2OZgfNyUxXkuN+dIPlPznMuVN9GluW2PTR5D+DG2RI5zeWq3KZ+7yJqLJX7kmHm2PszZC77WzhjgOoeNevYL9ic+bSzHxXZKl/jOjffYxz7WcMU3QWDdL8IR6wnD2+/+6Mu1T5yP7i/I/dY75+3Og5bam/U3U0DuM3Tk1Ou2qO+/FDcVJAMeV3vqQFkyHgchxAHHCm+OPNCxmTt452Ks07nSnjsBGCNPBMNzE8Vb8bkTSQY8CtbGYY75lTX6fNwWm86F7ZIXC7Tn8sz4jLluu2feto+Li8Fc/o59lELqOMTiYihXpcaXp2221cOntqnbFr6Utp2XYzHOOvw4vqbGcY5LjglsvNDDb2rcJbGW5L0Uw0vOrv3e+NIJLn0Rjhfe8l+orou/7Qtyx/yVNdNuF9LUZ2XW6raY4zt+D12FHAVtHelfqOSJBu4K73zmOjznGIfnhLOOHv/4x++bOI99wQXa4BEHOO8qX06i3s51ysTnrs3USVSMsedk7AlZ//PJxWWqMOwqt+GZ9X6ooz5C4oKAFbW57wfesrFk3++FzvG3xc9i3ovfk22bay8Wsl3HmxrnopNvWwi/++uXT9V/y8qPyrBiX0f8gtz/+DvrrA7qt70wORhlttervdZmarKrdGQtnUL50EMPHfqluLwiaJ123d/VQTB1xd7Ld1dj9mIvlV1st+DyGTdzBG8+3tIHUz6ssHMVPYdHPrukqFic+NoaX5FaR5z4l578l9qtG3OJPovTEvuj2LANlpLbSnsu0PL2+NQ2xS4fJ+nf4xfCsdXLq2TnEYHej72sS6f3i3BTPvxS3Nv+fE873lJ/wZTlOfk2vyC37YXJuVHXttqFNH0/FvHWRvmBFXoaabB29B0YHOUEgC8nT07WPlPbQUpHDrFkpZAvxpxksdlmcsyHlTMk1rvMmReOjE9R5zY8RaT3UlPe2eDiYeplpTHZE/7j/njcBZ3vsHvRxG8rbHsMeQEFTBw/UxcHbIvjppxDPh7bZNzcJ5dsgyU2m4xfthMIXPOYCcWEeNMX4XLl/LQNvie+6S/IXfuEiYR3I6butrU3Zep6MjK4vK38CHXKAo/8QiRvy1JwLoSDM28fryvqqW9XThca1vmMlgKaJ842VwtNK5/qZzHP2BT4xEj/fPfgQrrdTn6b7I/c8eCTdymc4zqe+G9b/MBOfLkwmirm5KLduryOoqegW9TXjcexPoWfx9K6GOSa2LntjjKH8p1AgFWzL61NmBwQL3kRLh34/faf/C9Wq//+n2/2LN0X5DLWVJuX7Y55hW497qVAXbYma2et1v5yKz0GKqeMdbqQeJ6E1q0i+JUzCi6/YnVclCeF/ApOb7y8hZl+PdvzLcuLpSwmbV6bFicKiStzYnFC9+tejMmt95YYX7w4IWdurS0ndbY5n3X7R+u7TT/3x7mLDfJi3nzyYmnpmPnNkHX7GYVPDBKrLHhz2xS7LHxLc9zGzm96kOccfuQjfnmnizGZK7QuBvNyDPYnLyZG5/qzewTWvX3uiEtfhNNezip9m19x4wW5JRcbS2zM5QjcOmwI67F9OXbokvZX6AhVWuTT8EJtc0vWA5Hbh3mSypw5cNHDtU99tvOkl/JsT43D956NP5cPJ1ljUNT0cQwvPjwRKz9fPPPLr0xlPsyHeW1CvUJCUfS5LturV4i9Fc+26hV9cyAfYvDJlb36Tfm6wpbfe2cbuo3bcRKnLM7a+Vhhal8EIy8euIhifj1ifPW0czt6UYTflD865rErcn+G9+K2+E3NP31b/JbGyG3g/rSreVacDgLPvr4j7Ii+++s7wmMWLfkXq8/+4mNOoh/eAm997lvtSfdX6G0RX+I8F/ikdJygfIbKwc+JghWLJwI4B26uyrXPHLOwsHLmw0nOONp6ouXkSKHBhrY0lY964nEyYnUBMW4vHwoHsf2MxufxT3uhkncXSIs8wR4sLBrMlXm0GC6ZBpgYB6wSY/zzFjG5tL8dTj4UeooZlAVwFGz4x9u4zIe4xGdc4icWbE8vRsjZ/dHhkLH9zQt75tIScgjsvChpMcj9hvmzP2qDHzm6TYiV9vQp6I6DbXvhpH/ODz/k22xTffHn07s4Yju5SkfPuwLYSrSZk7697dqLoT1xaOe+MbUNHLP4jhDgtviSW9b5PHxHQ68Ns25lT04nsELPVbeFnNx5eT0p7VK+4ndh+Uk5fifW/7bGb8ie5G+5T/1s5XBRcSZ/UnI4sSPq0nCy4t7D2g8/CzlFw4ngkH+bGzm04wwn50Mhh5P6IbvhxHFANhSs7s+wEqzN5dAAg2B4iWk/3hw2zNmce7kaO+fWzhsbfmLVOHDyZ05w5UPhP/Rf5trclubNzwEbFzxaIscWU+2TY9ObD/FyzuQ1Re3cM/5QkA+5gUPa9NpzeeU207fFkUF7dton5/joUW4L7HvblDwTJ+zaOYOv47W6HFcbeG+bYsv5aLjY2I+XPtmew68Xg7nlvkqsuRjk4nhTuWKTc+9tI2yg3FZzx+Ge9SX6N3+idernV9/wh2fOfOBjJ/e5+UN7Py07lQ/ydT89e9TNdXZs9qXhHaQz/rc1/vMpP/2a/23N/7TW/uwrPwE7/rAM1f7hhx9eDTkN+++5l+LyCmFUXMB/hgNpNRyc42rGVUqmOxyQq+GkvP/sNXW2hwPuwIpGeXJuzRF/OCBTfKjNWNziZXVlPnKMyYfxyPliIVaewwlxf06s0lypIQcbtgPzZFXnfLf9eh4rNXBiVcaHFWTeGgU7vtoGxvm2tniak3kr34a76s5VsHFcvduHs3+QH3eLxCH167Y/q3aeDffmlXGwIxYr9FyFaoOOlTm8R8iHoj6uWMkztyn2blPazKk3F3S7JLYb25U7GVPzZ94cY9j2yBjsj24D91Xs0XPXCf1UjF7ckh0RgRc/e/g6xV/O/1/yWz68WvG5kKj3P9iPIT9qcNZd23B0uVJvbUnnMlbo/IScBZ02hvRp8x316/+nf7OX+i99zzFMYfchOfnniYfCsMlBiy8HPz6clHuEHrs5G/2Omo9xLiSecwKj3ktF2KDjc9zE9qCgsU0gxuzlNCqP+IdxGI8x2P7r9q3EiqE32R+d15KxnD8+EMUav6WUeTIn/Nu5neQ2JW/n73adymvdHJfMbV2M0u8IAb4vzo/AXCz0vGeuVt/+4uPN9vveMMb/8H/79WPRvuKKK1Z8KOQUcdpw+xjT9mNyY0HPYp4FHTmfi62gO7nihUAhUAgUAhcYAp/53Gr1P/zv86v0CyVlnp2/5uWr1XE/1z9b0D/0w/9sderUqbF4wy3YFHM/vaIuXONb7hgksUIvKgQKgUKgECgEdo4A3/1+2VfuPOyxBNz0+/A7SMJb6VN12Hptsc8hx7fcFWhov3ghUAgUAoVAIbBzBHiWfgJvjR8p7+dcv9mP1BxpsIPOWcyzcNNWB7et9+U25OncGmtTvBAoBAqBQqAQOBIC/+VLjv9W9rYJcov9P3/Btt5H8nNhnbXYgFmTe/r9FTpKK75OBjZY8UKgECgECoFCYCcIcOud59NLvpu+kwEXBrn6ypN5bj6RjvXX99nsp3lbq9Xt/1Jcz0mj4oVAIVAIFAKFwM4RYCX8AxdQUT/PxRx8XXnngrpXn1PvdhkLuh25hvBeIO2KFwKFQCFQCBQCR0KAX2mjqB/3m+TrkrSYr/vVuHVxjqh39W2YrMfI7Pdq8/5Pv+qcHAedU17tQqAQKAQKgUJgZwhQRE/i62FTCXMx8d99y3b/3GUq5hZy6m1bc63DWcB7dgx36KW4LXIol0KgECgECoFC4GgIUFTHf386/JDLSdKLn7VXzM/3HYJhzhbttqgnHNhol3LapxT0AiCbctSveCFQCBQChUAhsBMEeFGOX2V7xvCPXN7+F6vV3fftJGw3CAX82180fH1uGOsCo6y7bW2mr8wabX+/oDMfDXm7DiKohqOg/hQChUAhUAgUAseNAP+jnM973r/7wk4h57fZWZlfYGS9lVOD/ShrU075gYLec0RWVAgUAoVAIVAInDgCFvbxH7Z8aPinLbetVg88uHkavPD2tCcMv1D3VRfkijwnlDXXYi3XDhtkcuWnFLAq18mAco2LFwKFQCFQCBQCJ47As69frfhAt35s73P73avVJ4db8p+8/2CRZwXOrfunDS/aXfvEvRfdaFPULwKyDvdSVSdvbcZ/n2ox91a7xnDbrWP1C4FCoBAoBAqBE0eAZ94X4HPvXeDAItqP8bIGo6PvYpt/2JI09tLAdgZJh2oXAoVAIVAIFAKFwPEgQO3N+psF3kKu3r6ZjAU9hbSp+srkOhQvBAqBQqAQKAQKgeNBoK25Fng5em0s7Gay/1Kcxigw1lCuQ/FCoBAoBAqBQqAQ2D0C1tuswRZvR8OmvdWu7sAvxRkE7vN0DYsXAoVAIVAIFAKFwPEhkMW7bWef+kzfjxnt/3MWBRhwBeCVgvLihUAhUAgUAoVAIXC8CLS1t+1b2JXLyWr/GbpGCLNNv6gQKAQKgUKgECgEjheBLM6OZD1WJ1euHXws6O39eB0w6DkhLyoECoFCoBAoBAqB3SJAzc0aTJuPtVjOqGlH/9Atd4SQTq3Dnrb+FgKFQCFQCBQChcCuEcjiPVV/lVunzWFcodPBII1sa1i8ECgECoFCoBAoBI4PAQt0yxnRGm1ttp/ZHHjLveeUxtUuBAqBQqAQKAQKgeNBwGKdj8Ep7vmZG/nAS3FeFeBAu3cFMBesdIVAIVAIFAKFQCGwPQLWYeuvRV6ekbVVNj5D3++c/V3YdGwdtC1eCBQChUAhUAgUArtFgNW5NXiKO6J6+/u33FFk8dYQ/tBjrtqzv/UO/YoXAoVAIVAIFAKFwFERuP2uMcLnnvSFhyJRk6nB1mMMaCP3k07dl+J0wpGrhdPP+Ed7PvzbuqJCoBAoBAqBQqAQ2A0C7/zLMc6D/+gxB+JZyNvC3SvyOu4XdAQYSgaj/5kbzhb0d9yy9/9nNSpeCBQChUAhUAgUAtshwP9zf8/7R99Pv+BLxwU0tTepdws+9Vm3DxR0izjcqwCCPfj0a1af/srrhsr+udXqF95aRT3RrHYhUAgUAoVAIbApAhRz6ulA1NeHHnv1fkG3qGexVpZ12rZDX3bvvfcOPnv/jEXuD78/9NBD4z9pGf9RywMPrv7xm/796spPDElAz/uy1epFz1qtrr1mr19/C4FCoBAoBAqBQmAeAR5d8z7aO943LJIfXD34pEev7nzlf7K67Oorx4J+xRVXjNyVOTzbWdgZyP7YzoJuIZdT4CnqDz/88N5/XxtW6I/7079dPe69fzefcGkLgUKgECgECoFCYBaBe577Rat7XvCM1ZlHfsHq1KlTY3GmoPOhUPeKea7Ks5gz0P4KnQ6Fu12lU9wt6LYvv+f06pr3fGhcrV9512lciwqBQqAQKAQKgUJgDQL/4TFXru774ietHnjGk1af/aInjMWbwu3KXG7hpg9lcadO02/psvvuu+8MhRqC+8Ehi3vefk+5dhR9yD7J0F5C2LVXGsYyzpx+bow2dtuf8211U77IpcxTecq0g8/FSx/t5BmDNraO1ep6fePA2SnSN3WZw1Qc5I6fHLmxaB83TY01JW/zWWrX+mWfGJJY0O/huOl4xs5YPZnjb8unYpqvfNv4Pb+pmMrlre+UPO1am7aftuvaU77IpU22z1y8Ng79KXt15rCOGwdex/8eWmKyDrs5PTEgtofbxDZysKafnDafXJ2nPu1tO0Zy2tAp/mBIIYfrRD8TdBDs0dn3AoCEsDeOHPs5wodYPUJHPlOU+WEzZd/aGY/Y6qZ85+L24rT2xmeOtvVL3hu/J9OnjZUYpl+29ZWrS4xpu32163F8c8y0MS4y2i3leK1uk/7cOOvG0FfOuG0bWcZBn7K0R972R+P409NnzCl95hDhuuMZI+PiY5/2VDx0UsZp7dVpm1xdy9Mm29gt2Y/Sxza+kPk5pnp5a6ccP3VTvtjO6dBnnNbe+HX8g8weub3sb8tzu4izsdaNoa8cv7aNLOM4hrK0x7Yltrm2cD7KaOdtdfXJjdfK6E/RWNBRYpQJGiR3RPTawDnxJ6lDln70U0dfQg61SZpP+tme4saEa9O2tTH+VF95+hOznVdrZx+7Fh/n6Ng9nuMZK2Xr5qVt+jpu+mqHrpeHPsbRxn5y48IhbTNG6vTVj/5cG72x0i79Up5tbJJSZ55TeuRpbx+ur1yZNubb6yOTtGMcyTGVaaN+HddfO+PYz3jayrVZwjfxmbJFDmVO9tGln+0pPgY6+0cbutnWhvGQS21fOVx/eB3/icxeO/FBIpa5TcW6ldk3Bv5t25itLvutj3GxSUo7bOgnpR55r49cX7kyuD7mAM8P+1D7wQ9Z66NMOXZST3agoGNIMgQxKZ2RcVudqwp0WazQ2UdnHNsMnG1jytGZXLZbvTEcTx/t4D3/lKfeeOZHXNvpYxuu3rEzXtoRi4/kWPT1VZfcePLU0U65MY2Xfdv6tzbK5eSKT5uz8p4uY061ja/ePvFamTq4+afNElkb137rm3LGUM/YOaa5KEu/tG397WdsY7Qx6UPGtg3XP7eDsoyH7RRlLtj0+hnL+MYzLzl6j3ds0lcbx1BvP23b+PT1V5cyY4AF46+LNRVDP+PRp01c2zmubbj6jGE77YjFR3Is+mmvXo5dO4Y6uHrbcOM5hv7opNZGuZxc8W9zVt7TZcyptvHV2895KEuec1G+RNbGtd/6ppzc1DPWXK7pl7ZT/sRqP2LsOOqR2zZ22iBbR6d00JA+yTkoB46TcONqS98X6dTlxLKtj9wx0saxkdG2L9cXbn7KsOkd5PrKtZf38lDX+rR97eTr9NrBsYVy/qNg+NPGYa6eQFudPi1myNNPO/nc+GnT5uc42iSf06XdunbOMdvpNyVPm7atjxz9pjlP2WdM4rZ9ZEnoIePB52gu3pwuY87Z9XTKzNFYyNm31CuXI4d6x6M2xCRGztt4jmdfri8c3yRseuPpK08f2r08tGl92r528nV67eDYQjn/UTD8aePkcdzq9GkxQ55+2snnxk+bNj/H0Sb5nC7t1rVzjtlOvyl52rRtfeToN815yj5jEpe+RNu+bbaN+zAy2qmzbYylfH+FTqKQgUzcQenThmfbN/CUO3DbJy4yCE5/KaXvnI+5z9moc3xzQm5ecm3hczm0OvwTK8cijrFbn7aftvgkzm4TbCTj0rdNzBxbW8eCz50EjQV3TGIvJWxbHPTPvMw345pjymy39vbl2rUcvfNodW2/N37KaOdFFv45fo6Vcuz0hUsZWxk85Rkn22lPO3W0IeJkrFE4/ElbZfCeber1k6fOdmKd8eZ89E2evilv29jxWULakYtkXnLl8LkcWh3+7X5vLGO3Pm0fe23hdfyL4DlclCRO4DhF2OU+OWWHvLc9UkZ76vjXDm6bcWlD5kBfubbZtz06nf1jjJRle7+gI8SYSUs6O5gnf4FxQi3H3zjGlBs7eavrjZf2tLGBHGfsDH/m5NrmeLZbP+XGXcen7Nu4vTj6thxb/fVjDj079S3XtpXbd+ei71jipE3G0AZda4dMW+1aG/VpSxtqdcj0Tx1yqR1Hu+TYGoe2PrSl1CtruTGVJ3bKWpspub6tPXmYn9zc0rbVOU7ytE857Z6/MvSOSTvJmHJ1bV+5fE7f6ujzyfONceTooTbPObm22LTt1i9tHHOOT9m3cXsx9G05tvrrR949O/Ut17aV23c/pO9YYqNNxtAGXWuHTFvtWhv1aUsbanXI9E8dcqkdR7vk2BqHtj60pdQra7kxlSd2ytLGceBtW1nKl8ZjLP0cV37Z/ffffwalRdmJ2ceQNnJ18DzY1KV+f4A4eOZkUzpyM642Pe4Ee7YZI9sZpydXJk972im3Ldd2XR87cs6N6Rz0Ta49POX6IE/SBlm200adsoylT8u1VW7fWBkjdVN648jTh1jIk5QpnxqvjWc//fAF/6kYOS5tx6adcey3cRwT/Rz17DbNrReDMVt59ts29s4hdcZR3+qQt9Sz6cn0a3VtX7uWYweZd+ozRranbJRrK1cuT7ltec8GWatH5jamDTkHbZPP6Ufn5o++iLPdmO3vx8gdn7Y+LUcHKd/r7f3tydbp9ZGnPfkgT1KmPHNOuzae/fTD9ziOf8eQkxft/KQsawA29rVv55V925edPn16mM+5VTltPgSxqCtr+wTJwm5QuX724cRFnqQMLpkD/Z59yvXX177xjGUc5dqnXl90aacNcttyZEnIpTaeOmNnH5l44q+Otva0pdQja21avX7aoscn7YyhDlva7Fxu/9bHeNrCpTaeY2UM2tnXZslBZp7J9UsZ+eQYtpNj045tDP3FwH76GEtd9jOu21g93DiOp33aKBuN40/6t+05nxxLP/NweyvPOMjS11S0tZ8+yvS1D1eW/sZH38bRTrn+2EL2006Z+tHw7B/HSt7aqUNuW342zD5DLrXjqsvcsKXPx30Dmbbq4UmpR25MbVq9cm3R45N2xlCHLW33h/SlLaWfMnjKc6y2nX3z8TjOeG3bPJPrlzJzMbbjJcdGfRtD/3XHvzHw7xHjQXBt5MrTxrb5aAPv0aGCjpGTgmcbHRNqZW0fO0mdiSlPjg16eU+Xsrbd+jkmdr24aW9bjo9tuTK480DX9ud0o3H80VZRjqUMbv60p2wyF22WyogL6bfXO/c35dk+Z7GXozt6Oy/s2lyQtXZt7LavD/LUzbX1gWsHT/nYCb19bbSnPxVDG7dVctsZN2O18uw7XtqnLG177d7Yytqc9VfvCaQdr/XTXk4c2lLaK2u5Y8hT35OlnnZrQ18yrzYn+/rKM14rQ5d+bX9Oh22StspyLGVw7NBBUzbqtZXjY1veyuhDc7HxnbNBX8f/QaxHwIY/4g4XR2UcYynrtYmT8qnttD+et9zdKXSwj6EbS1lyBssiTx+9NiStP7FMDj1t/dFB+qedcngbN+1sYwf1xjA+enPTz9j2M0aro68/dj3KsVo9vpBx27axzQU+hSO+c2Ohh1obY5ODOmXY9+SZr7atLP2IA03Zokv7qTywS+rFS322tUWWY9HP8dQhl5BJxtFOjp6224y+cWn3SL0xsXGsVtbaOq72bXztkZuTMjk623JlcuPneNrCtcv9Upm+jj8aD3/0Myb99G/jGyf9iGXclNt2rN4Yxp+KgTzjGKOXhzk4XstzrFaHL2Tctm1sc4G3OKXP3FjYQa2NsXOOyrDvyTNfbVtZ+hEHmrJFl/bY2UcHZfw9ST+eupY7NnJjGzPHU5f+2iEzjnZydLTdZmlLG9LXtn14ttXLcwzt0E3RuEJHiaNkkFZmPzmD0FfW9ompzPgtb4EgVs8HGTSlb+Mu6c+Ngz96DiTt5G1s5JJY2F/CwUA/OX6OJ+/Fcmz97KctOmOo11673A7K9JnrqzNe66O+x7WVp80SWc8mY6xrp3+21/mhX2Lfs0EGJV7ZH5Xxpxcj1GNzzqYdr/Vd118X23kQp2fbk+WYud9pK087ZBDj9fRpu7Tdi+M4xKBdx/+52tDilVi5H7Q2c9tCW3naLpH1bDLGunb6Z3udH/o5e3StTcpG5dkYKXff1leecn17fL+gq3Sj0DdIypSnrNduJ2vSGZM2X8fIK0/i93zTDxuptVW+hB/F13zmxlkSP22yvS4uenI4CvXG68kYI+W0lbHtprDAzpPh6LDgj7GdW9tfEGLfBF/jKJyT9XT6tXwT26W+vZgpm2q38df1p+KkfC7GnJ37QmtDH1IP51PH/7l9tMVsahskllM2S+S98XoyYqXc8eF1/M8jzcUqBE4u2uTIE8spjD1msF9Hhwq6QQmSlP1sT9mk3JgpW9Le1m9J7CU27fhLgF1is83Y6ZNjtDmmXa/d2mcs7Fv9uhj469ezXSKbGnNKviTmUWxy3GwTs+3PjSO2u8AoxzFuypa21+W/Tu84bQ76tXLs1em7lG/rtzT+Ort2/N7c2hhLbFqfXr8dO21yjDm79LHd2mcsbFq9fsnTBn8I2baU8TLGlDxtjqOd42absdr+JuPrCzeW3O2gTSsfHRb8OVTQWx83mAMmb22zr1/KMtmUt+3WzjHX2U3p23hp19OlzLYc32xnLNupp52r1FbX4oS+pdYGvXY9Xeuf/RxfecqMiy5xt528568secZHbgzajqcMnoRe/Iwjb+3opz9tr5BTrl8bZ67f6owhRw8tGQe7jDfVnrNrdfR3TZmXWMJT3o6JDlqKQ+tPv43vmK1tazeln7Pr6VJmW97Lb2pcbd1/7YtNxjQGspa0T7l2PV3ate2pMY1jXPyQ2bed3Ni9mOrgrd4Y6uDK4En4ip9x5K0d/fSnfb6Pf3LtkXNo9crxaXW9OK1scUHPgdogvY2hvRwf2mycvOWQsbSV65MbSXtsIHXGVq7dpjzHTt8p+TqbKT93NnfWjNNr9+Iok/f8ejLsIbGjnTGm2thNUfq0NnO61ta+PuRoGy4pp498br/SJuebsoxv3N520Q7fJH1S1rbT13Zy7c1RnfLkOR52SeqMkzrayKeOv9b2KH3zlxOL9tx20lauT28u2EDqjK18VG7xJ8dO9yn5OpspP7dDbz/LmLZ7cZTJtV3HsYfEjnbGmGpjN0Xp09rM6Vpb+/qQo224pJw+8rn9Spucb8oyvnF720U7fJP0SZltfZJnO32V67sNX1vQp4KaCHwXlJPJdi+2Y2PXAt/z7cmM0Yu/Tpbxst36tWNsYmusOZ+lNm4jYkm9uL18sU+5sYyTPO2Q98ZIe9utXdufslN+UrydH+OmzLzFyD68JXXYzhXYjE8MYzlGq2/H6fnk2LSznysa5fI2dsqX5NH6Zz9jZTttbDsWdnX8rz/O3FfAS+phLK5pQzvlxtImedoh742R9rZbu7Y/Zaf8pHg7P8ZNmXmLEf0pUpf+U7abyDcq6B/9tbeuHrzz7v34lPJM2dL+2Oc+c/XEl75gtDPhdpLK94MNjZ4s9b22cdEJUtp94LW/snrgb29fPfkV/3T8qLvt9W9eferf3bR65uv+q9XVz/iiUXyU8XPsdXHGnG69ffXlr/9vVlc+5YmmtM/xzxMrCufx5b942CfHyzZ+bR8ZlPJs72kP/8UGcp49H2XyjNKTpT7b2EKOlbp17U3GaWM5LvJ1Y9/73vevPvi631g94snXjNtxnX2OZY7y1NludcRXBpfG/fhdN61uGPbjR92wtx+ruxB45vypd928+sgvvXn15H/+T1f/baxSfQAAEu1JREFU+BVfdwhjbafyfuj+B1Z3v/3dq0//v+8fj2lOPlc86qrVFV949eoJL7xx9bgXPmf1yM7xNBWvla8bn3PfX3//z41uN77ldSN3W+T2XxenHbft498e/9i4D/TsHb8du+3rm/Jsq285NtDUOOiMI0cm9WTqWt6O1ern+puM08ZxXOTOs7Xp9Tcdc1P73phTsgO/5T5lpPzemz6wuve9H7A7yy3oAiPXqe0j78m0n+LrfB6+/zOrB++4e/XQfQ8cCMHJYU/+mX35ulj7htHo+fRk4bIac4oLo9TRxj93LmQP37c3D9ot5XjZxq7t65vybKtveWvT9rFXJs8YPVnqs72JbfrRPjnfy/YvbjcdU3t5O4fePNwf5PqM+/GwL7FPXYjkHOEPnz57LA7HnvLMuSdTz2Lizrf80Yr5Qlc/49rVqUdfPVSR1VjcbxvOTbf96zcPC4nnr657zbeuTg1FflOaG99YuaBB1vPpyfRfwvFvtzN+PRnyHC/brY6+lHbZVt/y1qbtY69MnjF6stRnexPb9KN9Pnw3HXNT+3aOc/2NCrqBvuS1r1pdOaxMpujKp0zrpnyOS/6073r56olDQb8QVy8Hbm+sA8BbIfJ19qU/VgQedcO1K46DK77wqmMd5/M9OAWcVTF32TjnPO27vmEs2m3BZqFx19v/dPWJYQV/39D+ijf+i62K+hzep4ZtzTYvKgQuVAS2KuiPee4Nw8F1+FbxhTjJx9z4zNXqxgsxs8rpYkaA27xPGlaDRceLwK2v/V/GYv6k4RHe01/ziski/ZjhMR+fRwznpY++8a0r/L789T+80+S23eZclDwwPGK7ergIbC9EdppgBfu8R2Crgr4JauzM3C6+4tFXjTszV9LctmJlw6rZlb47vTqeic2RcbAhBgdzj9rxezZLZZkjPnPjGvOBW/9udXpYXUDk6HzV9/gmPjw2gLwrQv/hAfOrm+ep5A5m3Jptse/lQBwesYyxZ/BFn7gsiT0GPfvH7WP+9D83jH3FcDu1xSq3+aOGW67tHDMube0zpxYvfZC7jyqTT+mWyrGb2iY8V4aOa19yDsnJx22b2KQN7Xbb9PBsfezju8nc9EvOapsxweZLXvudqRofl/UwvXZYwd930/tHP3ynzgsHgg2dPObmtgXYQe6vYyf+iBEix/7LV/+rEUsuMJTlvrMLrCKFan4eI3DsBZ0r079+zc+tnvbqb1h97uN3rz7xtnfvw80V73XDVfdjnvtl4221fD7FQfXl//qHD53UseEWXNoScMqel4buGk4MX/Kj37l60sv2XtTbT2CDxieHF48+NLwExcGXxAHKC0ntlTd22OOX9JTh5bwpwoeVBSeFpDmfD/70r69ODxg/a7jF+MHX/fq+b548pnLn5Pe0V788hxrbPIu8883/9oAcfJ8+PJtsL7S4Fcr2aHFh9Yp9i8uBoEOHkz5583Ii2/Sjv/YHYyyehX7p2dubyHNuxmAMHqmQW9KUPfMFWz7/6bvesO+C/U3f+toVd3PY55KmdOvkTx5e+uKC4yOvf8s4H3L0RSriT2Hc2+fB9iPDNsljhxjMn6K2lKb2L3LjVjar4CS3zXXf/4qhSN56aF+e2n/ufMu/3d+OxmOMTe9o8Nwcym3C/nbb69+0v58Tl4UB+7jblH363vf+3LBvvXe/gJpHy+cwGV+YbS6M2U/abUlM9oep8xIXTVyQsELXljjsI1y4ss8ncbxz7BQVApsicOwF3YQ+PrzQAnGwUQQ/NRyAHPi3DSc8nk1BPpv/+CDnAOUk3t4286AhjieITw5vq39kKNzo8qQ5Bt3BHw5WCi0HMgcaJ35WuuQ4dXuPfNDz8s61Y9F54urTw8rhY2cLVi8tfCg2jx7i40MxXOdDHE7q4oIveYopOZg7J+3Hf/WN48kHbG8fcuGiim8ASBYaZJ7gT//t34348lb3o9547q6KJzFOWFzUMC4yth+rK/JfemLiAoJVo/m7kuGE69zMCZnPSxlvah/hooALEOaIPfM9KaLw8BIXGDzxJc/fe4Hr7OBinNtZjN83rOZufMtPjX7m+tE3/sFYzHNf0h4slpL7V37jA/zYF9i2XFizDVtiHuzvHrv3DvsxRQg8H33jlx0ommx3LqKZNy+nHdjfhnksJY4DcuNYMyf6H/jRX9nPhVUyRZ99nG0sue/c995bFU3yFhPmyTGH/K9e8z8f2hZTgdxHPS8R5863/N/jcfD4YR/k09Jdb3/PeLGHD+9kPDT4MJ87huOHY4qL1aJCYBMEtiroN73ixybHyJVVGnHi4aTvCo+D7sE77xpXaBSfXJmg+4uX/tBY3PDj5AB5kDMGqwOJK1pumbESx8YDWv1R+Sfe9qdjiL1VzLnnplxxO2bmyYmHExsnIuZl/tg/aviKHHcsWkqf/yhWifg8cojzgeGCYh09643/cryASDtOTFDiy4mQFT3bkZMyeJrjXcMdlL07J+dWCOTw4B13DRcvFJY/HS82iPmpP7lpPCHxbFPMic3J6d5XfGD19wMGSws6xfza4cQGxkngCDatjvHIk4vC3Obat/th2mf842qTEydxVmZiy1jIuXihOLfbmeOA7cxJ/brXvHJMjblj39uXkPX2pak5uU9SaCW2F4WDos72fPK3nru404YcuFC2sI7beni7nP2hXQW7qualNO1zf1t6AcLxDD162M4SOJALmHqxSS43veK1A8YHX07kHZ8lY4EJFw2JCfs7j33YtzgeepiYE5zFCXm15yUWKMjR5/lBX2TXff+3HojvNuV4eJqGxQuBhQhsVdDHr4zEFXGONfU2OYXMYq493//mth4HrQe/ukcPL96h+9xwQJx6xl5B5+C98c2vG591aifXn8KzipOA+qNwDmhOIDxjbenKpzxhOGjvGlfJnrg5MUKshJTpxxw42eCT5EUDPi1RGHo+aUchZLsksYrjhJKrHPUUQ05AnLR4LDKepFUOvD0BccdgCgNOfknE/opf+xcpWttm+7XFHKe737Z3MfXEl527kDIYuJD/J4bVt/lTYCBP+NrCuQjE/qSo9/UpTu4QeLbEfNhfPjGs3Czo6/Yl3iXwHY02Xtvn2OmRxw77S496+4/HOatKiX2ND8e6MdWxT/Ddcy4ClpDFOOM8cDY/tzVx0HNsXPnkJxwIy/FFHkuI1XRL7Isci71jvrU9ffbiA5xa4ncKoDyPaQMm7cUCF8OQz+q1LV4ILEFgq4L+zJ/m9uoTl8Tft3nEsBKYot6Bx84OPTS8UJfE1T6rHE7cHIicULjlTFE6LrIosxp35cCJC+qN64lx6qUtLlYefPvBgu7JahOfnK8n2JRZaB86/cCwEt97Hpl6x2ROniQ96fIiD7mMF2/Dcz5OVm1uj/+aG8dnwbcPJ2lWFNjyQzmcxIgnbjnmVPvxw4+C9Mhi5QVP2ngidp7obLPKaol9at2FUeuzbb9XBIkl5twmthC0Y+Rz8XX70lXDNhKjNk7b99jhVnAeOxbP1t5+rpKVeXzah1uErupgj763jyJfSg/e8cnRtB17D69zBV3M5s45jsl+yvmEVb77O5xcwWsJ+eNQFO2W+AodZGFPPRdjLbVza/XVLwTmENiqoM8FnNLxTGiK5nTpw4nHl8YoFo8YrsrhHAS0H/rb5c8TM+66NsXbZ2Q5Lgdpr6Cvi9fTW5x6uiWyHoaunshxLs88oT9luBtBLly8sJp0RUkOvLPALXQLNasjXhziYoGTIh8JHbbtXRn1LV93Ilu+svvsGNoc23EulD74njTdPnydyxew9la214zHDj/OsgvyIncq1rptnH5uvzwurr7haeOdLfZlL0AZk/2Xl8skbpNDUxeJ2sHZf/d+be/mQ/v70pfTnjBcjH502N/vGN414CKCu0PkxD5LfvlIK8eudiGwawROrKDvIvF8gYVbYh70xKao8CLScdCtw4s4HJjtc1zG4hlmFrIcP1da6+RewW/ikzHn2rxN6y3cOTt0nHS5VcyHkxInT3LipOcz2HxZh9vEfCBs8eEigFvb44tWb9lspT4Gav6Q01e9/ecb6XyXPHL/mLee1hJnl+SFFy++bXKX66j7BduOYk4hz/cpmNt4MdZ5r2PTebfPsVv/qTm0dvS9G+RqG9ljbvyyYd+6ebgr9KbVl/7oqwbJZav/73VvRDXuo3Dmwr7HPHuPXbBJYt/yx2Lc3znWN3k5jRg+/mGf5yP54qP94oXAcSJwURV0b3fz3Kk9WXsrc9dgcRLiliYniN4zXm8z5rg8QrhrtXd73mKX+t5qeRufjNlru4qZutDhxEX+3J4GT/L65PhVn703l5EZA/7nw4uKFAYLOi8pcRL0ebC3ufXhxEpM+70c18nw5STN9vU39/XxBHxqeLdBXW8Vp/043+bdBXXwXA0q720rddtwi/in/uTmQ89Picdccz672i88drhQY19OUpeybdoWYW8ztzHybk+ra/tsd/Y/CjjbmTbH/V1/+Kfj1zTf913/anQZj8vhK7Gshv/shd+zL+OiZR2NFzLDb/JzF4ncc39nX+ax05LHGRwT7Os8cyfO+B7PMDjfGjjKvr8u/9IXAi0Cl7eCC7nvbbW2iFKwOPC3oaWrBm5fc2JJ4iCmSLT0pLMvcHELrtUv8Vk6Tjtu2+dkZ0HkxbEk8uIxQr4lzbicGPkqXkvevs9iwD+3wZ4TY0tLcW392r7/E6D3lTPu2JB/Pot2Vdabg29gt2OwsuRk/tkBk8R+xKPz7kHrv0nf/Hr7AYWB+dwxXChJ2+xL+vZ4e+ywH5DLLsj9jZjtPtGTrRuT9znYj/iqp/QVv/Yvx9vk/K4FK2vepueCkjYyLljyDXv9pjj7L18jPArxj3qgvZdn+QbOy8dPFfOjoFq+2yCw1Qo9byn1BuWFIFdxPf22sscNV9KcKPiKjV+H+sywcrvzzX80vpA1FvZ/d/PqMV/Z/z5tjmth2nt+dtP+bbe0oc3tNK7geYmJefM8DLpn6HMCphBw4qfNyZq4+HC1zomSosmBzi31+4YXx1jV6jMGOvsnfVgZLPFJ/6k2JzrikTsrp0cPqwZOkn4FiMcI5ANxAvICgK9P+eyP1TH2UL5tzvdn+QEPbHmDnFUyWIiNJ/jRccs/PLfnO+Ss7pgH44MVMvYFxrBIMgR3RNo5IOe/dLENp7DHB/04xjAm//jDOeO/K2LlB25ccLhvMJ8Hbv3IsL/sfW/dOx6Mia61Z19iv+cipzefXq7eEuYFRt7c5k5Bbld86PNyY+9t7V7Mnsx9ggsTth0XZI7TuwPSi6GM9zl412D8XvaQM7Eh5tLe+fI3KfRdwtnm41csz55TOL+Ap/kS49rhImEdjXcmhjzZnvkiHduOt+8f/8LnjvvkujilLwSOisBWBb29+m6T8HlwKz9qn5dU+BlZf8zFeBRPCiAHFCf+x3/1c9b+Khy/GsfJgpUDxdjnaMZMzvder3j9VaOdtw058PkOKQczJy+eT/KMzwsFVgoc0OTKRQOkz7jyG06sLeEDcSHQ+my7kiIfVixgwzz5QOYCbkm+JISdc037LJ6cELU3X2Px7PBLf+xVdo/EHYOcTr/+3FerGINvXLTEtmQ1nnNwvvkfu9KPbXzmdWfGOz2s2iDnQJHfJfkbClyUJG6Md/0PvHJ/H3JM7TfZl/SVs63EJS/InSP7B48X+DbBUQp67hPgzwdiHAr0kt9TMGeOH26dkxsXL9xd8La2NnJ03DGCsFlKN7zuv97fV8wVX/aXLxme04/Fek0wzkt3D9uSX2xMevj+4c4hF8/DhRrb0AuStKl2IbBLBDb6f+i7HPgosShu3jr0+S/xKJQU/LxKXjeOcZb4OC4H+yOG75/D141LTj6HzVzn8trGZy6eOvIgdpu/+uSZA/bkPkfGxmbpPOfi9XSZ05IxetuLH9PhO8r+TGg7jvPgQmjJPtH6b9r34njJeJvOv5dLxmjH5FiY+j37Xqx1sk3mNheL7cjPvfpYLfdH5vO54etscIhi7oXxXMxWl7hk/Nau1/eX//LnlrUj91tf+ytjse/ptSteCOwCgYuyoO9i4hXj8xOBdQX98xOVi2PWXCDw+xNcdFEoJR718ANP5+vWNr9qyW8wTL2Ix8qfx4Q848/HKeZfvBDYFQJb3XLf1eAVpxAoBAqBpQhwO5/PhUi8Dc9FBnc9Wrrv7EtzR/1hnTZu9QuBFoEq6C0i1S8ECoFCYAMEnjo8Hx+/cTE86+fHbPjlOJ7/8/U1XoTlzgKFvn2Rb4MhyrQQWIRAFfRFMJXRpYIAz97b3/2+VOZW8zg/CPBSHM/deRGTF+CSkPMy3JO/9etSXO1C4FgQqGfoxwJrBS0ECoHPRwR8Sc9fBDyJFys/H3GuOfcRqILex6WkhUAhUAgUAoXARYXARfVLcRcVspVsIVAIFAKFQCFwgghUQT9BsGuoQqAQKAQKgULguBCogn5cyFbcQqAQKAQKgULgBBH4/wFQiALq4FCXoQAAAABJRU5ErkJggg==;" vertex="1" parent="1">
                    <mxGeometry x="450" y="200" width="331.49" height="120" as="geometry"/>
                </mxCell>
                <mxCell id="25" value="" style="shape=image;verticalLabelPosition=bottom;labelBackgroundColor=default;verticalAlign=top;aspect=fixed;imageAspect=0;image=data:image/png,iVBORw0KGgoAAAANSUhEUgAAAvgAAAC4CAYAAACW5ZimAAAMQGlDQ1BJQ0MgUHJvZmlsZQAASImVVwdYU8kWnluSkEBoAQSkhN4EESkBpITQQu/NRkgChBJjIKjYkUUF14KKBWzoqoiClWZH7CyKvS8WFJR1sWBX3qSArvvK9+b75s5//znznzPnzr1zBwC1ExyRKAdVByBXmC+OCfKjJyWn0Ek9gAiMgAYYBew43DwRMyoqDMAy1P69vLsBEGl71V6q9c/+/1o0ePw8LgBIFMRpvDxuLsQHAcCruCJxPgBEKW82LV8kxbACLTEMEOJFUpwhx1VSnCbHe2U2cTEsiNsAUFLhcMQZAKhehjy9gJsBNVT7IXYU8gRCANToEHvn5k7hQZwKsTW0EUEs1Wek/aCT8TfNtGFNDidjGMvnIitK/oI8UQ5nxv+Zjv9dcnMkQz4sYVXJFAfHSOcM83Yre0qoFKtA3CdMi4iEWBPiDwKezB5ilJIpCY6X26MG3DwWzBnQgdiRx/EPhdgA4kBhTkSYgk9LFwSyIYYrBJ0uyGfHQawL8SJ+XkCswmazeEqMwhfakC5mMRX8OY5Y5lfq64EkO56p0H+dyWcr9DHVwsy4RIgpEJsXCBIiIFaF2CEvOzZUYTOuMJMVMWQjlsRI4zeHOIYvDPKT62MF6eLAGIV9aW7e0HyxzZkCdoQC78/PjAuW5wdr43Jk8cO5YJf5Qmb8kA4/LylsaC48vn+AfO5YD18YH6vQ+SDK94uRj8UpopwohT1uys8JkvKmEDvnFcQqxuIJ+XBByvXxdFF+VJw8TrwwixMSJY8HXw7CAAv4AzqQwJoGpoAsIOjoa+yDd/KeQMABYpAB+MBewQyNSJT1COE1FhSCPyHig7zhcX6yXj4ogPzXYVZ+tQfpst4C2Yhs8BTiXBAKcuC9RDZKOOwtATyBjOAf3jmwcmG8ObBK+/89P8R+Z5iQCVMwkiGPdLUhS2IA0Z8YTAwk2uD6uDfuiYfBqy+sTjgDdx+ax3d7wlNCJ+ER4Tqhi3B7sqBI/FOU4aAL6gcqcpH2Yy5wS6jpgvvhXlAdKuM6uD6wx52hHybuAz27QJaliFuaFfpP2n+bwQ9PQ2FHdiSj5BFkX7L1zyNVbVVdhlWkuf4xP/JY04bzzRru+dk/64fs82Ab+rMltgg7gJ3FTmLnsSNYI6Bjx7EmrB07KsXDq+uJbHUNeYuRxZMNdQT/8Df0ZKWZzHOsdex1/CLvy+dPl36jAWuKaIZYkJGZT2fCHYFPZwu5DqPoTo5OzgBI9xf55+tNtGzfQHTav3ML/gDA6/jg4ODh71zIcQD2ucHXv/k7Z82AW4cyAOeauRJxgZzDpRcC/EqowTdND+5fZsAazscJuAJP4AsCQAiIBHEgGUyC0WfCdS4G08AsMB+UgDKwHKwG68EmsBXsBHvAftAIjoCT4Ay4CC6D6+AuXD3d4AXoB+/AZwRBSAgVoSF6iDFigdghTggD8UYCkDAkBklGUpEMRIhIkFnIAqQMKUfWI1uQGmQf0oycRM4jncht5CHSi7xGPqEYqoJqoYaoJToaZaBMNBSNQyeiGehUtBAtRpeia9FqdDfagJ5EL6LX0S70BTqAAUwZ08FMMHuMgbGwSCwFS8fE2BysFKvAqrE6rAU+56tYF9aHfcSJOA2n4/ZwBQfj8TgXn4rPwZfg6/GdeAPehl/FH+L9+DcClWBAsCN4ENiEJEIGYRqhhFBB2E44RDgN36VuwjsikahDtCK6wXcxmZhFnElcQtxArCeeIHYSHxMHSCSSHsmO5EWKJHFI+aQS0jrSbtJx0hVSN+mDkrKSsZKTUqBSipJQqUipQmmX0jGlK0rPlD6T1ckWZA9yJJlHnkFeRt5GbiFfIneTP1M0KFYUL0ocJYsyn7KWUkc5TblHeaOsrGyq7K4crSxQnqe8Vnmv8jnlh8ofVTRVbFVYKhNUJCpLVXaonFC5rfKGSqVaUn2pKdR86lJqDfUU9QH1gypN1UGVrcpTnataqdqgekX1pRpZzUKNqTZJrVCtQu2A2iW1PnWyuqU6S52jPke9Ur1Z/ab6gAZNY4xGpEauxhKNXRrnNXo0SZqWmgGaPM1iza2apzQf0zCaGY1F49IW0LbRTtO6tYhaVlpsrSytMq09Wh1a/dqa2s7aCdrTtSu1j2p36WA6ljpsnRydZTr7dW7ofBphOII5gj9i8Yi6EVdGvNcdqeury9ct1a3Xva77SY+uF6CXrbdCr1Hvvj6ub6sfrT9Nf6P+af2+kVojPUdyR5aO3D/yjgFqYGsQYzDTYKtBu8GAoZFhkKHIcJ3hKcM+Ix0jX6Mso1VGx4x6jWnG3sYC41XGx42f07XpTHoOfS29jd5vYmASbCIx2WLSYfLZ1Mo03rTItN70vhnFjGGWbrbKrNWs39zYPNx8lnmt+R0LsgXDItNijcVZi/eWVpaJlgstGy17rHSt2FaFVrVW96yp1j7WU62rra/ZEG0YNtk2G2wu26K2LraZtpW2l+xQO1c7gd0Gu85RhFHuo4SjqkfdtFexZ9oX2NfaP3TQcQhzKHJodHg52nx0yugVo8+O/ubo4pjjuM3x7hjNMSFjisa0jHntZOvEdap0ujaWOjZw7NyxTWNfOds58503Ot9yobmEuyx0aXX56urmKnatc+11M3dLdatyu8nQYkQxljDOuRPc/dznuh9x/+jh6pHvsd/jL097z2zPXZ4946zG8cdtG/fYy9SL47XFq8ub7p3qvdm7y8fEh+NT7fPI18yX57vd9xnThpnF3M186efoJ/Y75Pee5cGazTrhj/kH+Zf6dwRoBsQHrA94EGgamBFYG9gf5BI0M+hEMCE4NHhF8E22IZvLrmH3h7iFzA5pC1UJjQ1dH/oozDZMHNYSjoaHhK8MvxdhESGMaIwEkezIlZH3o6yipkYdjiZGR0VXRj+NGRMzK+ZsLC12cuyu2HdxfnHL4u7GW8dL4lsT1BImJNQkvE/0TyxP7EoanTQ76WKyfrIguSmFlJKQsj1lYHzA+NXjuye4TCiZcGOi1cTpE89P0p+UM+noZLXJnMkHUgmpiam7Ur9wIjnVnIE0dlpVWj+XxV3DfcHz5a3i9fK9+OX8Z+le6eXpPRleGSszejN9Misy+wQswXrBq6zgrE1Z77Mjs3dkD+Yk5tTnKuWm5jYLNYXZwrYpRlOmT+kU2YlKRF1TPaauntovDhVvz0PyJuY15WvBH/l2ibXkF8nDAu+CyoIP0xKmHZiuMV04vX2G7YzFM54VBhb+NhOfyZ3ZOstk1vxZD2czZ2+Zg8xJm9M612xu8dzueUHzds6nzM+e/3uRY1F50dsFiQtaig2L5xU//iXol9oS1RJxyc2Fngs3LcIXCRZ1LB67eN3ib6W80gtljmUVZV+WcJdc+HXMr2t/HVyavrRjmeuyjcuJy4XLb6zwWbGzXKO8sPzxyvCVDavoq0pXvV09efX5CueKTWsoayRrutaGrW1aZ75u+bov6zPXX6/0q6yvMqhaXPV+A2/DlY2+G+s2GW4q2/Rps2DzrS1BWxqqLasrthK3Fmx9ui1h29nfGL/VbNffXrb96w7hjq6dMTvbatxqanYZ7FpWi9ZKant3T9h9eY//nqY6+7ot9Tr1ZXvBXsne5/tS993YH7q/9QDjQN1Bi4NVh2iHShuQhhkN/Y2ZjV1NyU2dzSHNrS2eLYcOOxzeccTkSOVR7aPLjlGOFR8bPF54fOCE6ETfyYyTj1snt949lXTqWlt0W8fp0NPnzgSeOXWWefb4Oa9zR857nG++wLjQeNH1YkO7S/uh311+P9Th2tFwye1S02X3yy2d4zqPXfG5cvKq/9Uz19jXLl6PuN55I/7GrZsTbnbd4t3quZ1z+9Wdgjuf7867R7hXel/9fsUDgwfVf9j8Ud/l2nX0of/D9kexj+4+5j5+8STvyZfu4qfUpxXPjJ/V9Dj1HOkN7L38fPzz7heiF5/7Sv7U+LPqpfXLg3/5/tXen9Tf/Ur8avD1kjd6b3a8dX7bOhA18OBd7rvP70s/6H3Y+ZHx8eynxE/PPk/7Qvqy9qvN15Zvod/uDeYODoo4Yo7sVwCDFU1PB+D1DgCoyQDQ4PmMMl5+/pMVRH5mlSHwn7D8jCgrrgDUwf/36D74d3MTgL3b4PEL6qtNACCKCkCcO0DHjh2uQ2c12blSWojwHLA56mtabhr4N0V+5vwh7p9bIFV1Bj+3/wIYh3yYrIjABQAAAIplWElmTU0AKgAAAAgABAEaAAUAAAABAAAAPgEbAAUAAAABAAAARgEoAAMAAAABAAIAAIdpAAQAAAABAAAATgAAAAAAAACQAAAAAQAAAJAAAAABAAOShgAHAAAAEgAAAHigAgAEAAAAAQAAAvigAwAEAAAAAQAAALgAAAAAQVNDSUkAAABTY3JlZW5zaG90yNbeZQAAAAlwSFlzAAAWJQAAFiUBSVIk8AAAAdZpVFh0WE1MOmNvbS5hZG9iZS54bXAAAAAAADx4OnhtcG1ldGEgeG1sbnM6eD0iYWRvYmU6bnM6bWV0YS8iIHg6eG1wdGs9IlhNUCBDb3JlIDYuMC4wIj4KICAgPHJkZjpSREYgeG1sbnM6cmRmPSJodHRwOi8vd3d3LnczLm9yZy8xOTk5LzAyLzIyLXJkZi1zeW50YXgtbnMjIj4KICAgICAgPHJkZjpEZXNjcmlwdGlvbiByZGY6YWJvdXQ9IiIKICAgICAgICAgICAgeG1sbnM6ZXhpZj0iaHR0cDovL25zLmFkb2JlLmNvbS9leGlmLzEuMC8iPgogICAgICAgICA8ZXhpZjpQaXhlbFlEaW1lbnNpb24+MTg0PC9leGlmOlBpeGVsWURpbWVuc2lvbj4KICAgICAgICAgPGV4aWY6UGl4ZWxYRGltZW5zaW9uPjc2MDwvZXhpZjpQaXhlbFhEaW1lbnNpb24+CiAgICAgICAgIDxleGlmOlVzZXJDb21tZW50PlNjcmVlbnNob3Q8L2V4aWY6VXNlckNvbW1lbnQ+CiAgICAgIDwvcmRmOkRlc2NyaXB0aW9uPgogICA8L3JkZjpSREY+CjwveDp4bXBtZXRhPgpURkIlAAAAHGlET1QAAAACAAAAAAAAAFwAAAAoAAAAXAAAAFwAACwl/7IMjAAAK/FJREFUeAHsXQmUJUWVjdq6G5tFRx3HBUXUcUZQVEBFoV3mqN0groDoKAo0uOOuM+CcM2fGZsaDjiKOOrKpxwUBV5Zul+MZm1YUVGQbjwsqoBzXow3V2tW1zbuRefO/H5WZP+vX/1X1q290/x+ZGfFevLgRmXXz5cv4Qzt27JgNSkJACAgBISAEhIAQEAJCQAisCASGRPBXxDiqE0JACAgBISAEhIAQEAJCICIwND4+Pjs0NBRmZ2eDcuGgeaDzQNcBXQd0HdB1QNcBXQd0HRjs64A8+LrTEwJCQAgIASEgBISAEBACKwiBFsE3D7658Ku7pnLho/mh86MKAV0fdH3Q9aHq7Aj2iFzzQ/ND86MKAZ0ffbk+tAh+FfA6LgSEgBAQAkJACAgBISAEhMDAIKAYfLtzVKyhYg0Va6jzQNcBXQd0HdB1QNcBXQdWynVAHvyBuReToUJACAgBISAEhIAQEAJCoDMCLYKvGKi+xEAVQyB8ha9iUIvTYc6Gzg+dHzo/5pwWxQGdHzo/dH4Up8OcDZ0fpedHi+DPQUwHhIAQEAJCQAgIASEgBISAEBg0BBSDb3d+irlTzN1KiblTP3Q+63qm65muA7oO6Dqg64A8+IN2SyZ7hYAQEAJCQAgIASEgBIRADQIFwecdP+tqP/MACI8MAc0HzQd4hJg0HzQfNB90Puh6oL+PQEB/D5bn34OC4PNEVS4EhIAQEAJCQAgIASEgBITA4CKgGHzF4OsdBPNM0wOhPPNECAfhoBheXRd0HdB1QNeBwb0OyIM/uDdnslwICAEhIASEgBAQAkJACMxBoCD4vFNnDe0vz5gqjU+GgOan5qdiwBUDruuhrodAQH8P9PdAfw/m/j0oCD4vlMqFgBAQAkJACAgBISAEhIAQGFwEFIOvGHzF4CsGv/CA0ROmXLG3ir0d3Nhbnb86f3X+6vxd1h78q666KmzatCnePmGb6Ygjjgj4nHHGGTw0EPn69etL7UYf0T/0B/1SKkdAOLXjUjWf2mtpTwgIASEgBISAENjdEBjaMT6OW91KD54VhKUoB3lJST0Gxx/D/umnnx6JcZXHYqnspz2+/T333DMS+C1bthR4o3zTmWeGM+2DvuDj77yblC/F+JT1z9vdj/INGzbE8Qd+hx9+eMTJ49vv9peb/rL5RNyZ7874YLzU/6W5fmv+5THRS/T3U/gLf13/dP1flh58knt66cu82vDmghR7kh93lvHX2rVrC4Kfmskbl7q+8mYmld1d9jkvQPDLcNpdcGA/6+YT6ygXAkJACCwXBG761Q/Cp6+5sDBn0/POLrarNrqRqdI13+Ow9aJrPhbFDrz/QaHKXtp406+uL5o4/nEvCy963Ilxv6meQrgPG2d8/vWFVth14P0fXeyv5A1gj/FBKus3x44YVI0xywcpX3Yx+CTuIHDe002PhM+3bdsWQPqQSH59eZnHdSnLm3hcy+zDjUyVh7+s/nLrd6/sKfPg7079T3Hsdj6lerRf/QRzd55fmheaF72c/8PDw/Fv9bPPeXLM8fXO5743PPIBj7EHbeUx86jjyTFI84sff1KYmZlpe9JdJb+Q47D3U9+5oJTge70XXfvRog7sZSLBx3nURE8/zzfY9JwPPIWmRdwfte9jFwXHfvbLj0NZO+hw3fxBOQj+GZ9/AzZj+tLrvrFicFl2Hnx4JZF27NgR805f8HyD5POGoFP9JuX0pm/dujWsW7duXt7iOtluPa686eFNTJM+1NWps7FODmVetl/vQPg2PP698uBDfzdj2wmbpuXsX9VTiKb2pfOJervt20LlOT+q+tUUH9UTAkJg5SEAAjYyMhLefslrjFRlnm54xc98/vsjwS/rMUj20e9fVxSBNP/jE06OBKw42KcNtH3D7d8vnjjA4522jT558g5T0CfUfeT9HxNAopE66YmV+viV4rjpee+LtuFGaSUn9PuT3z6/uAFL5w/H2BP8y07buijzazFwX1Yx+GWe6iYxtOtLYrNxZ0ePL24WQHqgnyRmfHx8Tgw32y8DnuQ6vWP09rG9VB6y+JR5XCFfFoNPUp/q8vvxpmbz5sbvSOCJB/QSA6+rU/9Irr0Mt9m/9A6aT1j4JMbjz/Y8fnX2bbZ+Ur5pDD7bp32dxqfKfsqn5diH/VflT5IwHrDT1/NPmGg/cUNOHDCvyuYfdOJGiu8c+Pnn51PV+Hj93i7q8fPP28XtOnnffjpfy86vqvYNMDOjwoNnx1UufDQ/Bv/8AJnC5/rbvtfmMQWhmp6ebrtuYrxR90Yj2Gd84Y28HIXNb/pWrIv6MfXp+gDduBnBB3YggQxPTU3FaxWfIAzbteto90QCBPKkJ7+6qDNt9XH9qtIzC4Ld5+vfkNmPa6+/UcKTk0c/6JAwYzjaFXZFXn/jfLN+fyIh+C85bGMx3zB+12OOOQ/+5a+/KpbHQe/T/OL1zIDv6/gvKw8+vfckFRHgBl8krKnnkKQH+kCekFgHJNEn1mUdkCrcFCBRts4uT3DQBtvxstjG8bRtynr96BPbxzY+Xi/s8t5t7NcltoE6tA05dfN4ahuOp9hQHmW+f6lHH7ohW4Y/dPj6rAud1M+cbWAf9WAjy1C/KlEn2sc2PpCjLI9Bvkynl/e2pu2xHvSm+KH/SGnbOMZ+wT7uQwfnHsvL9KI+PfgoR13k+CD5vvl5FQvdVzov2DaqsP0q+bR9yLD9FAeUKQkBIbD7IgCSCdI1Ojoa1r/nsAIIeJMZplMctA3U995xeMbPeuGHIslOPc+Msb7xV9dFz3kv4stha0rMcWPBttmfZ53dWvkOfTnkIU8oCD7rRrLpbhS8Ht9nbi+kP6kssEX7qZ0HPfDg2BeQzSaJen3dpjhTtpfj4+3gdtoO+viJq89r8+CD4PtxSW84QfBR3hQXtr0c8/YYfLMQQ42JG+8wFnkfHkEkkIPosVxg+95jG0mKEamy/oHIkCChHoiz77/3LMNDm5ZTHrbTc+nlfTkIEPpXVo628Unxp3xVeVo/3ac87IMOkDjfPj3dZeV8uoAyW3FpDn5bjTQD57LybVaGpyvoMwjnFsPucNtO7cN+enNXZR/aaTo/2H40DnIl7bN/cVys3M8Pyhe4mw5fbv77uE/8oKPNg2/lfLpUp9+qxVS0484/ysd5Z/p9+zxfIBzH1cbWl9N+lJfJc17ANsivS/RDHvhg7MrkO7VPfMrG24+vypfmeqvxKT+fNR/7Nx+HzSMOgv/Wz7yqLUwnvthoRNNfv0Cu//mzryvqwTv+0ieeEr2rIGCYv5+uiH/HNQ/1jz/05XP+3tx8x/WFxxZ18OIlXkBl2BDl4N39VMVLtjf+8rrwDvdkAe2liboxn9IblbL+dtsfP1/P+MIbin54e2ALXxbG8ejBN/I7jScIluqux8Are1G19QJxFMq/iFfZ9aTT+Bx4Pwtl4jsYsMM+ncYHN3rvfO774vhzvvg4e28btlHfj23hwbcyPN1A+FSpBz+Zj2X9Y/t1+PnxWez6y9KD3zT+Ph3IdN97nut0puQy1YN9kBzoi0Qt8f43kactZfL0okaSZuQ7TZ3K0/rpPtuu0o/6Vf1r0jb1g3ijf0zUif26tpu04XWl7bC9NPcyde13sr9OFm2ynbKxpe4qHSwvk+2ku8m8I7Zl+pvI1/WN8mW607HQvhAQAkIAZAfE/Qe3frcgVSBg//GCcwqvKlBCvdTrvOXNVxfeexAqT8qrkCXJZjn0gpyT0KXEF/VwDC/yIqXEHO8LIHkd8UDJVyc96INP3fRnvvKsjycNTTz48IgTK8qW5SnOqFNHur0O2MInAWXjAxtI0CGH+eLf22jaDmRh5+7rwbfJH+9EliBHOAo8wSQLvbCDHnyQK3wweVK9JEAkYGm536c+3CzweFO76+rRk1plZ6fysn7RPuT0tHq7fXkn+U7lVfbRs40Tq+3JRjIOxLXwzCflbL9pPdZv2j7rYe55DzyPV41L2k4qj3IS+Kr+d5p/dfOm6biW1WO7Tc63KtyptxM+xEn53OtPL89D4St8l/t8wt8CEPw0TAceZb+qC+p54gZSx/Ac9NETb9RFOTzxCAFB8t5qEMgD7ndQ/PuPc6SOnEMPyCZepkVdH96BMtyIICGs46Y7sqUXfVuURx2+ZFumhwSV4+X7Ctm6/oCktj2ZMDvL5DM9jzZy3E6QcZwx+HyXgXb4HDdYfsWjTN9ByGLypBsHPM519qBuihmeaAAnpE7jgzq80UrnAcr8GPh2UEaCj36jPXwqPfhW3+OBuoO2v2w8+PQUYhDqvO0ob5pIruo8viQ6JPh1usv0zUceHk8SKt9OJx2dyr2udJu4lrWb1m2yD31IIJ7cxj62Uwybtk1PcKdxL8MfbVelpu1X1ePxtF9pe6xXhjFtrupbk7GtmjcLwa1Ju+wn+5CeR2w/PU455UJACAiBFAEQxzRMB8QLXnMQKCSQqdM/d1rhuUU5wnMQmuNXRUFdlOHFVp8u+MYH20gklj5EQttpzDWOUwfaRxskvinB/89jPoDqRWw+7HzGWY+Px/AFknvoQw+L/eikB+VoL/WS05ZCqW2U9YdYpWS6TP5Nnzq1wJJ21nnw0a+UPKd6r/3p1W3efRBrEm9P0nH8v178Ed+dkMriRWv0Zz7jg/r+xWE08JW3fqe2HfRh9/XgGzRtMUJ2Q2UYxpMNYM6JQepxOT2CLU/uwtqf43ks6d+mTVn8fdus6LDj7aN8JIFJDLSdI234oX8kgRHPvLzKA075TuXFnWVN/5rYVzW+8GSDEILI1iW0gQ/t2bYNYU0b4rF4vMS+rVurY/jZf+ojDh7/uvnZpH3I01OPsWn34He2v04e9qP/wC168Ev632T+FPMmeUegOJ6800G8iF9xHrh3EEjw68YzLUvfYeD5WjwZKulf3fjQvsJeyS/p9bfq/Nf45J47zc+ezE+QuCxM51ojiNkKOSCBPkwHdTx5o8cZpNgTT5JO/D3FBwnzFR9PauMTAov1Lou5LnSY7plcDz28VQQf+kdGsDrNcHjmu58Q28UX2gHBz8g7bhSy9fpTPejr7CwIfvuTCugASW3Un33x+wHN5f2NSIanxeCbfUiRjyC3D/qG5G8cCoxyfIgxbjxwgxKfKJjMoyyuHwnjiw+I/OMe9sQ5/cFx/w5DJPiG//zGJ9iLw+tie/jaZNgfkt9cYR/dwPj4eUCCn41vVl7twcecyvBI8Yn7pn+5ly8bDz4GpFuPIAgUyFma6Hms8p6iPutAvkxHqhP7fvUayjfxYlZ5Ykm2IgnvcQx+nXe5rG/pMcrjOPHhijLcr7KfslX9gk7WgS5gWJfYThOsve669n291IamttXV4/yomoPsU52NVfOm6niKYVkbtAt95jimcum+n/co4/la1bdUXvtCQAgIAZDDMk8tvN944RLJk3jsM/4e2341GB+OgTKffHgGdCMECG2nHnwQanrbSayRw8aUmMODj7okuKhz5HufVDSLdh6z36E5wc9uOjrp8S8SN+0PiCrCiJC8PI6//IhXxicQ6AMSbAXZfstFryy8+LCzzoMPm/0NFuofvP/jC73USRzQDkgzPmgX7UEHyr97y7dRHG8YkKehPTjGlWsg02R8IJM+yfnyW74d28f4INHGj1714eJpDgk+65S1R1uIX1Q2oF/tq+jYYKBTAGYpcnoaQXbwaWrHXM9uZj/1FR7Gkn6l5Ge+/a6LkU7tn+Nxze2h/VX97lSetuP352OflyMOJHEkoDzu8yr76Bmv6hfbm+MJLhkntMd2Wh78+nnatH3WA9Ft9+Bnv5ScHqfdzKvkUU4i3W0MPvpdNW+a4sbzwOO20HlPu3Ddqzu//DwhXsrr563wET4r+bwh8RsbG5tDOssIPkjZCU86NZJmXG88wcd+k0Rih7qeQIJQv/v4D7etb099IKkpwc887xlxx3mKvnh7+KQBRJepTg90eIJOmU65749vH8e50hB0YB7BRnz8D4yldvr5xvHxBB83WCTwtI16kUMeH/xOABL6xR/3KiP01MGcITqU8y/28uYO+nlzBTl/E4hx9O9ooC7t8y90Ezf0BW2VtefXwYce1BnUfFl58Os8oZwIZTlJaOpJJLlKj3sd3bZJHU3l6+qlZIu6mXcqZ72qvAqfqvo8Xmcz6yAnzrwJYBnl0+MsZ075Tp75pvWot2n7rAciDxuYqo6znDnHJ5VHOW2umoOUrcMI41emu+m4ltVr2jf2sSwv01tWT8eEgBAQAh4BkC/E4X//59cUcdwgaYxx96QV3uP4o0y559yXQaZJwouziL0GWfOED/LvOva/I3GkVxf6UA82pgSfHnwSPtTx9qSe8U56IP9Pl7628Gp305+j3nd4AUHavu+Lb6esHpXAZh9Dj+Nl9VGPH9QBJvggefIdD+Rf7B/Gwz9hodccePgbMIhd8YZtc8YH9bwHn+PIJwiQI/ZeHwk+x7qsPdrCvkDXoKY2Dz47wVjMYt8G0ne2n+X0NtLrCxswUFXtl9Y3GUwzltHDCF1Iqf30hMJ7CyKVlqN9esIjEbOnC9k0zvQ1kSfRi0Qtj6XOpLMfFIJ3mn1O25/jITZB334dPmiDOFTph3wb0cz7BxIIWdgMbJi8fayDslQ/y3i8TB7HaB/b8fpR7u3DPmPBsY1U1f+m7dfhS9s4N2J79uXx5/iX2U95ePCZfP/4VMJj5MshA/3UjX2Ws10v68uxTf118vTsoz4S9WPbYwgd+LCc7Xc6v6rGB/qRVF59fRM+mh8r8fywkz4S/Ot+cW1bLDbIlSfVmP/w4E5OTkaSB0LmPd4gbOkLtpBJk/c+X48lOvM17EEMQdrbiCGEzb4yEhk9+HajgVh9jAvqeE939Izn68uDs6BOlQcfJLMX/fHEPRJYC93B+vbkTGgDdnjcYCdDdNBd1sU21v/H7xX4GxfUL1Y5Qn1UzBP0Q546IP/sDzyFxXFVG8ToIxbfJ/9OADz4xOMG/NKx+40BetS9fsTqg7j7OH7WM0OifRwffyPg8YEtsH1ODD5+WdnhBz1sGzL8+4dtpOVcvqw8+AALhAJkGAnEhfHe8YD7Qj2QUuQgHd7zymok1VXeU9YjucV+mRe5k01evqwtX15mK8ur+sv2IQs8kM8nUR4yZW3UlVd5j6ELcrCd26lu6k2PR4Hki2NVVZfeYoiVjVGiLu42bZ/16samql2OHcrL5NmvsnkBGcpX9Rt1qsagEybsF3SUYca2q8q9fJl9bL+qb9CrJASEgBBIESD5ghc/jQ3HUpf07oKQvezwVxQhNCBkntCCoL/nRf/TRsDYFmKvsVQlYsdBHum19R5dEnyUtZE4kFxry99spHXZB0+EU08361TpmU9/vvezbIWYtD9Vutkf2lBnJzFDDptwU/K2i1/d9mTBvwTN+ngRlwnLlCJB3t/0cGUb2EObfFw8ZOg1h6wfH19GWfYnrQfs+aNZkGM9j08k+Mkv2WIOElvI8caH7eHYoKY2Dz4AQaeWOqdHlaCCOJHUgnQgMSepKrOb3lMQkLJy309Pdtge22CO4z5Gez7yIEjUA7Ll7aGXFXXw8XpZj0QRfacu2FNVn3LMu+2fl0NbaBP24Tj7g+NtTyDyecRxRHknO/mEBP1DQn0ktJG2A/ziLx13mK9N22e9qvHlPII9qIMPbULO/pfJc9z6FYOPNpFoD2zhNnMcw6dsXvnxLesbdJf1C/Mq9eCX6ef8U77011WNz/L4+6ZxyMYBJLKMSPqYbRAyH1MO7FKPK0kbrlW8znhSh+P0WGPby5O0w4OPRHlsV3neUYfeZtjjyWz04D/okPhEADqQ6vT0uj9oD3iQbMNWkOY0ZCa1k/1m/TKiner1vzjr2/XLfvIGjDdYbMeHFUG2Lga/8MxbPdoH3NJ3ONBW/IVgVy/tN+cKx5t60F9s80kPy2nvoObLzoOPwWby5IPHmIN0dPJmk1w19TBWtUfiU/U0gTZVyYNcQRb2IIGg+kQ51vNlfpv1eAx2pbpYVpan8r5OXdtVchwD6EHfUh0gmGXHfbt+m/X9MWyzHdwE4EYCfcaxTon6UrtSOdarw7MMA9SnbVVe9k5zkHrrbKzS7Y9TT9q3Or2sWyXr+8e6PpcH36OhbSEgBOaDAAgVyK+PiU/l+YIlve8gYqnXHzIgd4jrLvtRJ5I6kjTv+SXBX0oPPvqTerTRJ9hd1x/eZJTJezygy980YT990oBjTBiXbnAGEScB9wQe/cCTFCZ4/VN75uPBhx7a59/hoH60h9QJO86H9H0DhgtR3yDnbR58dsTG1waKeyUxRotcDg8rBoNp3boj+mof1k93zcVlMX37nfBZqHwT/Ycf3iK4OCEXwz4QYSTaBwKY7c+vfcpH4aivXR74YX186sfyjPPpXyf9CykHBpBfCP4LaT/Du/r8pH2Yv8Sv6fxYrPHtZ/874aPy1vkLLJCazo+stuQ1f6uvP9l8alZOIpl6YjnPQNSweg68qST4kBkbGzWCNxLe/OlXzCGKlGUOoovVVagDxPD62ywG362/PycG367vNssjifTx29DF9etnZmpi8B+UrS+Pv1mwt8qD7wk67Lpw64eK0CTan+Zpf6AfBB/yTfCgPj7RIK7p31fgC7tBoH2cO+XTHGPFHyLD7wN8/Jvn1vYF/UAi0SepRj9uuN1i8PPxQR168Gkjzj+MD+wru7lBaVWCnS85zN5RsPX/OT7+iQPkLjvtG7GcOoAx28YxtO/54XIuX9YefAKsXAgIASEgBISAEFhZCIDQgaS99TOvKsgee0jSCHJOggUyBRmQO3zSX3ilLHLIn7juVfHmgDogv5w8+LCz2/6QnDeRBxZIfLehzoOPesCJGCM+3b8XgXImEHWEA3GNfN60QLbsqQTkIINftvU/QDVfDz7sw4c3N1U3R2jLr9iTEfyNcU5gTgE7H7IF+3izge1BT20efADGuxrlipnVfND5oOuArgO6Dug60K/rAAgUSBoIIciWTyCLWD0HbWOb8xD1SGqR4/g1P/lWUY59/Jos5SALgo+EMjwxYFs4zg/K2U9sk+AiR0rtYdt1+iDXRM98+8P15mEvZOvk09VrYBP7TFzYb+aoQ52wH7ghVeEMPcQZ9SkLOfxqLfVyXKCLOj2uTcenrt833fGDcOD9Hh31oz2ffL/RFj68SUA99qEKF/ZjUHJ58P3oa1sICAEhIASEgBBYFARIskgKfaMkW8jTBDlPIrHtE2RAwkg8sY1EGdava6NJ3V7V6bY/7HOdPPrO/rN+Xb9ZJ9WJfXx8KsM5lSPWkGN92ENd2MY48ZifC53srGsL7UEnPkypvibjR9lBzOXBzycaJ5dyeSxx0dA80DzQPNB5oOtA/68DJIDIPd4gVCBkSP44z0vUJ8FjjnpIJIypPMrYHmRYjpx6mbMe7YIs69OeJvqa6IE+1GM/mHfqD+2okoe9KKMe1mc/yvrN/iP3/fP2UV8nnKEDhJ0J9ZHYLo/THuwTL8jyOOvTfp97uyCDfdoHOWyzfqqvm/bQBvUt91wefM4w5UJACAgBISAEhMCSIADi5BPIU6dEGeTchhxlmad6fN20LN1vUrfXdaDP62Q/mKc2cp8ylEf9MpmyY9RRlqd6UcfrLtOXypTVR5062bKybuyjTJU+2lpVTvlByzMPvllddyrhtFN59dAKH80PnR86P6oQ0PVB1wddH6rODovFtqJe4FNF0nqlv6oH/dLP/hgD7gofkude20e7SIab6Le7lVIiD0ybyM9nfnRj33z0p/Og1/b3Ur88+Cma2hcCQkAICAEhIASEgBAQAgOMgGLw7e64uNPN7zK1PzgxZvAiaLw0XpoHOg90HdB1QNcBXQd0HWhdB+TBH+C7M5kuBISAEBACQkAICAEhIARSBKIHPz2ofSEgBISAEBACQkAICAEhIAQGEwF58Adz3GS1EBACQkAICAEhIASEgBAoRaAtBp81ihgmO4C3i7mv8gwB4sG3p7kvfIQPEOB80PzQ9UPXz9b5oOujro+6PrbOB/190N+Hfv99kAeff3WUCwEhIASEgBAQAkJACAiBFYCAYvBXwCCqC0JACAgBISAEhIAQEAJCgAjIg08klAsBISAEhIAQEAJCQAgIgRWAQFsMfhoTpv32GDHhITx8zJzmg+aD5kN1TLHOD50fOj90flS9k6brQ/+vD/Lgr4C7NHVBCAgBISAEhIAQEAJCQAgQAcXgEwnlQkAICAEhIASEgBAQAkJgBSAgD/4KGER1QQgIASEgBISAEBACQkAIEIEsBt/2ECvHxNgo7WcICA/ND50fvBpYTKltCg/hQQQ0H3Q+6HrAs0HXR10Pls/1QB781nmpLSEgBISAEBACQkAICAEhMPAIKAZ/4IdQHRACQkAICAEhIASEgBAQAi0EFt2Df8IXTww7dt0V/jK1I0zOTIYp++ya2RVmZ2daVmlLCAgBISAEhIAQEAJCQAgMCAJDQ8Nh1fCqMDo8Fsbss8fo2rB21V7h48+5cEl6sGgx+M+/9JiwY/LO8Oep8TBkQVpYG3UIkbzYmc1zQlDsI7JP5cJH8yOeJzo/MgR0fcium/FNCF0fdX3U9VHXR7sOMOn6uPTXx8huZ+OladbG426je4W1o3uHzx576aK+w9Z3D/4LP3t8+MPO35i3fmcYHh4Kw0bo8QGvz6akm5icoMqFgBAQAkJACAgBISAEhMDAIWDk3mzGvdaMfcXPzKx59deEe665T/jMCy5alB71LQb/5MtOCXfsuC38ZfquMDI8bJ+hMGKPL0DyH7zPQ8P+93h4+Ou73SfsuWrvsPfqvcPq0TXWYZH9RRl1NSIEhIAQEAJCQAgIASHQIwRmw8TUznDXrjvtsz38dvw34Wd/+lH4+fZbwoyR+2kLQ59GPjMT9hjZK9xv7QPD+Uef26O2y9W0PPjFYx1WxP2HI9zzKD/xSyeF2+6yToWpMDpi5N7c9XtZHNKTHvDUcOgDDoukfnR4NAyb/iEj/Pjn23Kt0pi2cndQm0JACAgBISAEhIAQEAJCoM8IgBe3p/Yj8NzbPyPyM5ZPzUyFuybuDN+94+rwzV/+rxH/u8L09LQdnzX+OxoeuNdDwoXPvmBumHr0/zsmPA/+nVmX8feee/BP+OLLwu3jt0RiPxo998Nh3b5PC/+w/5Fh7dieYdXoaBgdMnI/PGKhOqD4SPad/c9sy4/mO8qEgBAQAkJACAgBISAEhMAyQyCj+PE7/0I2Yx77mRkj87NTYdfUlL2DOh6++rMrw7bbvx69+FPmyZ+angn77vkQewn3Y33pU8uD3wP1Gy87Nfz0zv8LY+a1HxsZCXuv2jMce8AJ4RH3elRYM7LKjq0yb/6IheuA3IPR03uf++9xLE+tLR5RLgSEgBAQAkJACAgBISAElh6BjNrndpiXnftxy/YRez9tJH96djpMTu8KO6cmwk2//UH43I8vCtt3brdjOD4dHrr3AeG8oz/S8w71zIP/ui2vDz/ZfrMx9alI4Pe7+37hRQecGO6/1wPCqkjuxzJij8CcPCwHK+kg8Tvmra+ed1YKhYAQEAJCQAgIASEgBIRAbxAwWp/9N3WO5EfCz3AdxN+DzNuy8Eb0f3XXL8Onb74w3Lr9F2Fyato48Gh42D4HhHPWn90bk3ItLQ++GdO21FTaTIfy51xydPjz9J1G5kfD3ffYO7zmkLcaud83I/fmsR+xmHsQ+riKjpF8eu8zjp9F4WdNZnQf286hn1qjfSEgBISAEBACQkAICAEhsOgIgBK3UrbDb5QVXnyLxocnH8tlTltM/qQR/Yzk3x4+cM1ZYfvEdtufDnezF2+/eOzlLZV+CwrrCHFFeU88+KdccWq4dfzHFoIzajH2I+HER746PPa+h4TVY6st3j4LycEPACDmPi6Rafcr2Tr4IPM5uXee+xbF9z3UthAQAkJACAgBISAEhIAQWB4IZKQetkRWj++4DYIPUo9/2VKZ9tptXEkHcfnTYWJyItzw++vCR75/TvTi75qeCvvt+bfh3KN6F6rT8uBHo7r7etbFG2y9nIlI7p++34bwnIcfG/YYW2O/5jWax9vzhVqugc/YexB9tJmT/Nh8Ru/rbla6s1JSQkAICAEhIASEgBAQAkJg4QjAcZ4l0nrsgdjneU7yowc/En148y0mHy/fmjd/py2r+fkfXhK+duuWsGvSVp0cWh0uP25zprIH3wv24G+84pS4as6qsdFwjzV3D/+67l22DOZeYfVIFnOPl2oz7z3IfLsHH/YX1N4Y/VzP/dwjPeizVAgBISAEhIAQEAJCQAgIgS4RKNh9lM84PYl+njsPPrz3WaiOxePnJH/CYvLHbenMf9369vDHnX+KJB+r6px3VG/Wxy88+HiUkL30CsOG4qMFvgQL66vKj/nc88OO6e1x+csXPPyF4Rn7H2XkfpUtk5m/VFuQ+pzcRyIPsg9CnxN4kfs4QfQlBISAEBACQkAICAEhMAgIZESelsa93K0fg3Nygg/+nHnxM5KPJTSjF98I/oS9dLv5p5eFL/zkkric5tqRfcIlz/tszsczzVX8u2i3gr8vyIN/+tffEb73+6vtV2jHwpjF3r/rqWeHe+5xz4LcI/4+rnVfkHwQ+2zt+3aC7zz5tFi5EBACQkAICAEhIASEgBAYAARA6vEfqUXw4SDHz17lJD968m0NfIbqGMn/w1/+EN7+9dfHF3Andk2Gg+99WDjzae/MFC3gu/Dgd6PjtK+cZktj/jDG3j/iXgeGNz7ubUb2LfbeXrYluZ9L8DPPPZ8OFF58GGAO/bb9boySjBAQAkJACAgBISAEhIAQWAQEPLFHc3EfufPgpwQfXnyQ/Cl7uXbCYvHPvvascPPvbrTtaVsy8+/D+5/x/gVbviAP/klXnBh+N/HrSPCP+bvjw3oLz8Ga9yP2I1fx12qj59489m0e/Izgw3KSfPZC5J5IKBcCQkAICAEhIASEgBAYBARI6mkryD0SjpPoMwY//sptJPhTYdqWyMSymVtuuSJc+qOLLExnOtx79d+EC466kKq6zgsPfivGJ9PVaR+1Xnr5S8L2XX+I4Tmvfeybw8H3PdhWzhkzDz5Cc7LwnLKlMUnsC0IfQ/GzePw8Kr/rDklQCAgBISAEhIAQEAJCQAgsBgJ5VI41ZVv5Dgk/yT1zkHwSfKyoM2UEf2pmMlz36++Hc7737ujB32fsr8Inn/2peGMA+zvx8aryrj34w8PD4ZjPPz/smt0ZX7D9lyf9e3jwPfYPY0bwsXLOiJVn5B4x9/YPL9LyBdssFsfMLig++hDT3CMsUS4EhIAQEAJCQAgIASEgBJYPAiTztCjj+BnZjx58evHzkB0S/OmZbEWdSSP4v/jTz8O/bXuHefAnw6qhu4VL7UXbGStfSCo8+PNVAoJ/pK1/PzI6FH+99n1P/2BcJhO/WOvj77MYfNB2+0eCbzmTCD2RUC4EhIAQEAJCQAgIASEwyAh4wk/Pvc9J8JFnL9tOhT/+5Y/hDV97jYXrWNjO1Gy40tbDXzDBHx8fzx8oNIcTRB0E/5kXPz2sGbMlMY3Un3vkhbY8pv1yrb1gCw9+FqKDH7ZyHvyc5KOlNmLf4vvNjVBNISAEhIAQEAJCQAgIASGwXBBwjJpE35N7HMsIPnL70Su+aDs9EU7ZfFKYMg/+zqld4cvHfTUSfMh2m4Z2gOAbYYcSEPc0twN4G3bO8UjwP/MMI/i2RKateR8J/qgRfPx6bVv8PV6yjf77qAdcviD3CbEvjnfbG8kJASEgBISAEBACQkAICIFFRIBkvmgy5+U4Hjfz8BxwbO/BjwTfftV2YsoI/pUnhklbNnPn5GT48gu/UnjwU17O/Sp+zvKuYvBbHvxnFgT/vDke/CwGP1L7nOAXRB8I5ORepL6YDtoQAkJACAgBISAEhIAQGGAECrLvSb4j+Cgnyfce/I1XnmQEf1dG8I/7cg88+Dt2FCYUrLsUWFRrudzhwV9/8fqwGh58+6Gr8zdYiI558EeGW0tkxhuBPEQHTwEK773IfSnCOigEhIAQEAJCQAgIASEw2Ah4ko9t78UHuacnf2rWYu5npqMH/+TN5sG3EJ0J8+BvOW5L4cHPluZp8e+5yLTzc5YvyIOfEfzVRvBHC4I/agTfh+jQa888Nmx2ynPPIVAuBISAEBACQkAICAEhsJIQiLS+cKHbnvPit3nwc4K/cctJYdfkrvjZnBN8yHSbFhSDv95W0VltL9lGD/6RF4Q19pJt9OBbHH78cSvQeHjuGaIDH768992OleSEgBAQAkJACAgBISAEBgCB3G+fL4+PvZzkIw4/btsqOhZ/Dw/+TnvJ9mSE6EQPvv3wlVtFhzH1ad7XGPz1Fx8Z1qzKXrJFDP6a+Cu2rWUyQewtEt9IfXt4jrz3AzAzZaIQEAJCQAgIASEgBIRA1whEkm9O+Izem5pI7n2Ijq2kY0tj7rTY+40WorPLwnOwFv7mY6/sZQz+/OzPYvCPjB78VYjBNw9+tkxmEqKTe/GhPRJ7hefMD2jVFgJCQAgIASEgBISAEBg4BDzBh/EM02kL0bFfs53IPfgg9xMWprPluIzgL6TDC4rB33DJUQXBP2/D+WFN/pJtWwy+CP5CxkeyQkAICAEhIASEgBAQAj1CII1rR7RJv1ITgh9DdGyZzI2bT47eexD8zcdesXAPPn7oCp1LY3s67WcefCP4q1bHX7I9/0hP8EftB67m/shVBFAe/H7NI+kVAkJACAgBISAEhIAQKEEgJfa+Sr9IPgk+2ophOvmLtpkHf9Z+6CqPwTeCf/LmjfEF2wn7oastOcGPcibTDU9foAf/WebBN4JvITrnbTg39+Dzh65E8P3k0bYQEAJCQAgIASEgBIRA/xCoI/ELbbWbm4DOBN9i8O1F253Rg39K7sGfMA/+5Qv34O/I18Gnx74AwO4Y8HIsU1oePfiXPMt+6GpNvkxmi+CP5r9kCzDivzyPuuTBJ6TKhYAQEAJCQAgIASEgBHqAwHzIfVXdTiS+U3najSqCj/bhxZ+a9QT/VFsPH8tktgg+9KX8Gy/q1vFzlv8/AAAA//8C9DcQAAA0N0lEQVTtfQm0ZFWV5f35cwQUtdpuccAsu2mtJdJgtYJtLQTFhZgmCYoKKIgDULQu23ICp2S0Sqssey27bEq0HECZBDIpF2ouQYbWFkFxALu0WFooZakoY45/jD773HdenHj/jREvfkR+9v0Zcedzz9nvRdz9Tp54b2Lbtm2d0DBNTEyEZcuWhaOuWh9WrVgVVi5fGT7zsovCasmXL1seJicmw7KJZQHj9C/JdZmJoG0Nl+RwIkAEiAARIAJEgAgQASLQg0CnU4/G1h3nhYPHZlNeW3aM1TtBdEvUQxk6WD7fmQ9znbkwOz8bds1Oh7d8/bQwLfnUzFT42nFfCfPz8zreZDXNJ0DwoSwWbZKD4L/sy+vDaiH4K4TY/8NRJPhNwed4IkAEiAARIAJEgAgQgeYI1CLsws9zx2V5u10jWO7UKSL0Re1uqpL52gT/a6eHqdmpMA2C/+pI8CGrKT+38UrwvTJ1yjAqevCPFg/+6sSD//eL5sG/+eabVU3L6+i8WGPWrl2rSx166KHByou1NtchAkSACBABIkAEiMBSRyCXtHujEwLfMy5D6n1fLlmf7wrM689r686IJXjraxP8r/954sHfJR78fxzcg799+3a9XjHGnyqH//IQIm8p298l+GuE4K+QEJ3FIfgg9eNI7A0nn4Pgn3zyyb6JZSJABIgAESACRIAIEIEGCHgyXjgtj9RjcFF7oSDQX5skgxKvftqWzMvW88Q1I/hnCMGfkhCdLsGHzCz/loZSfm79A3rwjwmrVooHfxIE/8Khe/AvvvjicM899+RhOLZtL3rRiwJeTESACBABIkAEiAARIALNEOib3AtHx9zsfK0n/B2a/PhXd4QD9n2uEnmQdk/c0zJIvvLq7sS0r8ScRgR/ixD8mZmE4G8e3IM/SAz+UVcJwdcQneETfBB7EHxL40qcoecvf/nLnv9lGFddDUvmRIAIEAEiQASIABEYNwSy5HyBfl2+nRJ5T+Btfm9bV8pZV7413HnvD8NHXvN34TlPO6gbuCJkHpEqSCmRz5D8tL0rbkGpEcH/Ojz4vQQfAqE71mqaD+jBPzasFg8+fmT7mSM/OVQPvvfe7w6E2YcS7Q76Ljgr2UAEiAARIAJEgAgQgREhYOR8wfKO1Fsfxqbjpd/KmifjNbJFJijplvysK9+m5N5kfFRI/v5C8pE0QqeC5LdN8E/d8lbx3uMuOgjR2TS4B387bpPprgwEFbUMoKjyBfUYg39sEqKD22QuHsFHXPvatWv1IIzz23nnnZeqt3HjxrTMAhEgAkSACBABIkAEiEAXASPl3ZacUg65x+0kNaVEHq72hORLG2gs3vRPKyG8/6q395B7nSBvH3nN/woHPO25GnZvJB9c2F7aIePsFvA2ryjXi4moTrq+6bHgNplC8KczBB9yq/h4Uf+AHvxXOg/+3w3Vg787kuVx0fmmm27Sc89yVM455xxt6/fNZFl+2GGHBbz6TSbH8kHlQQ/IMnmoD2ozZIxL8raNo12Gu+Wj0tHWt7yN86rtc8B0s3wcdezXZrMJ+VKyq188OI8IEIF8BPoh95jTM0/JfJfcRyKN9aQt6UPb+7/89nDXvT/KV0Rar3vXt5I+EPtkuhQsZMdIPp73VJWwno2P+ui76p0l+KdueZvcJlM8+NPw4F8zsAc/IAYfd9Jpmu/cubNz2CVHdY684tjO+qte2/ndtt93Ht71cGf79PbOrpldHblZf2dmbqYzOzfbmZuf68gVVnx15uV4NE/nnntux17NZ49mhumLfBTpxhtv7MimirM993X22Wc3VgtziuShvanMYehYZTPWHGYqwyevry5mbWFVhk+eftZWBzPYUia/rq111iobsztgNUodcYyGmXCc7bzJ5lh7kPMge3618Xn2+jbFJmtfVX0Q24d5zCibCCwmAiknNG5Ylgtv9H/glHiBX+prXnJ5gXOCe8q95IWHTsV8dldn58zOzo6ZHfp6x6Vv6Rzx0ecVvm77xf/t7JzeqXOjrOnO9Fzks5AvK+vaWL9OUr0T20xn0xNcGZwZ3Bkcev3Vr+0cefmxyq3BscHN++HnxueV4KPS5IUFjeC/7IpXiVLHk+DnHOlREny/YVVtOHU3yOzGWiS37gbWto6wo0inbHtdHXMOa2VTdq2qeh1d6mJVR1bd45jVu8rwNnWsWqusv64esK/q3B8WVnXlDut4Yv1hJODZpm1ex6LjWnUMvYyisj/X62Du5fi5dcpN5fu1WCYCSwGBWuS+h9J36X0RuQcZT8m9EHwl+Y7cg0i/49JTC4k9SP+tP/+WEm5cDIDkg4CLR10JPmSr01ouJEyHOseiCcE/+uoTxGn+SiH4L1eObeS+CT/3YycGi8F/lcTg4z74+JHtJ0YSonP77beHLVu26H9lyJdrT8J/p7z0pS8NBx98cE/7YlVGFaKD/w4//PDDUzNlw9WybCzB/stcLj7SfhRkkww2rqcjqUCezUUTxkIeEtrxo2Lfj76ysAz0eR0gDz9GRm5ysv3QsSxlf/BiOubJg5wqm8vWKuszPbB+nQS7m2LlsccaTbDCWnWeJWG4mQ3yZWbFBXne8SzTser8WLBAzYY8PTAV65k944iVP/f7+Sw1PZ44N6s+TzUh7xlm57412mcQ9Tz8634Gs98/Jh95XRl+ji9nz5my89zPs7LZ3Nbn3eQyJwJLDYHany2ExWSSn9tTlgAFrcucGAKDibFN4kW0D+0fvOod4Sf/WhyWc/5xHw/7P/XAGGuPCHvE3XckLAdhOCiLVG3TmJ0Yg992iM5btrw9PuhqeqeE6Fyd8lrYp98z2INl/dp1z/brlrse/HWdl11xXOfoa04cmQf//PPPT0N3ZONeUEb/qJLXZzF10LMbZ7i8ZNMpXBp9NrZsnJCjdBzGo56XsuNk480bpm22bpk8zPfjmuhYtHZdmwsVr+jwOhfhVCFiQbfHoEimXxfji+xfILygocmxhIg6OmZlFiw9UHMdPbJYFWFaV5GsXWXYZ8cWrZ0dVyazHz2L1q0rK29cXZ1tXBMdssfVf44HxSYrO8+2ojZ/LjWxp0ge24nAUkCgloc+LyQnx2tv3nLLLSxnZnYmhuRI+AxCaKbmJCwHoTnitd8h3vft0zs626ck/HxqW+cdXyoPy/nW3Td3Htr1iITKbO1sndra2Ta9TcN5ENoDLz7CfSxMB6FAeEGfOqmRB/+a1ymnPuySda148Htj8JNQHftvgQW5648hOuvkvxOOkxCd142M4HsSXVSucxCGMcbrMwz5eTJt87RNK2+Mb7NxyIs2Sj+mahPzG2/RWK9j0RjT0W+g0KMoeR2L7LC5XseqsTanbu71rbKtrkxvW9kcb9cga/vjA5lVGGXH19WxSm6ZnLw+r0eV/f44lZ1Xeev4Nr8m5FTZ1OQYedmYN2iqex71u46XX4VDVX9WB8j256LHsaksL9tjjDWaJqxtdledc01lczwR2B0RaEzuc0g9SLERep+n5F5i4TWO3ZH7nULCd05Hcr8jIfdbhbBXkfv/87MbOw/teKjz8M6HOw/tfKTziBD8rXJRoGE6IPhywWDx/FjTwnSgS53UhOCvF4IPTu0JfsrDHf+GMz5tt9/Q5vQPGIP/CrnaeLV48F9Pgp9zpEdN8OtsOHU2StvA6myAfsMrIiV11vRwVo33m3TRmkXy6mDk51aVvf1tyPbyqmxrikOeLR7rqvVsvl+3ymYvH7a1mZrogXUH1cXPR7mOPU0+S9DRj68jH3PyUlNs8mSUtQ1bftZ2j322r0zPbN+gemNtO0aQxUQEHs0I1Cb3BaS+iNiD5INQq9cenvt5+TFtQu7htTdyj7h5kPttu7apJ76K3N/yz9/sPLDjgc6DOx+MJF+8+I/ICwR/m3j/1YMPgp/E9A+b4INLg1MfdskrhuDBtyuBGnn04K8XZV7TWX/NSSMj+AzR6f06abphVW1Qvh+bap1kG17ReOtHXidVbeaD2FykYx298sZ4vNra8A2vKl2b4pDV3+NctZaf622umufXwLw2U1PZTcd7Xf1clOskj1Pdc8OvMwhedg4hH0ROkZ2DnntFcova28DF61z3uyirTz/HNCuDdSKwuyJQh9DPzcldZ+wlRN175K1cRuwxJiX28KDnkPtd8NxPSUiO/JAWITkIs6ki9zf/7IbOH7b/oXP/jvsjyd8hJF+8+CD4kAGCj1Af9eCD4EsIEH5oayE6w/DgHy1c+kjh1Iddsj4l+As89TX4uXn4B/TgC8G/8njx4J88MoJ/2223dYpIPtpvvfXWkX12RuHBb2qs3+Tqko6qNYxMFBGfqv6s/LZ1bFue19fLbotI1SUz/a4NPf0aRcfN25kt1z2mNg75qFO/ePWLFXA2++ti3K+OHlsvo+66fn6dssekrfO+bN021vO4oNxP8jIWw+5+dOQcIjAMBMrIfUro5xJyX0DsLeSmKE+JfeK1N3KPO9tovL2E5SBGXkNyGpD7m352fee+rfd1fi+3pgTJVy8+CL7crhK3rATBR/w+CP5OxOAnHvyhE/xNJ4vT/LWdw77YJfh1fxubN27AGHx48I8XD/7oCP4wTty2ZD4aCb7f8IrIxCAkp9+N2B9Tr2Mb8opkY8O3F7CwF9ZEe93kyQzKeTqjzXBtQp6hh5+HchPdzAavY55+kOnHoDzq5O2uYzPG+DlNsfLz69rv16ujYx6m/tzIOzZ5c5q2+WPr9UQZffZqa/2i9erq7TEBxv0mLwe22svsRd6Wzf3qyHlEoG0Eish9D7E3Uo/7xru/1AOe/Fg1rSf3tO8h9UnMO4g9XiD28RXvc6/3t0e8fULu4X2v8tzfJJ77+4TY37etS/Dv336/eO8fih78KYTobNWLBiX48r8DnuBrDH6iax1cm8Tgw1l+JAh+ngc/J8bePPWa5/QP5sH/4tHRg7/pDSPz4NcBeFRjxp3gYzNqg0B4fP3GW7Sx2ZoYWyf5TbRIZh05NsbWR96GPJOLHPJMvsfC2nzeZO2sLNTt5WWi3ERudq6vN5GTPZcgx/TL6o4+jB9lgm3e1jq6+PHZcl2s/LwqDLKYVo0vssGvWTRm0HZ/jKFnFl+vA8p18SrSK7te0biidq9fni5os1eRDLRjjNnmdbI2n2MsExFYCgjkEfyU3OcQe5B4i1/Pyxf0J4R+IbGPD7HCj2k9ucePaeuQ+xt/en3nt1t/J3z1Pnn9rvP77eLB39b14D+cxOCbBx//O4D4fhB8i/kfKsEXLo2omMOEW9uDrvI883Xbej34DWJ7Ygz+BlHmBAnROYUEP+dTO+4Ev+3Nx292kF2UbF1siHWSlzvoJuk34UFl5enudTU7q/I8OXltXvcimU1tqqNvE2JZpJdvbyIvD4dB27C+16cuZm1g5Y9h2fmf1RH69oOb17munf3gm7XL41tULrO/Sge/Xj+4eJ2ya3nsq3T0+HqZReUqeVldWCcC44hAluD3kPvEW2+eeSP0CG8pfSU/mjUijbzrsZdyEo6DkBkj9xpv35DcpwRfiL4SfITobMcPbeHBf0i99/gfAYT9ZAm+XnDI/ypYSFGdY9PIg7/pFImKOUEI/oaU4A8Sgz+BKwH5MmqUcMN9PETqqKtPCGvkQVcrVqwOn37pX4/kQVd4wEudh7yUGYiHzODVdhrVg67q2JF9cIycqHWmFY7JPixGNr6AtrykD2yQDtnsaj1sx8suk5u3lm/zctA+iCwv15fz1oCdeFnKjqmDQ/Z4may8XAhKz3p5Y3wb9PH64YFEcnGaDqmjH+ZAx7pp0POt7jrZcWabPXSpjm1eRhtY+WOJ9f2DzkyvPCybHlfobZ81lIeJubcJayHBNnzGkFvq59y3uT736zXFxeuQ9x3gz2XoDvlFycvCGLN3GDYX6cB2IrDYCPjvEi3jKVBISY42e/n2M694a3jOUw8KJ77gzbEZ45M58VFS+J7SrvQN3UKSdVzss4dYzcc15JE/G695Z7jr3uKHWL3/6L8Mf/KU56hMfCfiWVVYDw+qivVlQf/Qh/ZlUsMDrvCgq2VRSZ2DN1EFKR0Tq4XveMiWPpVIRqCsuCQ57JLwpSAXQ2HX7HQ47RvvDVMzu8IuPOjqVZfpg64U30Lp5R1K8GGgF1KnbgR/9co9wsoVq0ZG8D2JLje1vHfjxo3lA/ro9boNQ34fKukUvzmioekGmV03b5NDW1HC+YVUtXnafC8/b0O2cWV51uZ+5ZStYX3QFxednrhZn+XeJrSVHYPsWE8iQEbw8oS8Sp7pUJXbcaojLw9fHF+88nSse+yrdGzSDz2gp6U2dWiCFdbP4oU2wwplS76t7Byx8T73580wz3esmbWnbD2vF+Y2tSu7XtP5/lj5fQ9ykfx5UuccMXuGbXPUju9EYPQI+M+NElioFLf1SGATgo82I+xnXfnWcOe9P1TlT3jBKeF1/+3NSqYzfF77E1GRlzoZoMjyvwddojzRCR+66i/kCbU/1nl5b57co1+Juq48ESYnJ2NJyPwy6VDCLy2WYzDa9XJAMv3ugMLyGgbBP/UbZ4bpmZ09BB86e7yhQ936gB78E8OaVXuEFctB8D9KDz6OhEvjRvD9xmVqNt0cbZ7ltrlZvWyTszG2wdbZPDHHr1FHvq1jeRPyYXMWI/d2FWGRPWZlx8vbWSSviV1+7TJ53g7I918+fj0vD+1ltvh5bZSza5fZ0896Xn5d2f54ZdeEDJzrkGsXb03x8seln89NVqeyureljv1etzrjs2v79Zrg4tctwqSfY5nVL6/ude7H5jyZbCMCo0Ag/Y5X8p1Q9KSMPu3XeuT9Zzpyb/qC5J/4gjdJVQbqe8xRTi8aUEGCTPxZLmV4vzde/c5ycr+h67mHGKygPnohyeqpVw++kHvx0uNvciISfpB3HSkT4NmHheAtpqGOlrp6+aWvLKktCUQ9NogtCzz4158Zpqanwq6ZHeFrr7y0XQ++XRnUyaMH/8SweuWe4sFfOTKCXwbsqPvGieD7TQu4YIPBBoe83+Q3LMgo2jCz8heL4Bs5Qm6pCRmwOcPK/THBcYBu2VSHkNgcLw9t6ZewDegjt2NVJs+fB1XngNexyOY+1Cyd4jHEwGGtWwerrKLQDcnCDIEfEnRE8ro3PXf70UcX7eOtyTkA8YOeB369Jrh4TIrmDapbEXzDklu0HtuJwLAQ6BL4hLkK84VnHanbp7Vw1pVvSz33OsC9HQ+Sf8gblVxj3oSGw3QH2B6GXIky1hFij7XOvuZdpeT+fUd/OA3LgUTh49EzD6KO0BuE4MjKIPfmsVeCj4FJuxJ50HptQ2tMwyL4p37jLPHgW4jOl3owxXeXYtQgH8iD//JrXpcQ/FXhoiP+aiQe/ATvsczGheB7kgCg2iA4foOFzCpihzGWbJOtq4fXv+46fjO1dYs2dOsfRe5xtC8zr4fvr2O7YQsZbdjr1y+S59fMs8Hbkz0uVeP93H7K/tzB/LrnXD9r1cGqqVyvfxH+eTL9vDrnTZ6MJm392N7kvMnq0s96dTHx52jb58sgNmcxYJ0IjAoBfG8r4U4U0Jq0IcUyiH6Mkb/01s+Gy77zee3Lezv+kDeE4w85JYa/2IDkugFVXUeYtQ/N6Yfce1Ku5F5IPng7ykrwpWIefKxpbZinA0UnjNfPsJbtIsGUzs9V/8SeiI2+K1lf6MF/n8TgT4kXf3v46isjwR9kjxwwBl8I/irx4GuIDgl+9vCOA8H3mxr0G3TDwuaHkAHklpoQD8xpusl5G+qQFb9BY71BbYaMYaUqLJoSmabjq+yq0g/z64zx6zQd7+c2KfvzBvPqnDtN5GfHeruafiaysqze7/H0ugyyQZgeVbnHuq7tg+jYDy5+TpU9ef1t4DiIzXk6sY0IjAIBI6pYu6esxB+NCYmNveHS73w2XP6dLxSq+tpDTlaSL8N7EqQg+fzsq5t77o3caw7vvMbex/AbtCEiBTkIPtbC51QvAmRt5Lh28eQeOvkxqBcl1b0mwT/1+veFaQ3R2S4hOr0efJOPdf13UVl9QA/+69WDr3fROeLDI/Hg591FJ3tXnMUcYwcB+agJvt90oc+gBCdLnCGz7maOsZb8RltnPk5gS1XjszYvNrkHRj5m2vTOy72uRXoOgpX/EsiubxdoWLcseeyL5PkxVccnew4VySzTqU6fxxbjBzn328Sqju5+jMe2Llbe9kHs9npUlf1xLTqXvQyvY53xfi7KTT8X2TlZeXXqefjDDguvwrlflga1uUw2+4jAYiIA0orPg34mZHu2zwba5+fBhpN+pcux7bJbPxeuvPXiQjVfc/BJ4bUHvyH2d7f8uI6uF8K5m95dGZbzrCfvn66hpNwReCXt0gjxk8sk3l69+JHMK/kXMm9z8N2rLxkDfh7vpiMFmIdBaJPxVQmYqAAZiLLiluQLPfgf0LvoRA/+F+P/WuDqos/U48GH0li8Tq4x+NeA4O8V76IzIoLvSbTHwN+1ZjHHeB38ul4fP2ZYZb+ZYI1BN3q/gUMeNmXIRN40+c0Z88s2xuy69kWSt2bbNuetUdVmH3yMqyK7Hoei4+NtqsLKj8X6eVh5PJvIK9IP69SxA+OQvI5lMuPo/t69PpDQ7zrDwMpbBPk4BkWpX6z6nVekR932ts/9snX9Ma76nJkc4GJk3NqKchwbS3aM8r6nFtNm04c5ERg1AiCqFnMPtqykFYRf/pC0JPW55I43MkB7Lv8uSP4lheq/+uDXh9cYyYcczJMX1jhv03tKyf1Z6y9YEHMfSbu+KxmfWAZPfSTmIOexJ/HWC//FHXPSOSDxuDsneDHm2O8DoA76EjlaKHlTyyMsKS6GT5bgn3r9B5O76MCDHwk+RAMD1aNhPqAH/6QkRGeNxOCfTw9+5iCPiuD7DR4q9UtwzJysPGx4eZudja/KPXHC2CL96o6DjKyORTIxdpgpq0cR+ciO0y+xHMXqYlB3HJbw5KgIp6x+ReMgL7t2kc3ZcWUyIbef5G3D/EHX8PKKZDXBCjoBBwtzK8KqqUzIRcpiXHRexdHtvnusILnItuy4fnT0MorW6dc6j2HVd132OBXp4vWFXv3Y3K89nEcE2kYABFUJfuS5ej77uv4QNiHniMWfR1m8+jIwXPHdL4Qvf/eLhSod9/zXhVc//6Ruv6xx7jXvCf/v13d22zKlpuQeJF7DcuDBxx+Iv6yDO+YgoU9ZPYi5dIBcJ5xe24dF8E+7/kOR4M9IDP6xl7TkwRcbkgsM2LYg4Rj6fhgXPfgnyYOu9pQHXa0Jnx4RwV+g7Bg1jILgZzccwIFNqk4CgcmO9ZudyciOsfa8HBteXsrTE+sjQb4RIJuLtiay6upYdq96W7tpnt3Ms3ZBHnC1VEQKrD+LlZeHMVms0FZGIPKOqcnEXHg5vX7ogw5lqcxmzMvqWEdm2Xp5fVkdMKbueQB98sYuNlbACakp/jpJ3vy5MgyMbZ2iPHsMoAMSsB3UNr+mX6fq8+Pn1Sn7Yw69i753TJZt9lbP2uyPJca0ra+ty5wILBYCRQRf+LKkGJITvdTxjjdoB+mPffPhytsuDlffdmmhuq96/onhuOe/XvexCzafVU3unxofYgWBIOJK2kHKZeEYRgPOGsvWBzKv5WUJuUe4jRBdJfPSo7Ikl6ZFJfhTeh98ePAjwcdFEXQoStC0qH8wD/6mN8S76CxfLR7880biwS8yehzaR0Hw/cbXFIM8QuA3u6byML6MaHoyUiYbmyx0Q56X6srJmwuZVRt43ryqtro61d3s68qDXnVk1pXXBJ+6514TmVU4+/4s0fJ9VeW8c9/mDAOrujLL9DL9fO4xKPvs+TltlvF9kb2YK5Lf1DYvx59rdc53P7eq7L/z6p6rdY4nZJV9j1XpxX4iMC4IgKzr90vkwdHTLDQzEs1I8EE75+bntBUefNRtntB+8eJfEq65/bJCk4593vHhp/92V/inX99VOOasDReEZ+2zvxJwDErJPag7HNFK2lF2YTlJO8g9LgVA/NM/6dPv0IQx6xhtS1SwdgiU1H4M/sYwPYsHXe0QD/4XWvLgi7I4WDCsbg4P/ssTgr9CCP6nSfCTM6CbLQWCX2fj6lq8sFRFMiA/6zH2UuqQgEF0rLuBe53qlsv06mfdMnnQqalMEBkjZFmbIKuf/90o07FfmVndiuqe3BaNKWqvOs9GgVVTMuixr7KnCIe22r0uWZk4D5ralpUxbgQf+lXZPAxHQhYX1onAYiBgRF3XEq5rt7AEZ4ajPvXWC5FHn4boaKiOXBhIqI6Nv+q2L4VNJSS/zJYzjz4/4Ae1SsJlIDi3EnUpgHib5x5U3OrYI/AXQ3CkJJ1G0jUXAp/uI1LGOHB6jNPk+6XB5ia9uZle9kCIpPi/GvquXBs4zXXmwuz8bNg1Ox1Ou35j/JGthuhEgq/zGvJz4/EDevBPSTz4iME/hx58HIkk3XPPPeHiiy/W2tq1a8PJJ59sXcxzEDAChS4QAJ9rZTd/w+aP1IZtw8DKZLahH+w0eW3ZDDnjksy2trCCXW2eH+OCE/QwrFBuEy/IG+fkj6fZPc76Ujci0AQBT/CNtApvjgQWkThS6nrvHcEH4U+8/zEP4erbvxQ2f+/yJsuHM48Wzz3ulpMQbhBwI/dK4KVhAj+ilXYLxQFZ745xYTmyshJ+1btL8EHee8h9NKt7AYB5+B+CitSM4J+TePARg//5ljz4omBygZGrqmDU048rHABy1KZTYgz+csTgD5fgw8trd0DI3gYzV+kRN3p9164lwR/x4eDyRIAIEAEiQASIQAsIGEmHqMQfrVKjpx5kO4bjYFx8xVHz4q2OHn3x5Otf9PZv+t5lYfPt9Uj+e9efn94tJxL2LLmPpFtj7oXeG6kHGVcPPnLR1trNqy/qpOTd+noIvuuHsek8tbz4rSnBn5IQHb1NZkLwxdUP1QpTlp/7gQN68N8od9GR22ROIgb/7KF68D1hhgEg+U9/+tMDyPO4payu8N6Po57jhhv1IQJEgAgQASJABMYbgR6Cj/h64dQIC9F74IO4y73wEYqDv64nX2op4e8l/pgLkn/t964oNfxMIffPRFjOhFJwGdv7xNnoUYcDOnrXe+5zjzl55D7+MljXjRcAUXaW3GMA+i11dbCW/BwY4B+SIqKEHVjEi6CeEJ0bzpO76OyQGHx48D/XkgdflLaYnbo5PPgv3yQEH/fBFw/+RUdsHCrBBzhZ4oy2cU9r5QKE4TnjfpSoHxEgAkSACBABIlAHARB8JPBFvIzgowgaaz+qVXKPMfIHIovuefnhrcbgIxY/mW8XDJu/D5J/JYQsSO99xXkalgMZRq5x3/o09AY+efXSdxY+xEqJOcbKGCH0RuShEOg8Uk8bOLG2aZcSdPT7ZDr4trwybFdh0qlIJHgAN9jdQ/CvF4KvP7LdlhJ8yKzLy7PjBvbgr1n12LBi+apw0UuGT/BhKOLaEd++O6TdIZRod8CROhIBIkAEiAARIALjgUApwQdxlT8QZ/Pew5s/N9cl+FrHHXZkrD0MC2U8ARfx+FmSD3L/zCc/W4xPyLlKl+sKcTRr6I22x7j6SWnD2vanXn29EJCWxFuPeUhW74fc63xZpSo1Ivg3nB8J/hQI/mfb8eBXKZjtBxjRg/8mCdF5TBKi86Ghe/BNDxD8W265RavjSPZB7JEs1wrfiAARIAJEgAgQASKwmyNgBB9mwBuvPFe4LkJ0QHlB8MHXEZID4o465sT4+0jkjfwb8be768Dbfe0dXZKf57nHGj3kXkk9wnKEm2oYTqT3dcg9bEgJv2gvy2tKHfZQN61kysMg+DO7JERn6zgQ/DeHNULwcZvMi17ywUUj+An+zIgAESACRIAIEAEiQAQWEYEigg9SD2ZvfxaTr+QeBB+EX/7gtUfAStoudTjXdbzkuCjYLDH5z5R73OutMBOCHWl7JOQoK5mvIPeYqkRfdFMib4Q9yY28Qx7UR0r5vI2NzUkfLi9iwpyq1MyDf4F48HeFqamt4bpj/0EviPR/NqoWKejXEB0Y6IVYHarDYKubDNSjB//N0YOPGPyXfIAE3wBiTgSIABEgAkSACBCBJYiAJ/jgjkpixU7li5IrkZf2OA7EOXryzWuvHn3x9mOGtUGG3YXHy4RQcE6QbhBqLUs+uWxS5sf2BZ57DcGxPvwCuNdL35WZEHRVPJaxjqZk3aSmGdZOU05/2ucKzQj+h5MQHXjwI8GHqKb8HOOh6UAx+Os2v0V/ZLtixR7hohe/nwTfHVQWiQARIAJEgAgQASKw1BDIEnywSSXlSnojwYfNRvRRBtFVMo8LAv2BLUJ2pJx49TE2/jg3jtU5MhYJxN7yycnJpG4EPj8sB1zcPPfxAgFKuosEI+sJUcdK1oRxul7agL6og3bk9McZC98bEfxv/mWY0bvobAvXHfOZdjz4C1Uqb4Gh0YN/arxNpnrwSfDLUWMvESACRIAIEAEiQAR2bwRKCb6YBgIfCT/obeLJF1Js5TQXAm/hOt02EeC4NJDCbTfBOUH0I9EGB9WakPiY491i7sHFa5F7XSqG5nj+DoLfQ+gxzg8YFsG/4a/Eg7897JrCbTI/PVqCv26zEPyVEoOvHvyz6MHHmchEBIgAESACRIAIEIElikAewYep9iNbDSmRyBj9Aa60xx/QguGDxse/6LGHFx9x+egCq5aLAf3RbpbhG8EGwZeyEv1I4o3eD0LuoXvK36FGWkFPpg5lk5QdZ+0+h7VqoDSq5YaB5MCg5zaZ3/xI4sGXGPxjWiL4UFLBdUqjDohhS16/evA3nyZPsgXBlxj8F5PgJ/AxIwJEgAgQASJABIjAkkSgiOCDoyuJRyHeiTIl+Yi7V56pfDeSWyO8kIe+6PmHCBnkSXZSBScFHwWZR57e0x5sFXXJijz3OBDgrZZwYSBiNWGeJl3HKrEJ66TJJiQNPX3poN5CU4I/PbMz3kXnmItS7BQPtybq0ArqQIei/gFj8E/XH9muQIjOi8+kB7/3uLJGBIgAESACRIAIEIElhcACgg/rhHGCl2sCWQf91DYpJXVtRVmZafTWd9u0FMmqcWrM1x/jRnKuhFrFJn57IbfRcy+rSrsSePRLux8Lndom95Cpa6BQkmAV/iGltqIkICz04H9UPPiR4F93zKfi/24oWHF+0/eBCP7LN5/uPPgk+E3B53giQASIABEgAkSACOxOCBhRNZ3Vg5yQcvBRFNOLAJB0aUxJPspKcGVQJlbfxpnc1E2NoYknXam9EXgZgOaE7uu0lMirHpHo21wMwNiEb+tcnYSxiXytY5yv2wTrzPa79mwRttqC0W6zP4/g/3WY1h/Zyl10Rk3w110rHvyVeJIt7qLzHnrws0eWdSJABIgAESACRIAILCEEjKiaSVmCj3ZP8q3fz4thOSDS3YsBHSdz04uDZAGQciSQ7ki8rY514h/6jdzr+IS0e6KOduPqKX9PxmG+T+k8m+A60z7XVlSEzbao2W/5Qg/+38QY/JlHwnUbWvLgAypvQ2VdkAGQ68SDv3rV3kLwEaJDgl90gNlOBIgAESACRIAIEIGlgIARVG+LkXi0mRcfbfiLbZILufRzjchjvPZJLH55yif2mKPkHkuAuSd5SsSTOpZBKiP36Zw4tJcc69yog3VX5Wp/srDZbvlCgv8x8eBvD1Mz8iPbDX8fY/AVw+4qWN3sQGtZfaAQnXXXnuE8+O+iB797DFgiAkSACBABIkAEiMCSQ0BJq1hlHncY6Al+rCfkM4fkg5XaHXYw1oh+JPlo6ZWNOm6LqQlkXWltrJrXXkl90g6SnhJ1jJe6keLFJPfQsBnB/9swM7tDfmQLD/6Fo43BJ8GPJxjfiQARIAJEgAgQASLwaEAgj+DDbk/y1SsvbdHDHOm1evStAw+YBflP6r7s+HsXzoSoW4Mn8T4kB/0Dk3u7GrDFkjyVm2kvqzYl+IjBn9IQnZET/P/uPPjvpAe/7CizjwgQASJABIgAESACuzkCRvBhhhF0M0nr5mxPiHIhyUeHvLw3v0eOVTAsdb13y0bsMcwTfp2WXBAYV0+nJ+06Jnnzsm2u70d5wZjsgIJ6M4L/cefB/9/tePAj+F3tKuuClMbgX0uC30WNJSJABIgAESACRIAILG0EPMGHpZ7kp2UQSe2LufJKeOulgDHpOHSjM2mPo3tlZsm1J/YYn4bpoFJE7F0fipaystNYHhsg+YIxrq+qOCjBF6B6VFIc3aJl9YFi8Dd85e1h+fI95UFXe4ZPHHpGeNyqx4TJZcvD8onJ7oMI5KgBHD0gUEq0SctOSRaJABEgAkSACBABIkAExhsBJedglknqIevSltaTMUkUDuhf7HNzF3jvrc9yrAE3PF6Z1EPspc+4pQ1NvfaYlxB/L6KHuNskP0DKPWMyfXWqVQR/tjMX5uZnw0NTW8P/uOVC/ZHt3Oz2sHn9J9rx4NdR0o+BwQD2+OveHWaWrZC76OwZzj34pPDHe++jBH9SCX58AIFSexJ8Dx/LRIAIEAEiQASIABHYLRHIEngYkbYlFmndkXRP8nV8hrFjfFZGIqonU4dxD3OX7oS8G0fv6U4as0Q9W8+oo2suGNOjSb1KEcHHD4vnxea5hODf8/Bvw8bbLpbbZG4PK+ZnwuXrPjZagv+mLR8ID8tdjVas2CO884Bjw4H/4T8JwZ8MkxPLxYNPgl/v8HMUESACRIAIEAEiQASIwFJDoJrgz4oHfy786Pc/Dx//4Sbx4G8Le8sdgz575IdHS/DfesN54TfTU2GlEPwT9js8HLX2vyYEP4bo4BHC5sHHQdP/PpErOvtvlKV2IGkPESACRIAIEAEiQASIABEAAkbwNUcd/1Mhf9GDP5948OfCV++5PVx+9036JNt9Vq4Kn3zJxtES/HO+/T/Dj7feH1bJk2yf/UfPCO856JVh+SQ8+CT4PLWJABEgAkSACBABIkAEHr0I1CH4s3Nz4W/uuDr85MF7wtT0tnDAY/9dOOeFfzFagv+p738ufP2+u8WDv5cQ+5Xhk4f+edhr5ZqeH9kuC3KzU43Bpwf/0XuK03IiQASIABEgAkSACDy6EPAEX38OIB58ib5XTz68+PiR7dbp7eFtt1wUZuemNUTnZf9+v3D6n75xtAR/Urz1p13/4fCAXH0sn1wdTtzv0HDk0w6S8nLh9KD2EowDcq8EH4E5Gp+jR1fLj67jTGuJABEgAkSACBABIkAEHgUIKLmHncLsUda/5MfEQvGF5AvBn5sNX//lHeGyn9+iBP8Jk8vCRUd8IMwJr8Ydhur88LgIyoFukwmCf8G3Lwx3PPLbsFLCdB636rHhYy98Q1g1uSIN00nJfULyVRHG4RcdD7YTASJABIgAESACRIAI7OYIgNDjH1JK7pXYxxh83EFnanYmvOc7F4cHdj4cZud3hIMe86TwwReeMTqCD2VB7vHC7TJP2nJB2NmZkPrKsGHt88Kr/uMLlOCD3NsPbbNhOpBBLz5QYCICRIAIEAEiQASIABFYKggouYcxqfceZaX5+gNbeOanJSTnml/cFr7yy+8JoZ8KayY64ZIjP6iee3jw8Rok9eXBx4Ig9kbyP3brZ8O3H7hXHnq1OixftjK868D14YA/2jeSfAvTcbkqnNwflSR/kMPHuUSACBABIkAEiAARIALjgoAn99Ap671HHd77H973L+Hjd35VCL3E3s/uCn/2hKeFdx/yJiX2FqIziE19E3x4543go3zGDX8bfj8zLSR/pYbqfODADWGfvZ7Q80TbHi8+tE5IvhlAsm9IMCcCRIAIEAEiQASIABHYHRBISb0p60Nz0JZ47+G5x49rf7PtgXDBDzaHh+UJtrNC8J8o3PnCl7xLY+7Nez9I/D2W7JvgY7L34l9+56bwj7/+aZhdJg+5kqfb7rf3k8Lpzz4i7LPH4zUUx8fi68Ke3WeIPvqZiAARIAJEgAgQASJABIjAboNAQuyhr5F+EHX9S/Lf7HgwfOon14e75em18/LU2uXizT/6yc8Mxz/n2Na891h/IIKf9eJ//kebwld++1O5i84qJfl7ywOwTv+Tw8P+8t8OeMJtluSrAp7oo4GJCBABIkAEiAARIAJEgAjshggYsYfqWXJ/p4SzX/RP3wwPTm1Xcj8rsffrn/SscMp/ObZV7z3WHojgQ4D34oPAX3jHl8P19/1cCD1IvtwuU2L1N+x7UNjwjD8NK1FP/iKvXxiUs7AFqzARASJABIgAESACRIAIEIHxQsATemgWnfj669rouZf36fnZcO0vvh+ulVtiapiO1Oc60+GIJz4jnPHcV/eQe9wes400MMHPevFRv/Su68KW394td9bpCMGXkB35e9yqPcP6fQ8Mf7bPfw57rVituqdkXkN0YpwOo3XaOKyUQQSIABEgAkSACBABIjBsBLpROZHUYz0j/dtmdoVv/eafw1d+9YPw0NSO+JArIfdrhCsf+aT9won7r4tefuHLbcXem70DE3wIMi8+cg3DEcW/dveNYctv7g7/tmt7JPkTkzJSKP2yibD/3k8JBz1x3/CUPR8fHrdyj/D41XuGPeQHBinhN+2YEwEiQASIABEgAkSACBCBMUYAhH7H7HR4UDjvQ9M7wq+3PRh+8Idfhbse/nXozOMSAD+unZPyTHjy6r3CkfvsF47a7/CU3MNr38adczxErRB8kHpP8rEA2pA+d+d14Tv3/yo8LIbLfXd0nFyoCNEH4ce4GKOE8R25l35vPdvPOvHx5wvPB54PPB/w373x+5OfB34e+Hng54HfB6P5PgTu3c8fomwmxF+Pp9VKa5ibnwuPX7EyHPKEfcMbD1in/BfnKpIn99amHQO+tULwoQMALSL56L/wh9eGu7fdH/515yMyVjz9ErbTk4BMJi1syQxglQgQASJABIgAESACRIAILCICkZpnFkwIu7WKz14J/lPXPDbsJ7eNP+PAY6xLPfeoDIvcQ3ZrBF+FOZIPwm8v9Fm6+Re3hn/Z8VC4V24TtHVuJiA+6ZGZqTClT+yyK09AB3rPerwSJR48H/h54PcBvw/5fYj/6eZ+wP2A+8E47gerJ5fLb0xXhcfK70z3mlwRnia3if/jPR4XXvSMQ4wCa47PsL0sLKdNz70t1irBh1B8AcOTby/UrV0LfCMCRIAIEAEiQASIABEgAo8iBIzEI4fn3l7W3jYUrRN8KAhSb0Tf59bXthGURwSIABEgAkSACBABIkAExg0BI/BG7H1ufcPQeSgE3xQtI/o2hjkRIAJEgAgQASJABIgAEViKCHhCD6896sMk9obhUAl+ukjGow/iz0QEiAARIAJEgAgQASJABJYqAkbmF5PYG5aLQvDTxRKiT4JviDAnAkSACBABIkAEiAARWIoIGMFfDI99Fr9FJfh+cZJ8jwbLRIAIEAEiQASIABEgAksFgVGQeo/dyAi+V4JlIkAEiAARIAJEgAgQASJABNpBgAS/HRwphQgQASJABIgAESACRIAIjAUCJPhjcRioBBEgAkSACBABIkAEiAARaAcBEvx2cKQUIkAEiAARIAJEgAgQASIwFgiQ4I/FYaASRIAIEAEiQASIABEgAkSgHQRI8NvBkVKIABEgAkSACBABIkAEiMBYIECCPxaHgUoQASJABIgAESACRIAIEIF2ECDBbwdHSiECRIAIEAEiQASIABEgAmOBAAn+WBwGKkEEiAARIAJEgAgQASJABNpBgAS/HRwphQgQASJABIgAESACRIAIjAUCJPhjcRioBBEgAkSACBABIkAEiAARaAcBEvx2cKQUIkAEiAARIAJEgAgQASIwFgiQ4I/FYaASRIAIEAEiQASIABEgAkSgHQRI8NvBkVKIABEgAkSACBABIkAEiMBYIECCPxaHgUoQASJABIgAESACRIAIEIF2EPj/8EQMb/FD4g8AAAAASUVORK5CYII=;" vertex="1" parent="1">
                    <mxGeometry x="453.59" y="340" width="330.44" height="80" as="geometry"/>
                </mxCell>
            </root>
        </mxGraphModel>
    </diagram>
</mxfile>